<?xml version="1.0" encoding="utf-8"?>
<!-- Generator: Adobe Illustrator 24.0.0, SVG Export Plug-In . SVG Version: 6.00 Build 0)  -->
<svg version="1.1" id="Ebene_1" xmlns="http://www.w3.org/2000/svg" xmlns:xlink="http://www.w3.org/1999/xlink" x="0px" y="0px"
	 viewBox="0 0 566.93 170.08" style="enable-background:new 0 0 566.93 170.08;" xml:space="preserve">
<style type="text/css">
	.st0{fill:#ED6E00;}
	.st1{fill:#B2B2B2;}
	.st2{fill:#EDEDED;}
	.st3{fill:#DADADA;}
	.st4{fill:#C6C6C6;}
	.st5{fill:#C3004A;}
	.st6{fill:#9D9D9C;stroke:#9D9D9C;stroke-miterlimit:10;}
	.st7{fill:#9D9D9C;stroke:#9D9D9C;stroke-miterlimit:14.179;}
	.st8{fill:#646363;stroke:#646363;stroke-miterlimit:10;}
	.st9{fill:#646363;stroke:#646363;stroke-miterlimit:14.179;}
	.st10{fill:#646363;}
</style>
<rect x="50.32" y="94.49" class="st0" width="15.88" height="15.88"/>
<rect x="76.37" y="81.24" class="st1" width="18.38" height="18.39"/>
<rect x="58.45" y="75.58" class="st1" width="12.26" height="12.26"/>
<rect x="71.57" y="107.58" class="st2" width="10.72" height="10.72"/>
<rect x="100.72" y="92.46" class="st3" width="12.98" height="12.98"/>
<rect x="87.24" y="62.51" class="st4" width="12.26" height="12.25"/>
<rect x="119.35" y="101.66" class="st5" width="12.26" height="12.26"/>
<rect x="106.02" y="70.16" class="st2" width="10.72" height="10.72"/>
<g>
	<path class="st6" d="M442.67,62.4h-4.09l-13.59,38.06L411.06,62.4h-4.09l-13.68,38.06L379.35,62.4h-4.18l16.11,43.73h4.18
		l13.5-37.98l13.94,37.98h4.27L442.67,62.4z M334.49,66.32h19.77c5.28,0,7.93,2.67,7.93,8.01v19.86c0,5.28-2.64,7.93-7.93,7.93
		h-15.94c-5.23,0-7.84-2.64-7.84-7.93V42.54h-4.01v51.65c0,7.96,3.95,11.93,11.84,11.93h15.94c7.96,0,11.93-3.98,11.93-11.96v-19.9
		c0-7.97-3.98-11.96-11.93-11.96h-19.77V66.32z"/>
	<path class="st7" d="M442.67,62.4h-4.09l-13.59,38.06L411.06,62.4h-4.09l-13.68,38.06L379.35,62.4h-4.18l16.11,43.73h4.18
		l13.5-37.98l13.94,37.98h4.27L442.67,62.4z M334.49,66.32h19.77c5.28,0,7.93,2.67,7.93,8.01v19.86c0,5.28-2.64,7.93-7.93,7.93
		h-15.94c-5.23,0-7.84-2.64-7.84-7.93V42.54h-4.01v51.65c0,7.96,3.95,11.93,11.84,11.93h15.94c7.96,0,11.93-3.98,11.93-11.96v-19.9
		c0-7.97-3.98-11.96-11.93-11.96h-19.77V66.32z"/>
	<path class="st8" d="M282.89,102.12c-5.23,0-7.84-2.64-7.84-7.93V74.33c0-5.34,2.61-8.01,7.84-8.01h17.59v-4.01h-17.59
		c-7.9,0-11.85,3.99-11.85,11.96v19.9c0,7.97,3.95,11.96,11.85,11.96h17.59v-4.01H282.89z M228.19,102.12
		c-5.23,0-7.84-2.64-7.84-7.93V74.33c0-5.34,2.61-8.01,7.84-8.01h15.94c5.28,0,7.93,2.67,7.93,8.01v0.17c0,5.17-2.64,7.75-7.93,7.75
		h-19.77v4.01h19.77c7.95,0,11.93-3.93,11.93-11.8v-0.17c0-7.98-3.98-11.98-11.93-11.98h-15.94c-7.9,0-11.85,3.99-11.85,11.96v19.9
		c0,7.97,3.95,11.96,11.85,11.96h23.87v-4.01H228.19z M190.83,66.32h3.83v39.8h4.01v-39.8h8.19v-4.01h-8.19V42.54h-4.01v19.77h-3.83
		V66.32z M149.8,62.31c-7.9,0-11.85,3.99-11.85,11.96v19.9c0,7.97,3.95,11.96,11.85,11.96h15.94c7.95,0,11.93-3.98,11.93-11.93
		V42.54h-4.01v51.65c0,5.28-2.64,7.93-7.93,7.93H149.8c-5.23,0-7.84-2.64-7.84-7.93V74.33c0-5.34,2.61-8.01,7.84-8.01h19.95v-4.01
		H149.8z"/>
	<path class="st9" d="M282.89,102.12c-5.23,0-7.84-2.64-7.84-7.93V74.33c0-5.34,2.61-8.01,7.84-8.01h17.59v-4.01h-17.59
		c-7.9,0-11.85,3.99-11.85,11.96v19.9c0,7.97,3.95,11.96,11.85,11.96h17.59v-4.01H282.89z M228.19,102.12
		c-5.23,0-7.84-2.64-7.84-7.93V74.33c0-5.34,2.61-8.01,7.84-8.01h15.94c5.28,0,7.93,2.67,7.93,8.01v0.17c0,5.17-2.64,7.75-7.93,7.75
		h-19.77v4.01h19.77c7.95,0,11.93-3.93,11.93-11.8v-0.17c0-7.98-3.98-11.98-11.93-11.98h-15.94c-7.9,0-11.85,3.99-11.85,11.96v19.9
		c0,7.97,3.95,11.96,11.85,11.96h23.87v-4.01H228.19z M190.83,66.32h3.83v39.8h4.01v-39.8h8.19v-4.01h-8.19V42.54h-4.01v19.77h-3.83
		V66.32z M149.8,62.31c-7.9,0-11.85,3.99-11.85,11.96v19.9c0,7.97,3.95,11.96,11.85,11.96h15.94c7.95,0,11.93-3.98,11.93-11.93
		V42.54h-4.01v51.65c0,5.28-2.64,7.93-7.93,7.93H149.8c-5.23,0-7.84-2.64-7.84-7.93V74.33c0-5.34,2.61-8.01,7.84-8.01h19.95v-4.01
		H149.8z"/>
</g>
<rect x="309.63" y="99.41" class="st10" width="8.66" height="8.66"/>
</svg>
