<?xml version="1.0" encoding="utf-8"?>
<!-- Generator: Adobe Illustrator 24.0.0, SVG Export Plug-In . SVG Version: 6.00 Build 0)  -->
<svg version="1.0" id="Ebene_1" xmlns="http://www.w3.org/2000/svg" xmlns:xlink="http://www.w3.org/1999/xlink" x="0px" y="0px"
	 viewBox="0 0 1800 1014" style="enable-background:new 0 0 1800 1014;" xml:space="preserve">
<style type="text/css">
	.st0{fill:#FFFFFF;}
	.st1{fill:none;stroke:#FFFFFF;stroke-width:1.941;stroke-miterlimit:10;}
</style>
<g>
	<path class="st0" d="M1013.9,561.4c-3.3,9.2-17.2,12-20.7,4.8c-3.5-7.1-6.4-8.1-12-12.5c-6.5-5,2.7-7,2.7-7
		c-1.4-0.9-5.5-3-10.7-4.4c-8-2.2-6.9-11.8,1.4-12.2c11.3-0.4,17.5,1.1,27,6.8c6.1,3.7,12.1,5.1,19.1,5.7c8.9,0.7,8.5,19.8-5,18.9
		L1013.9,561.4z"/>
	<path class="st1" d="M1013.9,561.4c-3.3,9.2-17.2,12-20.7,4.8c-3.5-7.1-6.4-8.1-12-12.5c-6.5-5,2.7-7,2.7-7
		c-1.4-0.9-5.5-3-10.7-4.4c-8-2.2-6.9-11.8,1.4-12.2c11.3-0.4,17.5,1.1,27,6.8c6.1,3.7,12.1,5.1,19.1,5.7c8.9,0.7,8.5,19.8-5,18.9
		L1013.9,561.4z"/>
	<path class="st0" d="M695.9,336c-4.5,45.9-0.1,89.4,19.3,131.5c17.1,37,25.2,50.7,26.1,94.3c1.2,55.8-3.7,86.9-8.4,166.5l0,3.8
		c0,7.7-22.8,10.8-26.7,12.1c-33.1,11-63.3,29.2-89.2,52.5c-6.3,5.7-14.3-1.9-8.9-8.5c21-25.8,39.3-40.4,66.8-53.9
		c4.1-2,21.9-10.9,36.7-15.3c3.3-45.3,11.8-171.2,3.4-198c-6.1-19.4-16.8-36.8-23.9-55.6c-12.1-32.3-18.9-78.9-16.9-113.4
		c2-33.9,10.7-66.5,27.5-95.8c4.2-7.4,14.1-2.8,11.2,5.2C702.7,289.5,698.9,306.2,695.9,336"/>
	<path class="st1" d="M695.9,336c-4.5,45.9-0.1,89.4,19.3,131.5c17.1,37,25.2,50.7,26.1,94.3c1.2,55.8-3.7,86.9-8.4,166.5l0,3.8
		c0,7.7-22.8,10.8-26.7,12.1c-33.1,11-63.3,29.2-89.2,52.5c-6.3,5.7-14.3-1.9-8.9-8.5c21-25.8,39.3-40.4,66.8-53.9
		c4.1-2,21.9-10.9,36.7-15.3c3.3-45.3,11.8-171.2,3.4-198c-6.1-19.4-16.8-36.8-23.9-55.6c-12.1-32.3-18.9-78.9-16.9-113.4
		c2-33.9,10.7-66.5,27.5-95.8c4.2-7.4,14.1-2.8,11.2,5.2C702.7,289.5,698.9,306.2,695.9,336z"/>
	<path class="st0" d="M819,689.2c-8,8-21.8,17.2-38.7,18.1c-8.4,0.4-10.2-9.7-2.1-12.1c12.6-3.7,22.5-11.6,29.2-18.3
		c2.7-2.7,9.1-13.2,14.8-27.6c3.1-7.8,12.7-5.5,11.9,2.8C832.5,670.1,824.8,683.4,819,689.2"/>
	<path class="st1" d="M819,689.2c-8,8-21.8,17.2-38.7,18.1c-8.4,0.4-10.2-9.7-2.1-12.1c12.6-3.7,22.5-11.6,29.2-18.3
		c2.7-2.7,9.1-13.2,14.8-27.6c3.1-7.8,12.7-5.5,11.9,2.8C832.5,670.1,824.8,683.4,819,689.2z"/>
	<path class="st0" d="M851.5,599.1c-1.2-6.1,1.1-17.8,4.5-28.3c2.7-8.2,14.4-4.4,11.8,3.8c-3.9,12.4-2.5,18.6,2.1,29.9
		c1.7,4.2,3.9,8.3,6.8,11.6c5.7,6.4-2.6,14.5-8.9,8.6C858.8,616.3,852.9,605.9,851.5,599.1"/>
	<path class="st1" d="M851.5,599.1c-1.2-6.1,1.1-17.8,4.5-28.3c2.7-8.2,14.4-4.4,11.8,3.8c-3.9,12.4-2.5,18.6,2.1,29.9
		c1.7,4.2,3.9,8.3,6.8,11.6c5.7,6.4-2.6,14.5-8.9,8.6C858.8,616.3,852.9,605.9,851.5,599.1z"/>
	<path class="st0" d="M1062.9,437.6c-18.9-0.2-30.1,6.9-40.1,14c-6.7,4.7-13.2-1.5-8.8-8.4c14.4-22.7,38.8-27.3,63.7-25.2
		c10.4,0.9,22,37.4,4.5,26.4C1074.8,439.9,1068.6,437.7,1062.9,437.6"/>
	<path class="st1" d="M1062.9,437.6c-18.9-0.2-30.1,6.9-40.1,14c-6.7,4.7-13.2-1.5-8.8-8.4c14.4-22.7,38.8-27.3,63.7-25.2
		c10.4,0.9,22,37.4,4.5,26.4C1074.8,439.9,1068.6,437.7,1062.9,437.6z"/>
	<path class="st0" d="M771.1,348.6c-15.5,58.8-0.8,103.3,49.5,137.4c2.2,1.5,3.2,5.4,2.1,7.8c-6,12.4-7.3,25.6-4,38.9
		c2,8-6.5,11.8-11.2,4.9c-8.6-12.8-11.9-27-9.3-42.1c-39.2-25.3-57.6-67-54.7-113.6c2.3-37.4,22.8-76.3,48.2-103.1
		c5.9-6.2,14.6,1.2,9.4,8C785,308.3,778,322.6,771.1,348.6"/>
	<path class="st1" d="M771.1,348.6c-15.5,58.8-0.8,103.3,49.5,137.4c2.2,1.5,3.2,5.4,2.1,7.8c-6,12.4-7.3,25.6-4,38.9
		c2,8-6.5,11.8-11.2,4.9c-8.6-12.8-11.9-27-9.3-42.1c-39.2-25.3-57.6-67-54.7-113.6c2.3-37.4,22.8-76.3,48.2-103.1
		c5.9-6.2,14.6,1.2,9.4,8C785,308.3,778,322.6,771.1,348.6z"/>
	<path class="st0" d="M1011.5,638.2l5.1-0.1c2.4-0.2,4-0.7,3.9-2.6c-7.4-22.1,18.1-10.7,27.9-8.4c-0.2-20.9-0.8-46.9-0.8-63.6
		c0-11.6,13.1-24.6,18.1-35.5c1.1-2.4,3.2-8.6,5.7-13.7c-17.6,6.4-37.3-2.4-49.1-16.2c-5.4-6.4,1.1-13.8,8.1-9.2
		c14.5,9.5,28.7,14.1,42.8,2c6-2.7,10-1.3,13.2,1.3l3,2.6c6.7-9.6,6.1-21.5,2.7-31c-4.3-12.3-10-18.8-21.5-24.7l-30.1-51.9
		c-9.3-17.9-1.6-43.3-21.6-62.6c-4.5-4.3-15.7-8.8-17.2-12c-7-14.7-24.9-43-40.1-52.2c-18.5-11.2-57.3-14.1-78.7-12.6
		c-8.6,0.6-9.9-10.9-1.4-12.3c12.6-2.1,25.4-3.2,38.1-3c-1.7-9.2-3.5-48,3.1-54.7l12.2-12.2l-7.2-4.3l-25.3-5.6l-41.1-2.9
		c-8.5-0.6-8.5-11.7,0-12.4c0,0,24.5-4.2,40.2-3c12.4,0.9,20.1,0.9,31.3,6.1c13.5,6.3,32,16.8,9.2,37l-4.6,5.7
		c-2.4,15.6-1.4,31.8,3.3,46.9c35.6,6.1,59.9,33.8,75.6,64.7c29.7,13.7,42.5,50.3,42.9,81.1c7.7,15.5,15.8,31.5,26,45.5
		c13.2,6,23.2,23.3,25,29.5c4.2,14.8,8.1,51.8-10.1,60.5c-1.4,0.7-2.9,1.2-4.5,1.7c-4.1,2.7-6.2,4.4-8.4,5.5
		c-5.3,11.8-11.2,22.1-18.4,33.1c-2.1,3.2-6.2,9.2-6.2,13.2c0,27.2,0.8,48,1.7,69.4c0.5,11.5-17.5,4.4-29,2.2
		c-1.3,3.1-2.3,5.1-3.8,7.8c0.1,8-4,16.1-10.4,20.9c-0.4,3.6,2.8,11.1,2.8,15.9c0,6.5-2.9,11.7-6.5,15.9c25.8,13.7,41.8,8.2,70,12.3
		c46.7,6.8,78.8,48.2,100.7,86.6l5.2,25.7c1.6,8.4-8.8,11.3-11.9,3.4c-14.7-37.7-43-77-81.3-93.1c-25.3-10.6-29.6-7.3-53.6-8.3
		c-19.5-0.8-26.9-11.6-44.3-13.1c-9.6-0.8-18.8-2.7-27.9-5.2c-0.9,1.8-2.2,3.9-3.2,6.4c-3.1,7.5-2,26.8-2,34.7c0,8.5-11,9.4-12.3,1
		c-3-19.1-6.1-26-3-45.9c-19.4-6.6-31.8-16-45.3-29.1c-4.3-4.2-8.8-8.8-13.6-13.8c-5.8-6.9,2.9-14.8,8.9-8.6c4.2,5,8.1,9,12.6,12.8
		c3.7,3.2,7.8,6.3,12.7,9.6c14,9.4,23.4,13.5,39.2,17.5l22.8,3.3c18.6,2.4,19.4-20.3,14.4-29.6c-1.9-3.5,1.2-8.3,4-11.7
		c-10.2-1.8-20.6-4.7-29.3-10c-7.3-4.4-2.7-14,5.3-11.1C993.8,636.4,1002.5,638,1011.5,638.2"/>
	<path class="st1" d="M1011.5,638.2l5.1-0.1c2.4-0.2,4-0.7,3.9-2.6c-7.4-22.1,18.1-10.7,27.9-8.4c-0.2-20.9-0.8-46.9-0.8-63.6
		c0-11.6,13.1-24.6,18.1-35.5c1.1-2.4,3.2-8.6,5.7-13.7c-17.6,6.4-37.3-2.4-49.1-16.2c-5.4-6.4,1.1-13.8,8.1-9.2
		c14.5,9.5,28.7,14.1,42.8,2c6-2.7,10-1.3,13.2,1.3l3,2.6c6.7-9.6,6.1-21.5,2.7-31c-4.3-12.3-10-18.8-21.5-24.7l-30.1-51.9
		c-9.3-17.9-1.6-43.3-21.6-62.6c-4.5-4.3-15.7-8.8-17.2-12c-7-14.7-24.9-43-40.1-52.2c-18.5-11.2-57.3-14.1-78.7-12.6
		c-8.6,0.6-9.9-10.9-1.4-12.3c12.6-2.1,25.4-3.2,38.1-3c-1.7-9.2-3.5-48,3.1-54.7l12.2-12.2l-7.2-4.3l-25.3-5.6l-41.1-2.9
		c-8.5-0.6-8.5-11.7,0-12.4c0,0,24.5-4.2,40.2-3c12.4,0.9,20.1,0.9,31.3,6.1c13.5,6.3,32,16.8,9.2,37l-4.6,5.7
		c-2.4,15.6-1.4,31.8,3.3,46.9c35.6,6.1,59.9,33.8,75.6,64.7c29.7,13.7,42.5,50.3,42.9,81.1c7.7,15.5,15.8,31.5,26,45.5
		c13.2,6,23.2,23.3,25,29.5c4.2,14.8,8.1,51.8-10.1,60.5c-1.4,0.7-2.9,1.2-4.5,1.7c-4.1,2.7-6.2,4.4-8.4,5.5
		c-5.3,11.8-11.2,22.1-18.4,33.1c-2.1,3.2-6.2,9.2-6.2,13.2c0,27.2,0.8,48,1.7,69.4c0.5,11.5-17.5,4.4-29,2.2
		c-1.3,3.1-2.3,5.1-3.8,7.8c0.1,8-4,16.1-10.4,20.9c-0.4,3.6,2.8,11.1,2.8,15.9c0,6.5-2.9,11.7-6.5,15.9c25.8,13.7,41.8,8.2,70,12.3
		c46.7,6.8,78.8,48.2,100.7,86.6l5.2,25.7c1.6,8.4-8.8,11.3-11.9,3.4c-14.7-37.7-43-77-81.3-93.1c-25.3-10.6-29.6-7.3-53.6-8.3
		c-19.5-0.8-26.9-11.6-44.3-13.1c-9.6-0.8-18.8-2.7-27.9-5.2c-0.9,1.8-2.2,3.9-3.2,6.4c-3.1,7.5-2,26.8-2,34.7c0,8.5-11,9.4-12.3,1
		c-3-19.1-6.1-26-3-45.9c-19.4-6.6-31.8-16-45.3-29.1c-4.3-4.2-8.8-8.8-13.6-13.8c-5.8-6.9,2.9-14.8,8.9-8.6c4.2,5,8.1,9,12.6,12.8
		c3.7,3.2,7.8,6.3,12.7,9.6c14,9.4,23.4,13.5,39.2,17.5l22.8,3.3c18.6,2.4,19.4-20.3,14.4-29.6c-1.9-3.5,1.2-8.3,4-11.7
		c-10.2-1.8-20.6-4.7-29.3-10c-7.3-4.4-2.7-14,5.3-11.1C993.8,636.4,1002.5,638,1011.5,638.2z"/>
	<path class="st0" d="M990.5,390.9c-17.2,4.6-26.7,8.3-42.5,16.5c-7.6,3.9-13.4-5.5-6.5-10.5c24.4-17.7,52-25.9,82-24.5
		c8.5,0.4,8.8,11.5,0.3,12.3C1010.7,386.1,1003.3,387.5,990.5,390.9"/>
	<path class="st1" d="M990.5,390.9c-17.2,4.6-26.7,8.3-42.5,16.5c-7.6,3.9-13.4-5.5-6.5-10.5c24.4-17.7,52-25.9,82-24.5
		c8.5,0.4,8.8,11.5,0.3,12.3C1010.7,386.1,1003.3,387.5,990.5,390.9z"/>
	<path class="st0" d="M849.9,500.2c11-13.8,18.6-29.6,22.9-46.7c1.8-7.2,8.8-7.8,11.7-0.9c4.5,10.5,13.8,17,25.2,17.6
		c8.5,0.4,9,11.1,0.6,12.3c-9,1.3-18.6,0.6-27.2-2.4c-9,21.2-24.1,39.8-45.4,49.5c-7.7,3.5-13-5.2-6.4-10.5
		C839.3,512.5,843.4,508.3,849.9,500.2"/>
	<path class="st1" d="M849.9,500.2c11-13.8,18.6-29.6,22.9-46.7c1.8-7.2,8.8-7.8,11.7-0.9c4.5,10.5,13.8,17,25.2,17.6
		c8.5,0.4,9,11.1,0.6,12.3c-9,1.3-18.6,0.6-27.2-2.4c-9,21.2-24.1,39.8-45.4,49.5c-7.7,3.5-13-5.2-6.4-10.5
		C839.3,512.5,843.4,508.3,849.9,500.2z"/>
</g>
</svg>
