<?xml version="1.0" encoding="utf-8"?>
<!-- Generator: Adobe Illustrator 24.0.0, SVG Export Plug-In . SVG Version: 6.00 Build 0)  -->
<svg version="1.0" id="Ebene_1" xmlns="http://www.w3.org/2000/svg" xmlns:xlink="http://www.w3.org/1999/xlink" x="0px" y="0px"
	 viewBox="0 0 1800 1014" style="enable-background:new 0 0 1800 1014;" xml:space="preserve">
<style type="text/css">
	.st0{fill:#FFFFFF;}
</style>
<rect x="230.2" y="547.9" class="st0" width="53" height="53"/>
<rect x="317.2" y="503.6" class="st0" width="61.4" height="61.4"/>
<rect x="257.4" y="484.7" class="st0" width="40.9" height="40.9"/>
<rect x="301.2" y="591.6" class="st0" width="35.8" height="35.8"/>
<rect x="398.5" y="541.1" class="st0" width="43.3" height="43.3"/>
<rect x="353.5" y="441" class="st0" width="40.9" height="40.9"/>
<rect x="460.7" y="571.8" class="st0" width="40.9" height="40.9"/>
<rect x="416.2" y="466.6" class="st0" width="35.8" height="35.8"/>
<g>
	<g>
		<path class="st0" d="M1540.7,440.7H1527l-45.4,127.1L1435,440.7h-13.7l-45.7,127.1l-46.5-127.1h-14l53.8,146h14l45.1-126.8
			l46.5,126.8h14.3L1540.7,440.7z M1179.3,453.8h66c17.6,0,26.5,8.9,26.5,26.8v66.3c0,17.6-8.8,26.5-26.5,26.5h-53.2
			c-17.5,0-26.2-8.8-26.2-26.5V374.4h-13.4v172.5c0,26.6,13.2,39.9,39.6,39.9h53.2c26.6,0,39.9-13.3,39.9-39.9v-66.5
			c0-26.6-13.3-39.9-39.9-39.9h-66V453.8z"/>
		<path class="st0" d="M1490,588.4h-16.6l-45.4-123.6l-43.9,123.6h-16.3l-0.4-1.1L1312.8,439h17.5l45.4,123.9l44.5-123.9h16
			l45.4,123.9l44.2-123.9h17.2L1490,588.4z M1475.8,585.1h11.9l50.6-142.7h-10.1l-46.5,130.4l-47.7-130.4h-11.3l-46.8,130.4
			L1328,442.4h-10.4l52.6,142.7h11.6L1428,455L1475.8,585.1z M1245.4,588.4h-53.2c-27.4,0-41.2-14-41.2-41.5V372.7h16.7v174.2
			c0,16.7,8,24.8,24.5,24.8h53.2c16.7,0,24.8-8.1,24.8-24.8v-66.3c0-16.9-8.1-25.1-24.8-25.1h-67.7v-16.7h67.7
			c27.6,0,41.5,14,41.5,41.6v66.5C1286.9,574.4,1272.9,588.4,1245.4,588.4z M1154.2,376v170.8c0,25.7,12.4,38.2,37.9,38.2h53.2
			c25.7,0,38.2-12.5,38.2-38.3v-66.5c0-25.7-12.5-38.3-38.2-38.3H1181v10h64.4c18.7,0,28.1,9.6,28.1,28.4v66.3
			c0,18.7-9.5,28.1-28.1,28.1h-53.2c-18.5,0-27.9-9.5-27.9-28.1V376H1154.2z"/>
	</g>
	<g>
		<path class="st0" d="M1540.7,440.7H1527l-45.4,127.1L1435,440.7h-13.7l-45.7,127.1l-46.5-127.1h-14l53.8,146h14l45.1-126.8
			l46.5,126.8h14.3L1540.7,440.7z M1179.3,453.8h66c17.6,0,26.5,8.9,26.5,26.8v66.3c0,17.6-8.8,26.5-26.5,26.5h-53.2
			c-17.5,0-26.2-8.8-26.2-26.5V374.4h-13.4v172.5c0,26.6,13.2,39.9,39.6,39.9h53.2c26.6,0,39.9-13.3,39.9-39.9v-66.5
			c0-26.6-13.3-39.9-39.9-39.9h-66V453.8z"/>
		<path class="st0" d="M1490,588.4h-16.6l-0.4-1.1l-44.9-122.5l-43.9,123.6h-16.3l-0.4-1.1L1312.8,439h17.5l45.4,123.9l44.5-123.9
			h16l45.4,123.9l44.2-123.9h17.2L1490,588.4z M1475.8,585.1h11.9l50.6-142.7h-10.1l-46.5,130.4l-47.7-130.4h-11.3l-46.8,130.4
			L1328,442.4h-10.4l52.6,142.7h11.6L1428,455L1475.8,585.1z M1245.4,588.4h-53.2c-27.4,0-41.2-14-41.2-41.5V372.7h16.7v174.2
			c0,16.7,8,24.8,24.5,24.8h53.2c16.7,0,24.8-8.1,24.8-24.8v-66.3c0-16.9-8.1-25.1-24.8-25.1h-67.7v-16.7h67.7
			c27.6,0,41.5,14,41.5,41.6v66.5C1286.9,574.4,1272.9,588.4,1245.4,588.4z M1154.2,376v170.8c0,25.7,12.4,38.2,37.9,38.2h53.2
			c25.7,0,38.2-12.5,38.2-38.3v-66.5c0-25.7-12.5-38.3-38.2-38.3H1181v10h64.4c18.7,0,28.1,9.6,28.1,28.4v66.3
			c0,18.7-9.5,28.1-28.1,28.1h-53.2c-18.5,0-27.9-9.5-27.9-28.1V376H1154.2z"/>
	</g>
	<g>
		<path class="st0" d="M1007,573.4c-17.5,0-26.2-8.8-26.2-26.5v-66.3c0-17.8,8.7-26.8,26.2-26.8h58.8v-13.4H1007
			c-26.4,0-39.6,13.3-39.6,39.9v66.5c0,26.6,13.2,39.9,39.6,39.9h58.8v-13.4H1007z M824.3,573.4c-17.5,0-26.2-8.8-26.2-26.5v-66.3
			c0-17.8,8.7-26.8,26.2-26.8h53.2c17.6,0,26.5,8.9,26.5,26.8v0.6c0,17.3-8.8,25.9-26.5,25.9h-66v13.4h66
			c26.6,0,39.9-13.1,39.9-39.4v-0.6c0-26.7-13.3-40-39.9-40h-53.2c-26.4,0-39.6,13.3-39.6,39.9v66.5c0,26.6,13.2,39.9,39.6,39.9H904
			v-13.4H824.3z M699.5,453.8h12.8v132.9h13.4V453.8H753v-13.4h-27.3v-66h-13.4v66h-12.8V453.8z M562.5,440.4
			c-26.4,0-39.6,13.3-39.6,39.9v66.5c0,26.6,13.2,39.9,39.6,39.9h53.2c26.6,0,39.9-13.3,39.9-39.9V374.4h-13.4v172.5
			c0,17.7-8.8,26.5-26.5,26.5h-53.2c-17.5,0-26.2-8.8-26.2-26.5v-66.3c0-17.8,8.7-26.8,26.2-26.8h66.6v-13.4H562.5z"/>
		<path class="st0" d="M1067.4,588.4H1007c-27.4,0-41.2-14-41.2-41.6v-66.5c0-27.6,13.9-41.6,41.2-41.6h60.4v16.7H1007
			c-16.5,0-24.5,8.2-24.5,25.1v66.3c0,16.7,8,24.8,24.5,24.8h60.4V588.4z M1007,442.1c-25.5,0-37.9,12.5-37.9,38.3v66.5
			c0,25.7,12.4,38.3,37.9,38.3h57.1v-10H1007c-18.5,0-27.9-9.5-27.9-28.1v-66.3c0-18.9,9.4-28.4,27.9-28.4h57.1v-10H1007z
			 M905.7,588.4h-81.4c-27.4,0-41.2-14-41.2-41.6v-66.5c0-27.6,13.9-41.6,41.2-41.6h53.2c27.6,0,41.5,14,41.5,41.7v0.6
			c0,27.3-14,41.1-41.5,41.1h-67.7v-16.7h67.7c16.7,0,24.8-7.9,24.8-24.2v-0.6c0-16.9-8.1-25.1-24.8-25.1h-53.2
			c-16.5,0-24.5,8.2-24.5,25.1v66.3c0,16.7,8,24.8,24.5,24.8h81.4V588.4z M824.3,442.1c-25.5,0-37.9,12.5-37.9,38.3v66.5
			c0,25.7,12.4,38.3,37.9,38.3h78v-10h-78c-18.5,0-27.9-9.5-27.9-28.1v-66.3c0-18.9,9.4-28.4,27.9-28.4h53.2
			c18.7,0,28.1,9.6,28.1,28.4v0.6c0,18.3-9.5,27.6-28.1,27.6h-64.4v10h64.4c25.7,0,38.2-12.3,38.2-37.7v-0.6
			c0-25.8-12.5-38.3-38.2-38.3H824.3z M727.3,588.4h-16.7V455.5h-12.8v-16.7h12.8v-66h16.7v66h27.3v16.7h-27.3V588.4z M714,585.1h10
			V452.1h27.3v-10H724v-66h-10v66h-12.8v10H714V585.1z M615.7,588.4h-53.2c-27.4,0-41.2-14-41.2-41.6v-66.5
			c0-27.6,13.9-41.6,41.2-41.6h68.3v16.7h-68.3c-16.5,0-24.5,8.2-24.5,25.1v66.3c0,16.7,8,24.8,24.5,24.8h53.2
			c16.7,0,24.8-8.1,24.8-24.8V372.7h16.7v174.2C657.2,574.4,643.3,588.4,615.7,588.4z M562.5,442.1c-25.5,0-37.9,12.5-37.9,38.3
			v66.5c0,25.7,12.4,38.3,37.9,38.3h53.2c25.7,0,38.2-12.5,38.2-38.2V376h-10v170.8c0,18.7-9.5,28.1-28.1,28.1h-53.2
			c-18.5,0-27.9-9.5-27.9-28.1v-66.3c0-18.9,9.4-28.4,27.9-28.4h64.9v-10H562.5z"/>
	</g>
	<g>
		<path class="st0" d="M1007,573.4c-17.5,0-26.2-8.8-26.2-26.5v-66.3c0-17.8,8.7-26.8,26.2-26.8h58.8v-13.4H1007
			c-26.4,0-39.6,13.3-39.6,39.9v66.5c0,26.6,13.2,39.9,39.6,39.9h58.8v-13.4H1007z M824.3,573.4c-17.5,0-26.2-8.8-26.2-26.5v-66.3
			c0-17.8,8.7-26.8,26.2-26.8h53.2c17.6,0,26.5,8.9,26.5,26.8v0.6c0,17.3-8.8,25.9-26.5,25.9h-66v13.4h66
			c26.6,0,39.9-13.1,39.9-39.4v-0.6c0-26.7-13.3-40-39.9-40h-53.2c-26.4,0-39.6,13.3-39.6,39.9v66.5c0,26.6,13.2,39.9,39.6,39.9H904
			v-13.4H824.3z M699.5,453.8h12.8v132.9h13.4V453.8H753v-13.4h-27.3v-66h-13.4v66h-12.8V453.8z M562.5,440.4
			c-26.4,0-39.6,13.3-39.6,39.9v66.5c0,26.6,13.2,39.9,39.6,39.9h53.2c26.6,0,39.9-13.3,39.9-39.9V374.4h-13.4v172.5
			c0,17.7-8.8,26.5-26.5,26.5h-53.2c-17.5,0-26.2-8.8-26.2-26.5v-66.3c0-17.8,8.7-26.8,26.2-26.8h66.6v-13.4H562.5z"/>
		<path class="st0" d="M1067.4,588.4H1007c-27.4,0-41.2-14-41.2-41.6v-66.5c0-27.6,13.9-41.6,41.2-41.6h60.4v16.7H1007
			c-16.5,0-24.5,8.2-24.5,25.1v66.3c0,16.7,8,24.8,24.5,24.8h60.4V588.4z M1007,442.1c-25.5,0-37.9,12.5-37.9,38.3v66.5
			c0,25.7,12.4,38.3,37.9,38.3h57.1v-10H1007c-18.5,0-27.9-9.5-27.9-28.1v-66.3c0-18.9,9.4-28.4,27.9-28.4h57.1v-10H1007z
			 M905.7,588.4h-81.4c-27.4,0-41.2-14-41.2-41.6v-66.5c0-27.6,13.9-41.6,41.2-41.6h53.2c27.6,0,41.5,14,41.5,41.7v0.6
			c0,27.3-14,41.1-41.5,41.1h-67.7v-16.7h67.7c16.7,0,24.8-7.9,24.8-24.2v-0.6c0-16.9-8.1-25.1-24.8-25.1h-53.2
			c-16.5,0-24.5,8.2-24.5,25.1v66.3c0,16.7,8,24.8,24.5,24.8h81.4V588.4z M824.3,442.1c-25.5,0-37.9,12.5-37.9,38.3v66.5
			c0,25.7,12.4,38.3,37.9,38.3h78v-10h-78c-18.5,0-27.9-9.5-27.9-28.1v-66.3c0-18.9,9.4-28.4,27.9-28.4h53.2
			c18.7,0,28.1,9.6,28.1,28.4v0.6c0,18.3-9.5,27.6-28.1,27.6h-64.4v10h64.4c25.7,0,38.2-12.3,38.2-37.7v-0.6
			c0-25.8-12.5-38.3-38.2-38.3H824.3z M727.3,588.4h-16.7V455.5h-12.8v-16.7h12.8v-66h16.7v66h27.3v16.7h-27.3V588.4z M714,585.1h10
			V452.1h27.3v-10H724v-66h-10v66h-12.8v10H714V585.1z M615.7,588.4h-53.2c-27.4,0-41.2-14-41.2-41.6v-66.5
			c0-27.6,13.9-41.6,41.2-41.6h68.3v16.7h-68.3c-16.5,0-24.5,8.2-24.5,25.1v66.3c0,16.7,8,24.8,24.5,24.8h53.2
			c16.7,0,24.8-8.1,24.8-24.8V372.7h16.7v174.2C657.2,574.4,643.3,588.4,615.7,588.4z M562.5,442.1c-25.5,0-37.9,12.5-37.9,38.3
			v66.5c0,25.7,12.4,38.3,37.9,38.3h53.2c25.7,0,38.2-12.5,38.2-38.2V376h-10v170.8c0,18.7-9.5,28.1-28.1,28.1h-53.2
			c-18.5,0-27.9-9.5-27.9-28.1v-66.3c0-18.9,9.4-28.4,27.9-28.4h64.9v-10H562.5z"/>
	</g>
</g>
<rect x="1096.3" y="564.3" class="st0" width="28.9" height="28.9"/>
</svg>
