<?xml version="1.0" encoding="utf-8"?>
<!-- Generator: Adobe Illustrator 24.0.0, SVG Export Plug-In . SVG Version: 6.00 Build 0)  -->
<svg version="1.0" id="Ebene_1" xmlns="http://www.w3.org/2000/svg" xmlns:xlink="http://www.w3.org/1999/xlink" x="0px" y="0px"
	 viewBox="0 0 1800 1014" style="enable-background:new 0 0 1800 1014;" xml:space="preserve">
<style type="text/css">
	.st0{fill:none;stroke:#FFFFFF;stroke-width:20.173;stroke-miterlimit:10;}
	.st1{fill:#FFFFFF;}
	.st2{fill:none;stroke:#FFFFFF;stroke-width:9.086;stroke-miterlimit:10;}
	.st3{fill:none;stroke:#FFFFFF;stroke-width:7.204;stroke-miterlimit:10;}
</style>
<g>
	<path class="st0" d="M1093.3,542.7v-203c0-12-9.9-21.9-21.9-21.9h-142v-97.1c0-12-9.9-21.9-21.9-21.9h-0.5h-43.8H739.7h-43.8h-0.5
		c-12,0-21.9,9.9-21.9,21.9v451.7h-55c-6.9,0-12.6,4.4-12.6,9.8v39.9h296.8v-90c0-7.6,6.3-13.9,13.9-13.9h90.1v-61.6
		c0-7.6,6.3-13.9,13.9-13.9h0.3h27.8H1093.3z"/>
</g>
<path class="st1" d="M953.5,783.6h36.5v50.8h-36.5V783.6z M959.7,721.5h23.6v23.6h-23.6V721.5z M959.7,669h23.6v23.6h-23.6V669z
	 M1054.3,734.1h23.6v23.6h-23.6V734.1z M1054.3,681.5h23.6v23.6h-23.6V681.5z M1054.3,629h23.6v23.6h-23.6V629z M1104.3,734.1h23.6
	v23.6h-23.6V734.1z M1104.3,681.5h23.6v23.6h-23.6V681.5z M1104.3,629h23.6v23.6h-23.6V629z"/>
<path class="st2" d="M943.7,780.6 M953.5,783.6h36.5v50.8h-36.5V783.6z M959.7,721.5h23.6v23.6h-23.6V721.5z M959.7,669h23.6v23.6
	h-23.6V669z M1054.3,734.1h23.6v23.6h-23.6V734.1z M1054.3,681.5h23.6v23.6h-23.6V681.5z M1054.3,629h23.6v23.6h-23.6V629z
	 M1104.3,734.1h23.6v23.6h-23.6V734.1z M1104.3,681.5h23.6v23.6h-23.6V681.5z M1104.3,629h23.6v23.6h-23.6V629z"/>
<path class="st1" d="M783.4,470.9h39.1V510h-39.1V470.9z M783.4,383.9h39.1V423h-39.1V383.9z M783.4,296.9h39.1V336h-39.1V296.9z
	 M927.7,468h39.1v39.1h-39.1V468z M927.7,381h39.1v39.1h-39.1V381z M1010.6,468h39.1v39.1h-39.1V468z M1010.6,381h39.1v39.1h-39.1
	V381z"/>
<path class="st3" d="M783.4,470.9h39.1V510h-39.1V470.9z M783.4,383.9h39.1V423h-39.1V383.9z M783.4,296.9h39.1V336h-39.1V296.9z
	 M927.7,468h39.1v39.1h-39.1V468z M927.7,381h39.1v39.1h-39.1V381z M1010.6,468h39.1v39.1h-39.1V468z M1010.6,381h39.1v39.1h-39.1
	V381z"/>
<g>
	<path class="st0" d="M902.7,843.4V632.1c0-7.6,6.3-13.9,13.9-13.9h90.1v-61.6c0-7.6,6.3-13.9,13.9-13.9h0.3h27.8h78.5h27.8h0.3
		c7.6,0,13.9,6.3,13.9,13.9v286.8H902.7z"/>
</g>
</svg>
