<?xml version="1.0" encoding="utf-8"?>
<!-- Generator: Adobe Illustrator 24.0.0, SVG Export Plug-In . SVG Version: 6.00 Build 0)  -->
<svg version="1.0" id="Ebene_1" xmlns="http://www.w3.org/2000/svg" xmlns:xlink="http://www.w3.org/1999/xlink" x="0px" y="0px"
	 viewBox="0 0 1800 1014" style="enable-background:new 0 0 1800 1014;" xml:space="preserve">
<style type="text/css">
	.st0{fill:none;stroke:#FFFFFF;stroke-width:20;stroke-linecap:round;stroke-linejoin:round;stroke-miterlimit:10;}
	.st1{fill:none;stroke:#FFFFFF;stroke-width:20;stroke-linecap:round;stroke-miterlimit:10;}
	.st2{fill:#FFFFFF;}
	.st3{fill:none;stroke:#FFFFFF;stroke-width:20;stroke-miterlimit:10;}
</style>
<g>
	<path class="st0" d="M757.5,322.7c-60.6,50.2-66.2,129-65.6,146.5c0.6,17.5,17.3,25.3,0,52.5c-10.2,16.1-25.2,38-35.8,53.3
		c-6,8.6-2,21.1,7.6,23.9l12.7,3.7c5.2,1.5,8.3,7.4,6.9,13c-1.9,7.6-4.2,17.4-4.5,21.5c-0.6,7.1,16.1,19.5,16.1,19.5
		s-13.7,7.1-7.2,16.9c6.6,9.7,13.1,11,10.7,25.3c-2.4,14.3-15.5,45.4,37.6,48c53.1,2.6,87.9,1.6,77.6,62.2c-3.8,22.4-9,50.9-9,50.9"
		/>
	<path class="st1" d="M1049.9,845.1c0,0-10.9-19.1-10.8-71c0.2-66.2,25.1-110.9,57.3-177c18-37,33.5-96.9,21-154.1"/>
	<path class="st0" d="M907.6,328.8c0.2,3.1,32.4,184.7,32.9,186.3 M1015.9,327.7c-1,5.6-25.4,189.8-26.2,190"/>
	<path class="st0" d="M922.3,323.5c-1.4,2.8-4.1,3.4-6.7,4c-2.5,0.5-5.2,0.9-7.8,1c-1.1,0.1-2.3-1-2.8-2.1c-0.7-1.5-1.6-2.9-1.8-4.6
		c0-0.1,0-0.1,0-0.2c0,0,0.1,0,0.1,0 M1002.4,320.9c-1.4,0.6-2.8,1.3-4.3,1.9c-1,0.4-0.9,1-0.4,2c1.3,2.6,3.5,3.4,5.9,3.6
		c1.5,0.1,2.8-0.4,4-1c1.4-0.7,2.8-1,4.2-1.6c1.2-0.5,2.5,0.1,3.2,0.7c2.2,2.2,4.2,1.6,6.3,0.6c0.3-0.1,0.5-0.3,0.8-0.5 M939,322.2
		c1.9,0.1,3.5,1.1,5.3,1.7c4.3,1.4,8.5,1.7,12.2-0.9c0.3-0.2,0.6-0.3,1-0.5 M918.6,318.8c2.6,4.1,6,6.4,10.5,6.8
		c2.3,0.2,4.5,0.3,6.6-0.2c1.7-0.4,2.2-2,2.9-3.3c0.2-0.4-0.2-0.7-0.3-1c-0.4-1.4-1.1-2.8-0.3-4.1 M958.7,320.2
		c-1.5,0.6-1.6,2.3-0.3,4.3c1.4,2.3,3.5,2.5,5.6,2.9c1.1,0.3,2.2,0,3.2-0.5c2-1.1,4.3-1.8,5.8-3.8c1.2-1.5,1.2-2.5-0.1-4.1
		c-0.2-0.2-0.4-0.5-0.6-0.7 M974,322.2c1.5,2.9,3.9,3.2,6.5,3.5c3.6,0.4,7.1,0.3,10.7,0.2c2.2-0.1,4.2-1,6.1-2.1"/>
	<path class="st2" d="M1024.5,537.1c-0.1-0.8-0.5-1.5-1.2-1.9l-1.1-0.7c-1.5-0.9-1.6-3.3-0.1-4.4l1.5-1c0.6-0.5,1-1.2,1.1-2
		c-29.1,7.2-110,7.5-131.6,7.4c0.3,0.2,0.6,0.3,1,0.3l4.2,0c1.3,0,2.3,1.2,2.3,2.6l-0.1,5.8c0,0.9-0.4,1.7-1.1,2.1l-1.3,1
		C918.6,546.6,987.8,547.3,1024.5,537.1"/>
	<path class="st2" d="M1024.5,549.3c-36.7,10.3-105.9,9.5-126.4,9l-5.5,3.9c-0.7,0.5-1.1,1.3-1.1,2.1l0,0.1c0,1.1,0.6,2.1,1.5,2.4
		l0.9,0.4c0.8,0,2,0,3.5,0c0.2,1,0.1,2-0.8,2.7l-2.3,1.8c3.1,0.6,50.2,9.7,128.1-7.9l-1.4-1.8c-0.3-0.4-0.5-0.9-0.6-1.4l-0.2-2.2
		l0,0c0.1-0.4,0.4-0.7,0.7-1l2.7-2.5c0.5-0.5,0.8-1.2,0.8-1.9l0-3.5C1024.5,549.5,1024.5,549.4,1024.5,549.3"/>
	<path class="st2" d="M1024.6,528.2l0.1-11.2c0-1.5-1.1-2.6-2.4-2.6c-16.1,0.5-107.6,2.7-127.7-0.9c-1.4-0.3-2.7,1.2-2.8,2.8
		l-0.2,17.1c0,1,0.5,1.9,1.3,2.3C914.7,535.8,995.5,535.5,1024.6,528.2C1024.6,528.3,1024.6,528.2,1024.6,528.2"/>
	<path class="st2" d="M1023.8,577.1l-1.3-1.6c-77.9,17.6-125,8.5-128.1,7.9l-1.9,1.5c-0.6,0.5-1,1.3-1,2.1l0,5.1
		c0,1.1,0.7,2.2,1.7,2.5l1.9,0.6c1.1,0,2.9,0,5,0c0,0.2,0.2,0.3,0.2,0.5l0,2.4c0,0.5-0.2,1-0.4,1.4c15.6,1,85.4,4.8,120.6-8.5
		c-0.4-0.4-0.7-0.9-0.8-1.4l-0.6-3.1c0.7-0.2,1.4-0.3,2-0.5l2.1-1.2c0.8-0.4,1.2-1.3,1.2-2.2l0-3.7
		C1024.4,578.2,1024.2,577.6,1023.8,577.1"/>
</g>
<g>
	<path class="st2" d="M1022.2,605.3c-32.2,13.1-115,7.7-127.5,6.8c-0.1,0.8-0.6,1.4-1.2,1.8c-1.5,0.8-1.7,3.1-0.4,4.3l2.7,2.4
		c0.9,0.1,2.1,0.3,3.5,0.4l18.6,16.8c5.2,0.5,48.4,4.3,80.6-0.9l20.3-21.8l0.6-0.7c1.1-0.3,2.1-0.5,3.2-0.7c0.4-0.5,0.7-1.1,0.7-1.8
		l0-4.5C1023.2,606.6,1022.8,605.8,1022.2,605.3"/>
	<path class="st3" d="M1005.3,187.5c-2.1-0.6-18.3-5.1-45.2-5.4c-17.2-0.2-43.2,3.9-45.3,4.5c-72.4,19.8-115.7,90.5-96,168.2
		c15.6,61.5,43.4,73.5,51.5,104.5c3.2,12.2,3.2,21.2,5,29.3c2.9,13.4,13.7,23.2,26.7,24.5c13.6,1.3,33.1,2.9,54.8,3.3
		c21.7,0.1,41.2-1.1,54.8-2.2c12.9-1,24-10.6,27.2-23.9c1.9-8,2.1-17.1,5.6-29.2c8.8-30.9,36.8-42.3,53.6-103.5
		C1119.1,280.4,1077.2,208.7,1005.3,187.5z"/>
</g>
</svg>
