<?xml version="1.0" encoding="utf-8"?>
<!-- Generator: Adobe Illustrator 24.0.0, SVG Export Plug-In . SVG Version: 6.00 Build 0)  -->
<svg version="1.0" id="Ebene_1" xmlns="http://www.w3.org/2000/svg" xmlns:xlink="http://www.w3.org/1999/xlink" x="0px" y="0px"
	 viewBox="0 0 1800 1014" style="enable-background:new 0 0 1800 1014;" xml:space="preserve">
<style type="text/css">
	.st0{fill:none;stroke:#FFFFFF;stroke-width:22;stroke-linecap:round;stroke-linejoin:round;stroke-miterlimit:10;}
	.st1{fill:#FFFFFF;}
	.st2{fill:none;stroke:#FFFFFF;stroke-width:4.498;stroke-linecap:round;stroke-linejoin:round;stroke-miterlimit:10;}
	.st3{fill:none;stroke:#FFFFFF;stroke-width:5.784;stroke-linecap:round;stroke-linejoin:round;stroke-miterlimit:10;}
	.st4{fill:none;stroke:#FFFFFF;stroke-width:8.033;stroke-miterlimit:10;}
</style>
<g>
	<path class="st0" d="M1187.8,800c0,13.3-10.9,24.3-24.3,24.3H605.7c-13.3,0-24.3-10.9-24.3-24.3V242.1c0-13.3,10.9-24.3,24.3-24.3
		h557.9c13.3,0,24.3,10.9,24.3,24.3V800z M581.4,521h116.5l-7.3-40.5c-4-31.1,10-48.8,42.4-48.8c32.4,0,51.6,11.7,45.9,48.8
		l-9.4,40.5l230.8,0l-7.3,39.1c0,32.4,25.5,39.3,41.5,39.3c22,0,44-6.8,44-39.3l-5.2-39.1h114.3 M884.6,824.3V712.7l-32,2.7
		c-22,0-44.5-12.5-44.5-44.9c0-32.4,22.5-49.1,48.8-45.2l27.7,5.2l0-231.5l40,6.5c38.3-3.5,39.4-25.2,38-42
		c-2.3-27.1-20-40-40.3-37.8l-37.7,6.6V217.8"/>
	<path class="st1" d="M1054.8,443.6h-35.4c-2.7-13.6-14.3-74.6-13-98.6c0.8-15.7,10.8-37.9,23.2-51.6l7.5-8.4l7.5,8.4
		c12.5,13.9,22.2,38.4,23.2,51.7C1069.8,373.5,1057.6,430.6,1054.8,443.6 M1016.6,450.4h40.9c1.6,0,3-1.1,3.3-2.6
		c0.7-2.8,16.1-70.1,13.7-103.2c-1.1-14.7-11.3-40.7-24.9-55.8l-10.1-11.2c-1.3-1.4-3.8-1.4-5.1,0l-10.1,11.2
		c-13.3,14.8-24,38.8-24.9,55.9c-1.4,27.8,13.1,99.9,13.7,103C1013.6,449.3,1015,450.4,1016.6,450.4"/>
	<path class="st1" d="M1037.1,324.3c9,0,17.8-1.6,26.1-4.7c1.8-0.7,2.7-2.6,2-4.4c-0.7-1.8-2.6-2.7-4.4-2
		c-15.3,5.7-32.6,5.6-47.9-0.1c-1.8-0.7-3.7,0.2-4.4,2c-0.7,1.8,0.2,3.7,2,4.4C1019,322.7,1027.9,324.3,1037.1,324.3"/>
	<path class="st1" d="M1088.2,450.4c0.6,0,1.2-0.2,1.7-0.5c1-0.6,1.7-1.7,1.7-2.9v-25.9c0-6.3-3.4-12.2-9-15.2l-13.8-7.6
		c-1.7-0.9-3.7-0.3-4.6,1.3c-0.9,1.6-0.3,3.7,1.3,4.6l13.8,7.6c3.4,1.9,5.5,5.4,5.5,9.3v20l-21.8-12.4c-1.6-0.9-3.7-0.4-4.6,1.3
		c-0.9,1.6-0.4,3.7,1.3,4.6l26.9,15.2C1087,450.3,1087.6,450.4,1088.2,450.4"/>
	<path class="st1" d="M985.9,450.4c0.6,0,1.2-0.2,1.7-0.5l26.6-15.5c1.6-0.9,2.2-3,1.2-4.7c-0.9-1.6-3-2.2-4.7-1.2l-21.5,12.5v-19.9
		c0-3.9,2.1-7.4,5.5-9.3l14.7-8.5c1.6-0.9,2.2-3,1.2-4.7c-0.9-1.6-3-2.2-4.7-1.2l-14.7,8.5c-5.5,3-8.9,8.9-8.9,15.2V447
		c0,1.2,0.7,2.3,1.7,3C984.7,450.3,985.3,450.4,985.9,450.4"/>
	<path class="st1" d="M1037.1,348.1c7.5,0,13.6,6.1,13.6,13.6c0,7.5-6.1,13.6-13.6,13.6s-13.6-6.1-13.6-13.6
		C1023.4,354.2,1029.5,348.1,1037.1,348.1 M1037.1,382.2c11.3,0,20.5-9.2,20.5-20.5s-9.2-20.5-20.5-20.5s-20.5,9.2-20.5,20.5
		S1025.8,382.2,1037.1,382.2"/>
	<path class="st2" d="M707.1,640.3c0.1,1.1,11.5,65.6,11.7,66.2 M745.5,639.9c-0.4,2-9,67.4-9.3,67.5"/>
	<path class="st3" d="M712.3,638.4c-0.5,1-1.4,1.2-2.4,1.4c-0.9,0.2-1.8,0.3-2.8,0.4c-0.4,0-0.8-0.4-1-0.7c-0.2-0.5-0.6-1-0.6-1.6
		c0,0,0,0,0-0.1c0,0,0,0,0,0 M740.8,637.5c-0.5,0.2-1,0.5-1.5,0.7c-0.4,0.1-0.3,0.4-0.2,0.7c0.5,0.9,1.2,1.2,2.1,1.3
		c0.5,0,1-0.1,1.4-0.4c0.5-0.2,1-0.4,1.5-0.6c0.4-0.2,0.9,0,1.1,0.2c0.8,0.8,1.5,0.6,2.2,0.2c0.1,0,0.2-0.1,0.3-0.2 M718.2,638
		c0.7,0,1.3,0.4,1.9,0.6c1.5,0.5,3,0.6,4.3-0.3c0.1-0.1,0.2-0.1,0.3-0.2 M711,636.8c0.9,1.4,2.1,2.3,3.7,2.4
		c0.8,0.1,1.6,0.1,2.4-0.1c0.6-0.1,0.8-0.7,1-1.2c0.1-0.1-0.1-0.2-0.1-0.4c-0.1-0.5-0.4-1-0.1-1.5 M725.2,637.3
		c-0.5,0.2-0.6,0.8-0.1,1.5c0.5,0.8,1.3,0.9,2,1c0.4,0.1,0.8,0,1.1-0.2c0.7-0.4,1.5-0.6,2.1-1.3c0.4-0.5,0.4-0.9,0-1.4
		c-0.1-0.1-0.1-0.2-0.2-0.2 M730.7,638c0.5,1,1.4,1.1,2.3,1.2c1.3,0.1,2.5,0.1,3.8,0.1c0.8,0,1.5-0.4,2.2-0.7"/>
	<path class="st1" d="M748.6,714.3c0-0.3-0.2-0.5-0.4-0.7l-0.4-0.2c-0.5-0.3-0.6-1.2,0-1.6l0.5-0.4c0.2-0.2,0.4-0.4,0.4-0.7
		c-10.3,2.6-39.1,2.7-46.7,2.6c0.1,0.1,0.2,0.1,0.4,0.1l1.5,0c0.5,0,0.8,0.4,0.8,0.9l0,2c0,0.3-0.1,0.6-0.4,0.8l-0.5,0.3
		C711,717.7,735.6,718,748.6,714.3"/>
	<path class="st1" d="M748.6,718.7c-13,3.7-37.6,3.4-44.9,3.2l-1.9,1.4c-0.2,0.2-0.4,0.5-0.4,0.8l0,0c0,0.4,0.2,0.7,0.5,0.9l0.3,0.1
		c0.3,0,0.7,0,1.2,0c0.1,0.3,0,0.7-0.3,1l-0.8,0.6c1.1,0.2,17.8,3.5,45.5-2.8l-0.5-0.6c-0.1-0.1-0.2-0.3-0.2-0.5l-0.1-0.8l0,0
		c0.1-0.1,0.1-0.3,0.2-0.4l1-0.9c0.2-0.2,0.3-0.4,0.3-0.7l0-1.3C748.6,718.7,748.6,718.7,748.6,718.7"/>
	<path class="st1" d="M748.7,711.2l0-4c0-0.5-0.4-0.9-0.9-0.9c-5.7,0.2-38.2,0.9-45.4-0.3c-0.5-0.1-1,0.4-1,1l-0.1,6.1
		c0,0.4,0.2,0.7,0.5,0.8C709.6,713.9,738.3,713.8,748.7,711.2C748.7,711.2,748.7,711.2,748.7,711.2"/>
	<path class="st1" d="M748.4,728.5l-0.5-0.6c-27.7,6.2-44.4,3-45.5,2.8l-0.7,0.5c-0.2,0.2-0.4,0.4-0.4,0.7l0,1.8
		c0,0.4,0.2,0.8,0.6,0.9l0.7,0.2c0.4,0,1,0,1.8,0c0,0.1,0.1,0.1,0.1,0.2l0,0.8c0,0.2-0.1,0.4-0.2,0.5c5.6,0.4,30.3,1.7,42.8-3
		c-0.1-0.1-0.2-0.3-0.3-0.5l-0.2-1.1c0.2-0.1,0.5-0.1,0.7-0.2l0.7-0.4c0.3-0.2,0.4-0.5,0.4-0.8l0-1.3
		C748.6,728.9,748.5,728.7,748.4,728.5"/>
	<path class="st1" d="M747.8,738.6c-11.4,4.7-40.8,2.7-45.3,2.4c-0.1,0.3-0.2,0.5-0.4,0.6c-0.5,0.3-0.6,1.1-0.2,1.5l0.9,0.9
		c0.3,0,0.7,0.1,1.2,0.2l6.6,6c1.9,0.2,17.2,1.5,28.6-0.3l7.2-7.7l0.2-0.2c0.4-0.1,0.7-0.2,1.1-0.3c0.1-0.2,0.2-0.4,0.2-0.6l0-1.6
		C748.1,739,748,738.7,747.8,738.6"/>
	<path class="st4" d="M741.8,590.1c-0.7-0.2-6.5-1.8-16.1-1.9c-6.1-0.1-15.4,1.4-16.1,1.6c-25.7,7-41.1,32.2-34.1,59.7
		c5.5,21.8,15.4,26.1,18.3,37.1c1.1,4.3,1.1,7.5,1.8,10.4c1,4.8,4.9,8.3,9.5,8.7c4.8,0.5,11.8,1,19.5,1.2c7.7,0,14.6-0.4,19.5-0.8
		c4.6-0.4,8.5-3.8,9.7-8.5c0.7-2.9,0.8-6.1,2-10.4c3.1-11,13.1-15,19.1-36.8C782.2,623.1,767.3,597.7,741.8,590.1z"/>
	<path class="st1" d="M731.8,334.9c-10.1,0-18.3-8.2-18.3-18.3c0-10.1,8.2-18.3,18.3-18.3s18.3,8.2,18.3,18.3
		C750.1,326.7,741.9,334.9,731.8,334.9 M731.8,278.8c-21.6,0-39.2,17.5-39.2,39.2c0,16,34.6,75,34.6,75c2.5,3.9,6.6,3.9,9.1,0
		c0,0,34.6-59,34.6-75C770.9,296.4,753.4,278.8,731.8,278.8"/>
	<path class="st1" d="M1097.7,705.3c-0.3,4.3-0.8,8.6-1.8,11.8c-2.2,8.3-5.5,15.1-10,21.2c-0.6,0.9-1.1,0.9-2.1,0.6
		c-2.7-1-5.6-1.9-8.4-2.7c-1-0.3-1.3-0.6-0.9-1.6c3.9-9.3,5.3-19.1,5.6-29c0-1.4,0.4-1.7,1.8-1.7c4.8,0.1,9.6,0,14.3-0.1
		C1097.7,703.8,1097.8,704.3,1097.7,705.3 M1097.7,699c-0.2,0.5-0.8,0.2-1.1,0.2c-4.6,0.1-9.1,0.1-13.7,0.1c-2.6,0-2.6,0-2.7-2.6
		c-0.5-9.4-2.1-18.5-5.7-27.2c-0.4-0.9-0.3-1.2,0.7-1.5c3-0.9,5.9-1.8,8.8-2.8c0.7-0.2,1.2-0.3,1.8,0.5c7.1,9.7,11.1,20.6,12,32.6
		C1097.7,698.4,1097.7,698.6,1097.7,699 M1081.9,660.9c-3.2,1.2-6.3,2.1-9.4,3c-0.9,0.3-0.9-0.6-1.2-1c-3.5-6.3-7.9-11.8-13.5-16.3
		c-1-0.8-2.1-1.6-3.1-2.5c0.5-0.7,0.9-0.1,1.4,0C1066.2,647.4,1074.6,653.1,1081.9,660.9 M1052.7,648.4c5.7,4.2,10.3,9.4,13.9,15.5
		c0.6,0.9,0.7,1.4-0.7,1.6c-5,1.1-10.1,1.9-15.1,2.4c-0.6,0.1-1.3,0.3-1.4-0.8c-1.2-8.2-2.8-16.3-6.5-24.2
		C1046.7,644.4,1049.8,646.3,1052.7,648.4 M1039.8,647.6c2.6,6.4,3.9,13.2,4.9,20c0.1,0.6,0.1,1-0.7,1c-4.9,0.2-9.8,0.2-14.7,0.1
		c-1,0-0.8-0.6-0.7-1.2c0.6-5.2,1.7-10.3,3.2-15.3c0.8-2.9,1.9-5.8,3.3-8.4c0.4-0.7,0.8-1.3,1.3-2.1
		C1038.1,643.5,1039,645.5,1039.8,647.6 M1023.2,674.4c-0.8,7.2-1,14.4-1.1,21.7c-0.1,3.6-0.1,3.6-3.7,3.6c-6,0-12,0-18,0.1
		c-1.3,0-1.8-0.2-1.8-1.7c0.4-6.6,1-13.2,2.9-19.9c0.5-2.2,1.4-4.6,2.2-7c0.3-0.9,0.7-1.3,1.7-1.1c5.4,1.1,10.8,2.1,16.3,2.5
		C1023.3,672.7,1023.3,673.4,1023.2,674.4 M1026.9,652.2c-1.3,4.9-2.2,9.9-2.9,14.9c-0.1,0.9-0.4,1.1-1.2,1c-5-0.5-10.1-1.3-15-2.3
		c-1-0.2-1.2-0.6-0.7-1.5c5.2-9.1,12.3-16.3,21.9-20.8c0.2-0.1,0.5-0.2,1.1-0.5C1028.8,646.3,1027.7,649.2,1026.9,652.2
		 M1020.2,643.4c-5.8,4.2-10.8,9.2-14.7,15.2c-1,1.5-2,3-2.8,4.7c-0.6,1.1-1.2,1.4-2.4,1c-2.6-0.9-5.3-1.7-8-2.4
		c-1.4-0.4-1.2-0.8-0.4-1.6c5.6-6,12.2-10.6,19.7-14C1014.5,645,1017.3,644,1020.2,643.4 M989.3,665.5c3.1,1.2,6.3,2.2,9.5,2.9
		c1,0.2,1.2,0.6,0.8,1.5c-1.5,3.7-2.5,7.5-3.4,11.3c-1.3,5.6-1.8,11.2-2,16.9c0,1.2-0.3,1.6-1.6,1.6c-5.3-0.1-10.5,0-15.8,0.1
		c-1.2,0-1.4-0.3-1.3-1.4c0.3-4.2,0.9-8.3,1.9-11.8c2-7.7,5.2-14.3,9.5-20.4C987.6,665.3,988.2,665.1,989.3,665.5 M976.4,704.5
		c5.5,0,11,0,16.6-0.1c0.9,0,1.1,0.2,1.2,1.1c0.3,10.1,2,19.9,5.8,29.3c0.1,0.2,0.2,0.5,0.3,0.8c-0.4,0.1-0.6,0.3-0.9,0.3
		c-3.5,0.9-7,2-10.4,3.3c-0.7,0.3-1.1,0.1-1.6-0.5c-7.3-9.9-11.2-21-12-33.2C975.3,704.6,975.6,704.5,976.4,704.5 M991.2,743.3
		c3.4-1.2,6.8-2.2,10.2-3.2c0.7-0.2,1-0.1,1.4,0.6c4.4,8.3,10.4,15,18.2,20.3c0.2,0.1,0.4,0.2,0.3,0.6
		C1009.5,758.4,999.5,752.4,991.2,743.3 M1030.5,761.2c-7-3.3-13-7.7-17.8-13.6c-2-2.4-3.8-5.1-5.4-7.8c-0.5-0.8-0.4-1.1,0.6-1.3
		c5-1,10.1-1.8,15.1-2.3c0.9-0.1,1.2,0.1,1.3,1c1.2,8.1,2.8,16.1,6.2,23.6C1030.6,760.9,1030.6,761,1030.5,761.2 M1036.3,761.5
		c-2.7-4.4-4.1-9.3-5.3-14.3c-0.8-3.4-1.4-6.8-1.9-10.2c-0.2-1,0.2-1.3,1.1-1.3c4.6-0.2,9.2-0.1,13.9,0c1,0,1.3,0.3,1.1,1.4
		c-0.7,4.4-1.4,8.7-2.6,13.2c-0.9,3.7-2.3,7.5-4.3,11.1C1037.3,762.9,1037.2,762.9,1036.3,761.5 M1051.4,672.5
		c5.7-0.5,11.3-1.5,16.9-2.8c0.9-0.2,1.3,0,1.6,0.8c3.7,8.9,5.3,18.2,5.7,27.7c0,0.7-0.1,1.1-0.9,1.1c-7.4,0-14.8,0.1-22.2,0.1
		c-0.2,0-0.3,0-0.7,0c-0.6-0.2-0.2-0.9-0.2-1.3c-0.1-5.2-0.3-10.3-0.6-15.5c-0.2-2.9-0.4-5.7-0.7-8.6
		C1050.1,673,1050.2,672.6,1051.4,672.5 M1027.9,674.1c0.1-0.8,0.2-1,1.1-1c5.1,0.3,10.2,0.3,15.3-0.1c0.8-0.1,1.2,0.1,1.3,1
		c0.8,8.1,1.2,16.2,1.4,24.4c0,0.2,0,0.3,0,0.5c-0.2,0.9-1,0.5-1.5,0.5c-5.3,0.1-10.6,0.1-16,0.1c-2.8,0-2.8,0-2.8-2.8
		C1026.8,689.2,1027.1,681.7,1027.9,674.1 M1026.8,705.3c0-0.9,0.3-1.1,1.1-1.1c6.1,0,12.1-0.1,18.2-0.1c0.6,0,1,0,1,0.9
		c0,8.4-0.3,16.8-1.1,25.2c0,0.1,0,0.2-0.1,0.4c0,0.7-0.5,0.8-1.1,0.8c-5.2-0.4-10.3-0.3-15.5-0.1c-0.9,0-1-0.3-1.1-1
		C1027.3,721.9,1026.9,713.6,1026.8,705.3 M1022.4,731.7c-5.6,0.5-11.1,1.4-16.5,2.7c-1.1,0.3-1.4-0.2-1.7-1
		c-3.6-9-5.1-18.3-5.5-27.9c0-0.6,0-1.1,0.9-1.1c7.3,0,14.6-0.1,21.8-0.1c0.1,0,0.2,0,0.4,0c0.7,0.3,0.4,0.9,0.4,1.4
		c0.1,5.2,0.3,10.3,0.6,15.4c0.2,3.1,0.5,6.1,0.8,9.2C1023.7,731.2,1023.6,731.6,1022.4,731.7 M1050.6,729.7c0.8-8,1.1-16,1-24.1
		c0-1.2,0.2-1.6,1.6-1.6c7.1,0,14.1,0,21.2-0.1c1.1,0,1.3,0.2,1.3,1.3c-0.2,6.9-1,13.7-3.1,21.7c-0.5,1.4-1.5,4.1-2.4,6.9
		c-0.3,1-1,0.8-1.7,0.7c-3.2-0.7-6.5-1.4-9.8-1.8c-2.1-0.3-4.2-0.6-6.3-0.8C1050.6,731.7,1050.4,731.7,1050.6,729.7 M1050.9,736.3
		c5.2,0.6,10.5,1.4,15.6,2.5c1,0.2,1.1,0.6,0.6,1.3c-5.5,9.5-13,16.8-23.1,21.2c-0.1,0-0.2,0-0.5,0c3.5-7.7,5.1-15.7,6.1-23.9
		C1049.8,736.6,1050,736.2,1050.9,736.3 M1054.8,760.4c0.4-0.3,0.8-0.6,1.1-0.9c6.5-4.9,11.7-10.9,15.5-18c0.5-0.9,0.9-1.3,2.1-0.9
		c2.7,1,5.6,1.4,8.4,2.7C1074.4,751.5,1065.4,757.3,1054.8,760.4 M1100.3,719.1c9.5-36.5-12.9-71.6-46.7-80.5
		c-36.7-9.7-72.2,13-80.9,47.4c-8.7,34.6,11.5,70.3,46.8,80C1054.7,775.3,1091.1,754.3,1100.3,719.1"/>
</g>
</svg>
