<?xml version="1.0" encoding="utf-8"?>
<!-- Generator: Adobe Illustrator 24.0.0, SVG Export Plug-In . SVG Version: 6.00 Build 0)  -->
<svg version="1.0" id="Ebene_1" xmlns="http://www.w3.org/2000/svg" xmlns:xlink="http://www.w3.org/1999/xlink" x="0px" y="0px"
	 viewBox="0 0 1800 1014" style="enable-background:new 0 0 1800 1014;" xml:space="preserve">
<style type="text/css">
	.st0{fill:#FFFFFF;}
</style>
<g>
	<path class="st0" d="M1193,455.9c4.1,21.7,7.3,43.5,6.8,60.7c0,43.9-7.3,81.5-21.2,117.9c-1.9,5-4,6-9.4,5.5
		c-14.9-1.5-29.9-2.1-44.9-2.4c-5.2-0.1-7.2-1.1-6.4-6.8c7.1-50.9,0.8-100.9-10.9-150.5c-1.6-7-0.2-9,6.6-10.7
		c23.7-6,47.2-12.4,70.6-19.4C1190.6,448.3,1192,450.6,1193,455.9 M1184.5,424.8c-0.1,2.6-3.5,2-5.3,2.5
		c-22.4,6.3-45,12.4-67.5,18.5c-12.9,3.5-12.9,3.4-17-9.2c-14.8-45.5-34.9-88.4-64.2-126.6c-3.1-4.1-2.9-5.8,1.5-8.5
		c13.5-8.2,26.7-16.9,39.8-25.6c3.4-2.2,5.8-3,9.3-0.1c47.9,38.5,81.9,86.8,102,144.8C1183.6,421.7,1183.9,422.7,1184.5,424.8
		 M1056.2,257.9c-14,10.3-28.2,18.7-42.4,27.2c-4,2.4-5.3-1.5-7.1-3.4c-25.6-26.2-54.6-47.5-88.1-62.6c-6.2-2.8-12.5-5.3-18.8-7.9
		c1.4-4.1,4.4-1.9,6.8-1.7C960.8,211.9,1009.8,229.3,1056.2,257.9 M895.7,234.8c33.7,13.1,63.2,32.8,88.9,58.2c4,3.9,5,5.9-1.1,8.9
		c-23.3,11.8-47.1,22.5-71.4,32c-3.1,1.2-5.8,3.1-8.1-2.3c-16.6-38.8-35.4-76.4-64-111C860.9,222.8,878.6,228.1,895.7,234.8
		 M831.2,247.7c21.2,28.2,36.6,59.7,50.7,91.8c1.3,2.9,1.7,4.8-2.1,6c-23.8,7.6-47.8,14-72.2,19.7c-4.8,1.1-4.7-2-5.1-5
		c-3.8-26.5-5.2-53.1-4.7-79.8c0.3-15.6,1.5-31,5.3-46.1c1-3.8,2.4-7.5,3.8-11.9C817.1,229.8,824.3,238.6,831.2,247.7 M784.9,401.8
		c5.8,36.5,14.3,72.4,23.3,108.3c4.4,17.8,4.4,17.7-13.3,22.6c-29.6,8.1-59.2,16.1-88.7,24.5c-6.5,1.9-9.4,1.2-10.9-6
		c-6.8-33.1-12.5-66.3-11.8-102c-0.6-11.5,0.7-24.5,1.7-37.6c0.4-4.7,1.6-7.2,7.2-7.5c28-1.6,56-4,83.5-9.3
		C782.9,393.4,784.1,396.6,784.9,401.8 M773.6,287.6c-0.2,26,2.5,51.7,5.5,77.4c0.5,4.4-0.7,6-4.5,6.6c-25.6,4-51.2,7.1-77.1,8.7
		c-5.4,0.3-6.7-1.3-5.4-6.4c13.7-52,39.4-96.5,80.6-131.5c1-0.9,2-1.7,4.7-3.8C775.4,256.1,773.7,271.7,773.6,287.6 M728.9,252.9
		c-23.1,28.5-41,59.7-52.5,94.5c-2.9,8.7-5.6,17.6-7.4,26.6c-1.3,6.4-4.1,8.3-10.3,7.9c-14.1-0.9-28.3-1.5-42.5-1.5
		c-7.2,0-6.8-2.5-4.1-7.5c19.8-37,46.2-68.5,78.9-94.9C702.8,268.4,715.2,259.8,728.9,252.9 M605.9,402.9
		c16.8,1.8,33.7,2.4,50.6,1.8c5.3-0.2,6.5,1.5,5.9,6.5c-2.5,20.1-2.5,40.2-1.8,60.4c1,29.2,5.7,57.8,12.5,86.1
		c1.5,6.2,0.5,8.4-5.9,10c-26,6.7-51.9,13.8-77.6,21.3c-6,1.7-7.3,0.1-8.3-5.3c-4.1-20.9-6.5-41.9-6.1-60.9
		c-0.5-40.6,6.9-77.3,20.1-113.1C597.3,404.1,599.9,402.3,605.9,402.9 M593.9,612c27.2-7.2,54.4-14.7,81.5-22.4
		c4.3-1.2,5.8-0.6,7.2,4c15,49.2,35.9,95.5,67.2,136.8c0.8,1,1.5,2.1,2.6,3.6c-1.6,1.1-2.8,2.1-4.1,2.8
		c-16.1,9.2-31.7,19.1-46.8,29.8c-3.3,2.3-5.4,2-8.4-0.4c-48.9-39.2-83-88.6-103-147.9C588.8,614.2,589.9,613.1,593.9,612 M718,784
		c15.2-10.6,30.5-20,45.9-29.1c3.1-1.8,5-1.8,7.6,1c32.5,34.9,71.3,60.2,116.4,75.9c0.9,0.3,2.2,0.2,2.3,2.3
		C827.9,834.3,770.8,817.6,718,784 M935.5,820.3c-38.8-6.8-74.1-20.7-105.8-43.3c-13.1-9.4-25.2-20-36.7-31.3
		c-3.6-3.5-3.3-4.9,1.3-7.2c23.3-11.7,47.2-22.2,71.5-31.6c4.3-1.7,6-0.8,7.8,3.3c16.5,38.3,35,75.5,61.6,108.1
		C935.6,818.6,935.5,819.3,935.5,820.3 M964.5,814.1c-19.2-18.3-32.7-40.6-45.2-63.6c-8.5-15.5-15.8-31.6-23.1-47.7
		c-2.2-4.9-0.9-6.5,3.6-7.8c22.6-6.9,45.4-12.9,68.4-18.1c5-1.1,6.7,0,7.3,5.7c2.4,22.5,4.8,44.9,4.6,68.7
		c0.3,19.6-1.3,40.2-6.8,60.3C971.2,819.7,970.5,819.9,964.5,814.1 M921.3,355.4c27.3-10.2,53.7-22.3,79.4-36.1
		c4.2-2.2,6.2-1.9,9.1,1.9c30,38.9,50,82.6,64.8,129.1c1.1,3.5,0.8,5.7-3.1,6.7c-36.4,9.9-72.8,19.8-109.2,29.7
		c-0.8,0.2-1.6,0.3-3.3,0.7c-3.2-0.1-2.3-4-2.9-6c-7.2-25.3-15-50.4-23.5-75.4c-4.7-13.9-9.6-27.7-15-41.3
		C915.5,359.7,915.6,357.5,921.3,355.4 M807.4,394.5c-0.7-4.2-0.3-5.4,4.1-6.4c25.5-5.4,50.7-12,75.4-20.5c4-1.4,6.2-1.1,7.9,3.4
		c14.8,38.9,27.4,78.4,39,118.3c0.2,0.8,0.3,1.6,0.5,2.5c0,4.6-4.2,3.7-6.5,4.3c-26.1,7.4-52.3,14.5-78.5,21.6
		c-13.7,3.7-13.8,3.7-17.4-10.2C822.3,470.2,813.7,432.6,807.4,394.5 M843.1,549.6c-1.3-4.3,0-6,3.8-7c29.8-8.1,59.7-16.3,89.5-24.4
		c2.7-0.7,5.1-1.1,6.1,2.9c10.9,41.5,20.5,83.3,27.7,125.6c0.1,0.5,0.1,1.1,0.1,1.8c0.8,3.5-1.4,4.6-4.4,5.2
		c-25.9,4.9-51.2,12.1-76.3,20.2c-4.5,1.5-5.5-0.1-6.9-3.7C867.5,630.6,854.9,590.2,843.1,549.6 M856.6,685.5
		c-26.8,9.9-52.9,21.3-78,34.9c-5,2.7-6.9,0.9-9.7-2.8c-29.7-39.4-49.2-83.7-63.8-130.4c-0.9-2.8-1.7-5.3,2.8-6.5
		c35.9-9.6,71.7-19.5,107.5-29.4c0.5-0.1,1-0.4,1.8-0.7c3.7,0.4,3,4.2,3.6,6.2c7.1,25.3,14.9,50.5,23.4,75.3
		c5.1,14.9,10.5,29.7,16.1,44.4C862,681.3,862.1,683.4,856.6,685.5 M992.7,638.4C986,598,976.8,558,966,518.4
		c-1.6-5.9-1-8.4,5.5-10.1c34.9-9.1,69.7-18.7,104.4-28.5c5.2-1.5,6.6-0.8,8,4.7c8.3,34.3,13,68.9,13.5,111.2
		c-0.6,7.7-1.8,22.4-2.6,37.1c-0.3,5.3-3.7,5.3-7.3,5.5c-16.9,0.8-33.7,1.7-50.5,3.9c-10.8,1.4-21.6,2.8-32.3,4.3
		C995.7,647.9,994.3,648.5,992.7,638.4 M1003,670.3c26.6-3.9,53.4-6.9,80.3-8.5c5-0.3,6.1,1.3,4.9,5.8
		c-14.4,54.2-42.1,99.9-86.1,135.2c-0.4,0.3-1,0.4-2.3,0.8c7.3-42.5,4.2-84.2-1.3-125.8C998,673.6,998.2,671,1003,670.3 M1053.9,784
		c1.5-2,2.9-4,4.5-6c25.6-32.5,43.1-69,52.7-109.3c1.2-5.2,2.9-7.9,9-7.4c14.6,1.1,29.4-0.4,45.2,2.3
		C1138.8,714.4,1102.4,754.5,1053.9,784 M1223.8,520.2c-1.1-192.5-158.3-336-336.6-335.2c-193.9,0.8-338.8,159.3-336.2,340.4
		c2.6,181.9,149.6,331.2,336.6,332.4C1073.1,857.6,1224.9,706,1223.8,520.2"/>
</g>
</svg>
