<?xml version="1.0" encoding="utf-8"?>
<!-- Generator: Adobe Illustrator 24.0.0, SVG Export Plug-In . SVG Version: 6.00 Build 0)  -->
<svg version="1.0" id="Ebene_1" xmlns="http://www.w3.org/2000/svg" xmlns:xlink="http://www.w3.org/1999/xlink" x="0px" y="0px"
	 viewBox="0 0 1800 1014" style="enable-background:new 0 0 1800 1014;" xml:space="preserve">
<style type="text/css">
	.st0{fill:#FFFFFF;}
	.st1{fill:none;}
</style>
<g>
	<path class="st0" d="M1186.6,344.7l-59.1,24.6l-103.1-45.9c-6.1-2.7-13.2,0-15.9,6.1c-2.7,6.1,0,13.2,6.1,15.9l82.3,36.7
		l-209.3,87.2l-299-124.6l299-124.6L1186.6,344.7z M720.7,425.8L883,493.4c1.5,0.6,3.1,0.9,4.6,0.9c1.6,0,3.2-0.3,4.6-0.9
		l162.5-67.7l1.9,108.6c-9.8,10-53.4,46-169,46c-50.6,0-87.3-5.4-113.4-12.1c-1.3-0.6-2.6-0.9-4-1.1c-28.7-7.9-43.6-17.1-49.5-21.5
		L720.7,425.8z M739.6,622.4c0-16.2,13.2-29.3,29.3-29.3c1.3,0,2.5-0.2,3.7-0.5c27.9,6.8,65.4,11.8,115,11.8c44,0,78.6-5,105.5-12.1
		c1.4,0.5,2.8,0.8,4.4,0.8h17c-2.7,7.6-4.6,17.3-4.6,29.3c0,12,2,21.7,4.6,29.3H811.2h-42.3C752.7,651.8,739.6,638.6,739.6,622.4
		 M811.2,762.5L811.2,762.5h175c-2.7,7.6-4.6,17.3-4.6,29.3s2,21.7,4.6,29.3H754.8c-16.2,0-29.3-13.1-29.3-29.3
		c0-16.2,13.2-29.3,29.3-29.3H811.2z M811.2,736.4c-16.2,0-29.3-13.1-29.3-29.3c0-16.2,13.2-29.3,29.3-29.3h239.9h0h33.9
		c-2.7,7.6-4.6,17.3-4.6,29.3c0,12,2,21.7,4.6,29.3h-62.1H811.2z M1230,344.7c0-4.9-2.9-9.2-7.4-11.1L892.2,195.9
		c-3-1.2-6.3-1.2-9.3,0L552.6,333.5c-4.5,1.9-7.4,6.3-7.4,11.1c0,4.9,2.9,9.2,7.4,11.1l144,60l0,135.4c0,3,1.1,5.9,3.1,8.1
		c0.8,0.9,9.9,10.5,33.8,20.7c-12.2,10.2-20,25.4-20,42.5c0,29,22.4,52.9,50.9,55.2c-5.4,8.5-8.6,18.7-8.6,29.5
		c0,10.8,3.1,20.8,8.4,29.3h-9.5c-30.5,0-55.4,24.8-55.4,55.4c0,30.5,24.8,55.4,55.4,55.4h268.1c7.2,0,13-5.8,13-13
		c0-7.2-5.8-13-13-13h-8c-2.9-4.5-7.2-13.8-7.2-29.3c0-15.5,4.3-24.8,7.2-29.3h106.7c7.2,0,13-5.8,13-13c0-7.2-5.8-13-13-13h-8
		c-2.9-4.5-7.2-13.8-7.2-29.3c0-15.5,4.3-24.8,7.2-29.3h8c7.2,0,13-5.8,13-13c0-7.2-5.8-13-13-13h-70.6h-8
		c-2.9-4.5-7.2-13.8-7.2-29.3c0-15.5,4.3-24.8,7.2-29.3h8c7.2,0,13-5.8,13-13c0-6.4-4.6-11.7-10.7-12.8
		c17.5-11.1,24.5-20.6,25.2-21.6c1.5-2.1,2.2-4.6,2.2-7.1l-2.2-122.8l44.7-18.6v85.2c0,6.7,5.4,12,12,12s12-5.4,12-12v-95.2
		l75.2-31.3C1227.1,353.9,1230,349.5,1230,344.7"/>
	<path class="st1" d="M1186.6,344.7l-59.1,24.6l-103.1-45.9c-6.1-2.7-13.2,0-15.9,6.1c-2.7,6.1,0,13.2,6.1,15.9l82.3,36.7
		l-209.3,87.2l-299-124.6l299-124.6L1186.6,344.7z M720.7,425.8L883,493.4c1.5,0.6,3.1,0.9,4.6,0.9c1.6,0,3.2-0.3,4.6-0.9
		l162.5-67.7l1.9,108.6c-9.8,10-53.4,46-169,46c-50.6,0-87.3-5.4-113.4-12.1c-1.3-0.6-2.6-0.9-4-1.1c-28.7-7.9-43.6-17.1-49.5-21.5
		L720.7,425.8z M739.6,622.4c0-16.2,13.2-29.3,29.3-29.3c1.3,0,2.5-0.2,3.7-0.5c27.9,6.8,65.4,11.8,115,11.8c44,0,78.6-5,105.5-12.1
		c1.4,0.5,2.8,0.8,4.4,0.8h17c-2.7,7.6-4.6,17.3-4.6,29.3c0,12,2,21.7,4.6,29.3H811.2h-42.3C752.7,651.8,739.6,638.6,739.6,622.4z
		 M811.2,762.5L811.2,762.5h175c-2.7,7.6-4.6,17.3-4.6,29.3s2,21.7,4.6,29.3H754.8c-16.2,0-29.3-13.1-29.3-29.3
		c0-16.2,13.2-29.3,29.3-29.3H811.2z M811.2,736.4c-16.2,0-29.3-13.1-29.3-29.3c0-16.2,13.2-29.3,29.3-29.3h239.9h0h33.9
		c-2.7,7.6-4.6,17.3-4.6,29.3c0,12,2,21.7,4.6,29.3h-62.1H811.2z M1230,344.7c0-4.9-2.9-9.2-7.4-11.1L892.2,195.9
		c-3-1.2-6.3-1.2-9.3,0L552.6,333.5c-4.5,1.9-7.4,6.3-7.4,11.1c0,4.9,2.9,9.2,7.4,11.1l144,60l0,135.4c0,3,1.1,5.9,3.1,8.1
		c0.8,0.9,9.9,10.5,33.8,20.7c-12.2,10.2-20,25.4-20,42.5c0,29,22.4,52.9,50.9,55.2c-5.4,8.5-8.6,18.7-8.6,29.5
		c0,10.8,3.1,20.8,8.4,29.3h-9.5c-30.5,0-55.4,24.8-55.4,55.4c0,30.5,24.8,55.4,55.4,55.4h268.1c7.2,0,13-5.8,13-13
		c0-7.2-5.8-13-13-13h-8c-2.9-4.5-7.2-13.8-7.2-29.3c0-15.5,4.3-24.8,7.2-29.3h106.7c7.2,0,13-5.8,13-13c0-7.2-5.8-13-13-13h-8
		c-2.9-4.5-7.2-13.8-7.2-29.3c0-15.5,4.3-24.8,7.2-29.3h8c7.2,0,13-5.8,13-13c0-7.2-5.8-13-13-13h-70.6h-8
		c-2.9-4.5-7.2-13.8-7.2-29.3c0-15.5,4.3-24.8,7.2-29.3h8c7.2,0,13-5.8,13-13c0-6.4-4.6-11.7-10.7-12.8
		c17.5-11.1,24.5-20.6,25.2-21.6c1.5-2.1,2.2-4.6,2.2-7.1l-2.2-122.8l44.7-18.6v85.2c0,6.7,5.4,12,12,12s12-5.4,12-12v-95.2
		l75.2-31.3C1227.1,353.9,1230,349.5,1230,344.7z"/>
</g>
</svg>
