<?xml version="1.0" encoding="utf-8"?>
<!-- Generator: Adobe Illustrator 24.0.0, SVG Export Plug-In . SVG Version: 6.00 Build 0)  -->
<svg version="1.1" id="Ebene_1" xmlns="http://www.w3.org/2000/svg" xmlns:xlink="http://www.w3.org/1999/xlink" x="0px" y="0px"
	 viewBox="0 0 1800 1014" style="enable-background:new 0 0 1800 1014;" xml:space="preserve">
<style type="text/css">
	.st0{fill:none;stroke:#FFFFFF;stroke-width:13.528;stroke-linecap:round;stroke-linejoin:round;stroke-miterlimit:10;}
	.st1{fill:none;stroke:#FFFFFF;stroke-width:16.65;stroke-linecap:round;stroke-linejoin:round;stroke-miterlimit:10;}
	.st2{fill:#FFFFFF;}
	.st3{fill:none;stroke:#FFFFFF;stroke-width:22.893;stroke-linecap:round;stroke-miterlimit:10;}
	.st4{fill:none;}
</style>
<g>
	<path class="st0" d="M634.1,416.6c0.3,4.4,45.9,261.6,46.6,263.9 M754.6,649.5c-1.4,7.9-3.3,34.3-4.4,34.5"/>
	<path class="st1" d="M654.9,409c-2,4-5.8,4.9-9.5,5.6c-3.6,0.7-7.3,1.2-11,1.4c-1.6,0.1-3.3-1.5-4-2.9c-1-2.1-2.3-4.1-2.5-6.5
		c0-0.1,0-0.2,0-0.3c0.1,0,0.1,0,0.2,0.1 M768.3,405.4c-2,0.9-4,1.8-6.1,2.6c-1.4,0.6-1.3,1.5-0.6,2.8c1.9,3.6,4.9,4.8,8.3,5.1
		c2.1,0.2,3.9-0.5,5.7-1.4c1.9-1,4-1.4,6-2.3c1.6-0.7,3.6,0.1,4.5,1c3.1,3.1,5.9,2.3,8.9,0.9c0.4-0.2,0.8-0.5,1.1-0.7 M678.5,407.2
		c2.6,0.1,5,1.6,7.5,2.5c6.2,2,12,2.4,17.3-1.2c0.4-0.3,0.9-0.5,1.4-0.7 M649.6,402.4c3.7,5.8,8.6,9,14.8,9.7
		c3.2,0.3,6.3,0.5,9.4-0.2c2.5-0.6,3.1-2.8,4.1-4.7c0.3-0.6-0.3-0.9-0.4-1.4c-0.5-2-1.6-3.9-0.4-5.9 M706.4,404.3
		c-2.1,0.9-2.2,3.2-0.5,6.1c2,3.2,5,3.5,7.9,4.2c1.6,0.4,3.1,0,4.5-0.8c2.9-1.6,6.1-2.5,8.2-5.3c1.6-2.2,1.7-3.5-0.1-5.8
		c-0.3-0.3-0.6-0.6-0.8-1 M728.1,407.2c2.1,4.1,5.5,4.6,9.2,5c5.1,0.6,10.1,0.4,15.1,0.2c3.1-0.1,5.9-1.4,8.6-2.9"/>
	<path class="st2" d="M799.6,711.5c-0.1-1.1-0.7-2.2-1.6-2.8l-1.6-1c-2.2-1.3-2.3-4.7-0.2-6.2l2.1-1.5c0.9-0.6,1.4-1.7,1.5-2.9
		c-41.2,10.2-155.7,10.6-186.3,10.5c0.4,0.2,0.9,0.4,1.4,0.4l5.9,0.1c1.8,0,3.3,1.7,3.3,3.7l-0.1,8.1c0,1.2-0.6,2.4-1.5,3l-1.9,1.3
		C649.6,725,747.7,726,799.6,711.5"/>
	<path class="st2" d="M799.6,728.8c-51.9,14.6-150,13.5-179,12.8l-7.7,5.5c-0.9,0.7-1.5,1.8-1.5,3l0,0.1c0,1.5,0.9,2.9,2.2,3.5
		l1.3,0.5c1.1,0,2.9,0,4.9,0c0.3,1.4,0.1,2.9-1.1,3.8l-3.3,2.5c4.3,0.9,71.1,13.8,181.4-11.1l-2-2.5c-0.4-0.6-0.7-1.3-0.8-2l-0.3-3
		l0,0c0.2-0.5,0.5-1,0.9-1.4l3.8-3.5c0.7-0.7,1.2-1.7,1.2-2.8l0-5C799.7,729.1,799.6,729,799.6,728.8"/>
	<path class="st2" d="M799.8,698.9l0.2-15.9c0-2.1-1.5-3.7-3.4-3.7c-22.8,0.7-152.3,3.8-180.8-1.3c-2-0.4-3.9,1.7-3.9,4l-0.2,24.2
		c0,1.5,0.8,2.7,1.9,3.3c30.6,0.1,145.1-0.3,186.3-10.5C799.8,699,799.8,699,799.8,698.9"/>
	<path class="st2" d="M798.6,768.2l-1.8-2.3c-110.3,24.9-177.1,12-181.4,11.1l-2.7,2.1c-0.9,0.7-1.4,1.8-1.4,3l-0.1,7.2
		c0,1.6,1,3.1,2.4,3.5l2.7,0.9c1.6,0,4.2,0,7.2,0.1c0.1,0.3,0.2,0.5,0.2,0.8l0,3.3c0,0.8-0.2,1.5-0.6,2c22.1,1.5,120.9,6.8,170.8-12
		c-0.5-0.5-0.9-1.2-1.1-2l-0.8-4.4c0.9-0.2,2-0.4,2.9-0.6l2.9-1.7c1.1-0.6,1.7-1.8,1.7-3.2l0-5.3
		C799.4,769.7,799.1,768.9,798.6,768.2"/>
	<path class="st2" d="M796.4,808.2c-45.6,18.6-162.8,10.9-180.6,9.6c-0.2,1.1-0.8,2-1.7,2.5c-2.1,1.2-2.5,4.4-0.6,6.1l3.8,3.4
		c1.3,0.2,3,0.4,4.9,0.6l26.4,23.8c7.4,0.7,68.6,6.1,114.2-1.2l28.7-30.9l0.9-1c1.5-0.4,3-0.7,4.5-1.1c0.6-0.7,0.9-1.6,0.9-2.5
		l0.1-6.4C797.8,809.9,797.2,808.8,796.4,808.2"/>
	<path class="st3" d="M903.5,457.3c30.2-109.4-29.2-210.8-131.1-240.9c-3-0.9-25.9-7.3-64-7.7c-24.4-0.2-61.2,5.5-64.2,6.4
		c-102.5,28-163.9,128.2-136,238.2c22.1,87,61.5,104,73,148c4.5,17.3,4.6,30.1,7.1,41.5c4.1,19,19.5,32.9,37.8,34.7
		c19.3,1.9,46.8,4.1,77.6,4.6c4.3,0,8.6,0,12.8-0.1c25.5-0.3,70.2-1.7,86.9-3"/>
	<g>
		<path class="st2" d="M1262,350.6c-51.3-14.8-97.6-46.2-130.4-88.4c27.8-15.6,57.6-28.1,85.7-35.1l40.6-10.1l5.8,41.4
			C1267.6,286.4,1266.4,319,1262,350.6 M1109.8,275.3c18.5,24.4,40.8,45.5,66.4,62.8c25.2,17,52.6,29.6,81.6,37.6
			c-7.2,36.3-18.2,69.4-30.2,90.2c-52.8,91.7-208.9,242.6-244.6,276.5l-109-73.5c20.1-47.6,111-259.4,164.7-330.8
			C1055,316.3,1080.5,294.3,1109.8,275.3 M910.6,523.2c-13.7,29.6-26.3,57.8-36.6,81.4l-87.5-5.9l41.4-61.4
			c8-11.9,21.8-18.5,36.1-17.2L910.6,523.2z M1042.2,720.3c18.1-17.9,39.8-39.7,62.4-63.5l19.9,38.9c6.5,12.7,5.5,28-2.5,39.9
			l-41.6,61.6L1042.2,720.3z M1288.8,254.9l-7.8-55.3c-1-7.1-8.6-12.3-15.6-10.5l-54.2,13.5c-71.8,17.9-154.7,69.7-192.8,120.3
			c-27.8,36.9-64.1,107.7-96.2,175.7l-56.2-3.8c-23.2-2-45.9,8.8-59,28.3l-53.7,79.6c-2.5,3.8-2.9,8.6-0.9,12.7c1,2,2.5,3.7,4.3,4.9
			c1.8,1.2,4,2,6.2,2.1l100.5,6.8c-9.6,22.3-15.7,37-16.7,39.4c-2.3,5.6-0.4,12,4.6,15.4l126.1,85c4.9,3.3,11.4,2.8,15.7-1.2
			c1.8-1.7,13.2-12.3,30.3-28.9l44.3,89.1c1,2,2.5,3.7,4.3,4.9c1.8,1.2,4,2,6.3,2.1c4.5,0.3,8.8-1.8,11.3-5.6l53.7-79.6
			c13.1-19.5,14.7-44.6,4-65.6l-24-47.1c49.2-52.9,99.8-112.3,126.5-158.7C1277,430.9,1299.3,329.7,1288.8,254.9"/>
		<path class="st4" d="M1262,350.6c-51.3-14.8-97.6-46.2-130.4-88.4c27.8-15.6,57.6-28.1,85.7-35.1l40.6-10.1l5.8,41.4
			C1267.6,286.4,1266.4,319,1262,350.6z M1109.8,275.3c18.5,24.4,40.8,45.5,66.4,62.8c25.2,17,52.6,29.6,81.6,37.6
			c-7.2,36.3-18.2,69.4-30.2,90.2c-52.8,91.7-208.9,242.6-244.6,276.5l-109-73.5c20.1-47.6,111-259.4,164.7-330.8
			C1055,316.3,1080.5,294.3,1109.8,275.3z M910.6,523.2c-13.7,29.6-26.3,57.8-36.6,81.4l-87.5-5.9l41.4-61.4
			c8-11.9,21.8-18.5,36.1-17.2L910.6,523.2z M1042.2,720.3c18.1-17.9,39.8-39.7,62.4-63.5l19.9,38.9c6.5,12.7,5.5,28-2.5,39.9
			l-41.6,61.6L1042.2,720.3z M1288.8,254.9l-7.8-55.3c-1-7.1-8.6-12.3-15.6-10.5l-54.2,13.5c-71.8,17.9-154.7,69.7-192.8,120.3
			c-27.8,36.9-64.1,107.7-96.2,175.7l-56.2-3.8c-23.2-2-45.9,8.8-59,28.3l-53.7,79.6c-2.5,3.8-2.9,8.6-0.9,12.7c1,2,2.5,3.7,4.3,4.9
			c1.8,1.2,4,2,6.2,2.1l100.5,6.8c-9.6,22.3-15.7,37-16.7,39.4c-2.3,5.6-0.4,12,4.6,15.4l126.1,85c4.9,3.3,11.4,2.8,15.7-1.2
			c1.8-1.7,13.2-12.3,30.3-28.9l44.3,89.1c1,2,2.5,3.7,4.3,4.9c1.8,1.2,4,2,6.3,2.1c4.5,0.3,8.8-1.8,11.3-5.6l53.7-79.6
			c13.1-19.5,14.7-44.6,4-65.6l-24-47.1c49.2-52.9,99.8-112.3,126.5-158.7C1277,430.9,1299.3,329.7,1288.8,254.9z"/>
		<path class="st2" d="M1126.7,411.4c23.2,15.6,29.3,47.2,13.7,70.4c-15.6,23.2-47.2,29.3-70.4,13.7c-23.2-15.6-29.3-47.2-13.7-70.4
			C1072,401.9,1103.6,395.8,1126.7,411.4 M1055.9,516.5c34.8,23.4,82.1,14.2,105.6-20.5c23.4-34.8,14.2-82.1-20.5-105.6
			c-34.8-23.4-82.1-14.2-105.6,20.5C1011.9,445.7,1021.1,493,1055.9,516.5"/>
		<path class="st4" d="M1126.7,411.4c23.2,15.6,29.3,47.2,13.7,70.4c-15.6,23.2-47.2,29.3-70.4,13.7c-23.2-15.6-29.3-47.2-13.7-70.4
			C1072,401.9,1103.6,395.8,1126.7,411.4z M1055.9,516.5c34.8,23.4,82.1,14.2,105.6-20.5c23.4-34.8,14.2-82.1-20.5-105.6
			c-34.8-23.4-82.1-14.2-105.6,20.5C1011.9,445.7,1021.1,493,1055.9,516.5z"/>
	</g>
	<path class="st0" d="M787.4,415c-1.4,7.9-12.1,95.6-13.2,95.8"/>
</g>
</svg>
