<?xml version="1.0" encoding="utf-8"?>
<!-- Generator: Adobe Illustrator 24.0.0, SVG Export Plug-In . SVG Version: 6.00 Build 0)  -->
<svg version="1.1" id="Ebene_1" xmlns="http://www.w3.org/2000/svg" xmlns:xlink="http://www.w3.org/1999/xlink" x="0px" y="0px"
	 viewBox="0 0 1800 1014" style="enable-background:new 0 0 1800 1014;" xml:space="preserve">
<style type="text/css">
	.st0{fill:#FFFFFF;}
</style>
<g>
	<path class="st0" d="M1076,769.6c-6.8,0-12.3-5.5-12.3-12.3V634.6c0-78.2-51.6-135-122.7-135h-98.1c-71.1,0-122.7,56.8-122.7,135
		v122.7c0,6.8-5.5,12.3-12.3,12.3c-6.8,0-12.3-5.5-12.3-12.3V634.6c0-90.9,63.3-159.5,147.2-159.5h98.1
		c83.9,0,147.2,68.6,147.2,159.5v122.7C1088.3,764.1,1082.8,769.6,1076,769.6"/>
	<path class="st0" d="M892,278.8c-45.3,0-61.3,39.7-61.3,73.6c0,34,16.1,73.6,61.3,73.6c45.3,0,61.3-39.7,61.3-73.6
		C953.3,318.5,937.3,278.8,892,278.8 M892,450.6c-51.4,0-85.9-39.4-85.9-98.1c0-58.7,34.5-98.1,85.9-98.1
		c51.4,0,85.9,39.4,85.9,98.1C977.9,411.1,943.4,450.6,892,450.6"/>
	<path class="st0" d="M1174.2,818.6H609.8c-6.8,0-12.3-5.5-12.3-12.3s5.5-12.3,12.3-12.3h564.4c6.8,0,12.3,5.5,12.3,12.3
		S1181,818.6,1174.2,818.6"/>
	<path class="st0" d="M791.7,794.1h200.5l0.2-29.5l22.1-111c0.3-1.7-0.2-3.5-1.4-5c-0.7-0.8-1.9-1.8-3.6-1.8H774.4
		c-1.8,0-2.9,1-3.6,1.8c-1.2,1.4-1.7,3.3-1.3,5.2L791.7,767V794.1z M1016.8,818.6H767.2v-50.4l-21.9-109.8
		c-1.7-9.3,0.7-18.5,6.6-25.5c5.6-6.7,13.8-10.6,22.5-10.6h235.3c8.6,0,16.8,3.9,22.5,10.6c5.8,7,8.3,16.2,6.6,25.3l-21.9,110V818.6
		z"/>
	<path class="st0" d="M1382.8,683.7c-6.8,0-12.3-5.5-12.3-12.3v-81.7c0-63.2-51.4-114.6-114.6-114.6h-65.2
		c-36.3,0-70.9,17.5-92.5,46.9c-4,5.5-11.7,6.6-17.1,2.6c-5.5-4-6.6-11.7-2.6-17.2c26.2-35.6,68.1-56.9,112.2-56.9h65.2
		c76.7,0,139.1,62.4,139.1,139.1v81.7C1395,678.2,1389.5,683.7,1382.8,683.7"/>
	<path class="st0" d="M1382.8,732.7h-257.6c-6.8,0-12.3-5.5-12.3-12.3c0-6.8,5.5-12.3,12.3-12.3h257.6c6.8,0,12.3,5.5,12.3,12.3
		C1395,727.3,1389.5,732.7,1382.8,732.7"/>
	<path class="st0" d="M1149.6,708.2h147.2l0.1-13.8l10.1-80.7c0.2-1.2-0.3-2.1-0.8-2.6c-0.4-0.5-1.2-1.1-2.5-1.1h-161
		c-1.2,0-2,0.6-2.5,1.1c-0.5,0.5-1,1.4-0.8,2.6l10.2,82.2V708.2z M1321.4,732.7h-196.3v-36l-10-79.9c-1-7.9,1.5-15.9,6.7-21.9
		c5.3-6,12.9-9.4,20.9-9.4h161c8,0,15.6,3.4,20.9,9.4c5.3,6,7.7,14,6.7,21.9l-10,79.9V732.7z"/>
	<path class="st0" d="M1223.3,278.8c-27.1,0-49.1,27.5-49.1,61.3c0,33.8,22,61.3,49.1,61.3c27.1,0,49.1-27.5,49.1-61.3
		C1272.3,306.3,1250.3,278.8,1223.3,278.8 M1223.3,426c-40.6,0-73.6-38.5-73.6-85.9s33-85.9,73.6-85.9c40.6,0,73.6,38.5,73.6,85.9
		S1263.9,426,1223.3,426"/>
	<path class="st0" d="M401.2,683.7c-6.8,0-12.3-5.5-12.3-12.3v-81.7c0-76.7,62.4-139.1,139.1-139.1h65.2
		c44.1,0,86.1,21.3,112.2,56.9c4,5.5,2.8,13.1-2.6,17.2c-5.5,4-13.2,2.8-17.2-2.6c-21.5-29.3-56.1-46.9-92.4-46.9h-65.2
		c-63.2,0-114.6,51.4-114.6,114.6v81.7C413.5,678.2,408,683.7,401.2,683.7"/>
	<path class="st0" d="M658.9,732.7H401.3c-6.8,0-12.3-5.5-12.3-12.3c0-6.8,5.5-12.3,12.3-12.3h257.6c6.8,0,12.3,5.5,12.3,12.3
		C671.2,727.3,665.7,732.7,658.9,732.7"/>
	<path class="st0" d="M487.1,708.2h147.2l0.1-13.8l10.1-80.7c0.2-1.2-0.3-2.1-0.8-2.6c-0.4-0.5-1.2-1.1-2.5-1.1h-161
		c-1.2,0-2,0.6-2.5,1.1c-0.5,0.5-1,1.4-0.8,2.6l10.2,82.2V708.2z M658.9,732.7H462.6v-36l-10-79.9c-1-7.9,1.5-15.9,6.8-21.9
		c5.3-6,12.9-9.4,20.9-9.4h161c8,0,15.6,3.4,20.9,9.4c5.3,6,7.7,14,6.7,21.9l-10,79.9V732.7z"/>
	<path class="st0" d="M560.7,278.8c-27.1,0-49.1,27.5-49.1,61.3c0,33.8,22,61.3,49.1,61.3c27.1,0,49.1-27.5,49.1-61.3
		C609.8,306.3,587.8,278.8,560.7,278.8 M560.7,426c-40.6,0-73.6-38.5-73.6-85.9s33-85.9,73.6-85.9s73.6,38.5,73.6,85.9
		S601.3,426,560.7,426"/>
</g>
</svg>
