<?xml version="1.0" encoding="utf-8"?>
<!-- Generator: Adobe Illustrator 24.0.0, SVG Export Plug-In . SVG Version: 6.00 Build 0)  -->
<svg version="1.0" id="Ebene_1" xmlns="http://www.w3.org/2000/svg" xmlns:xlink="http://www.w3.org/1999/xlink" x="0px" y="0px"
	 viewBox="0 0 1800 1014" style="enable-background:new 0 0 1800 1014;" xml:space="preserve">
<style type="text/css">
	.st0{fill:none;stroke:#FFFFFF;stroke-width:20.465;stroke-linecap:square;stroke-linejoin:round;stroke-miterlimit:10;}
	.st1{fill:none;stroke:#FFFFFF;stroke-width:20.465;stroke-linejoin:round;}
	.st2{fill:none;stroke:#FFFFFF;stroke-width:18.191;}
	.st3{fill:#FFFFFF;}
</style>
<g>
	<path class="st0" d="M534.9,595.4c-11.9,0.1-72.7,9.7-21.8-72l128-215.3c6.1-10.2,16.2-10.4,22.5-0.2l12.7,20.1l-31.2,141
		l149.4-278.7c5.6-10.5,14.3-10.2,19.2,0.7l35.5,77.9l-38.6,155.6l111.4-196c5.9-10.4,15.4-10.3,21.1,0.2l157.7,289.1
		c5.7,10.5,0.6,19.1-11.3,19.2"/>
	<path class="st1" d="M1301.1,557.7c79.9,59.6-81.1,226.1-102.5,231.7c-24.2,6.3-47.2-7.9-62,0.4c-14.8,8.3-29.7,76.7-63.9,69.2
		c-34.2-7.4-85.3-27.9-107.5-30.3c-41.4-4.4-207.4-5.8-256.7-18.8c-27.9-7.4-125.5-52.6-142.7-63.3c-20.7-12.8,48.1-47,47-63.7
		c-0.7-11.7-99.6-43.4-106.3-50.8c-7.9-8.6,0-30,7.7-35.3c7.7-5.3,100.8,1.1,111.1-1.3s28.6-44.5,39.9-51.3
		c11.3-6.8,268.7-6.3,268.7-6.3S1261.9,528.4,1301.1,557.7z"/>
	<path class="st2" d="M1038.2,585.8c-1.1-1.1-5.7-2.4-9.1-2.5c-128.1,2.4-322.2,6.4-332.5,7.8c-1.7,0.3-5.7,4.2-6.6,9.1
		c-0.7,3.7,0.9,4.7,1.7,5.2c6.3,3.9,19.6,7.1,33.7,10.6l0.6,0.1c11.3,2.8,24.2,5.9,36,10.1c20,7.2,24.3,14.4,28.1,23.8
		c1.2,2.8,2.2,5.3,4.4,8.1c1.5,1.9,3.4,4.4,5.5,7.3c11.5,15.7,32.9,44.9,56.9,47.9c5.6,0.7,11,1.7,16.1,2.7
		c13.1,2.5,24.4,4.6,31.1-0.2c5.6-4.1,9.5-13.9,11.6-29.1c1.4-10.4-0.5-10.9-3.1-11.6c-3.6-1-5.3-0.1-9.6,2.5
		c-4.5,2.7-11.2,6.9-20.8,4.3c-17.1-4.6-20-18.5-17.8-26.7c3.5-13.2,17.2-21.4,29.8-18c4.7,1.3,9,4,13.2,6.7c5.7,3.6,11,7,16.3,6.5
		c3.7-0.3,6.9-0.4,9.7-0.5c3.1-0.1,7.4-0.2,8.4-0.8c10.9-15.6,25.4-29.2,34.4-32.4c7.4-2.6,13.7-2.4,19.4-2.2
		c4.6,0.2,8.5,0.3,12.6-1.1C1018.9,609.3,1037.8,594.4,1038.2,585.8z"/>
	<path class="st3" d="M1054.4,738.3c-13,0-23.6-10.6-23.6-23.6c0-13,10.6-23.6,23.6-23.6c13,0,23.6,10.6,23.6,23.6
		C1078,727.8,1067.4,738.3,1054.4,738.3 M1054.4,666.2c-27.8,0-50.4,22.6-50.4,50.4c0,20.6,44.5,96.5,44.5,96.5
		c3.2,5.1,8.5,5.1,11.8,0c0,0,44.5-76,44.5-96.5C1104.8,688.8,1082.2,666.2,1054.4,666.2"/>
</g>
</svg>
