<?xml version="1.0" encoding="utf-8"?>
<!-- Generator: Adobe Illustrator 24.0.0, SVG Export Plug-In . SVG Version: 6.00 Build 0)  -->
<svg version="1.1" xmlns="http://www.w3.org/2000/svg" xmlns:xlink="http://www.w3.org/1999/xlink" x="0px" y="0px"
	 viewBox="0 0 1800 1014" style="enable-background:new 0 0 1800 1014;" xml:space="preserve">
<style type="text/css">
	.st0{fill:#FFFFFF;stroke:#FFFFFF;}
	.st1{fill:none;stroke:#FFFFFF;stroke-width:24.7663;}
	.st2{fill:none;stroke:#FFFFFF;stroke-width:24;}
</style>
<g id="Ebene_1">
</g>
<g id="Ebene_2">
	<g>
		<path class="st0" d="M887.6,601.7c36.8,0,66.6-29.8,66.6-66.6c0-36.8-29.8-66.6-66.6-66.6c-36.8,0-66.6,29.8-66.6,66.6
			C821,571.9,850.8,601.7,887.6,601.7"/>
		<path class="st1" d="M1041.1,565.7c2-9.9,3-20.1,3-30.6c0-86.4-70.1-156.5-156.5-156.5s-156.5,70.1-156.5,156.5
			c0,86.4,70.1,156.5,156.5,156.5c40.5,0,77.5-15.4,105.3-40.7"/>
		<path class="st1" d="M1162.3,755.2c47.8-60,76.3-135.9,76.3-218.6c0-193.9-157.2-351-351-351c-8.5,0-17,0.3-25.4,0.9"/>
		<path class="st1" d="M764.1,208c-132.9,50-227.5,178.3-227.5,328.6c0,193.9,157.2,351,351,351c75,0,144.5-23.5,201.6-63.6"/>
		<path class="st1" d="M989,304.5c-31-13.6-65.3-21.1-101.4-21.1c-74.8,0-142.1,32.5-188.5,84.1"/>
		<path class="st1" d="M737.4,740.5c42,31,94,49.4,150.3,49.4c139.9,0,253.2-113.4,253.2-253.2c0-67.9-26.7-129.5-70.2-175"/>
		<path class="st1" d="M648.7,452.6c-9.3,26.3-14.3,54.6-14.3,84.1c0,47.8,13.3,92.5,36.3,130.7"/>
		<path class="st2" d="M666.4,453.4c26.4,0,47.8-21.4,47.8-47.8c0-26.4-21.4-47.8-47.8-47.8c-26.4,0-47.8,21.4-47.8,47.8
			C618.5,432,640,453.4,666.4,453.4"/>
		<path class="st2" d="M1122.9,835.6c26.4,0,47.8-21.4,47.8-47.8c0-26.4-21.4-47.8-47.8-47.8c-26.4,0-47.8,21.4-47.8,47.8
			C1075,814.2,1096.4,835.6,1122.9,835.6"/>
		<circle class="st2" cx="700.7" cy="706.7" r="47.8"/>
		<path class="st2" d="M1033.5,375.7c26.4,0,47.8-21.4,47.8-47.8c0-26.4-21.4-47.8-47.8-47.8c-26.4,0-47.8,21.4-47.8,47.8
			C985.6,354.3,1007.1,375.7,1033.5,375.7"/>
		
			<ellipse transform="matrix(0.7071 -0.7071 0.7071 0.7071 98.292 633.036)" class="st2" cx="813.3" cy="197.9" rx="47.8" ry="47.8"/>
		
			<ellipse transform="matrix(0.982 -0.1891 0.1891 0.982 -97.5541 205.258)" class="st2" cx="1026.8" cy="613.8" rx="47.8" ry="47.8"/>
	</g>
</g>
</svg>
