<?xml version="1.0" encoding="utf-8"?>
<!-- Generator: Adobe Illustrator 24.0.0, SVG Export Plug-In . SVG Version: 6.00 Build 0)  -->
<svg version="1.0" id="Ebene_1" xmlns="http://www.w3.org/2000/svg" xmlns:xlink="http://www.w3.org/1999/xlink" x="0px" y="0px"
	 viewBox="0 0 1800 1014" style="enable-background:new 0 0 1800 1014;" xml:space="preserve">
<style type="text/css">
	.st0{clip-path:url(#SVGID_2_);fill:#FFFFFF;}
	.st1{clip-path:url(#SVGID_2_);fill:none;}
</style>
<g>
	<defs>
		<rect id="SVGID_1_" x="314" y="260.2" width="1141.8" height="521.8"/>
	</defs>
	<clipPath id="SVGID_2_">
		<use xlink:href="#SVGID_1_"  style="overflow:visible;"/>
	</clipPath>
	<path class="st0" d="M886.2,715.9c-123.6,0-224.1-100.5-224.1-224.1c0-123.6,100.5-224.1,224.1-224.1c35,0,68.5,7.8,99.6,23.3
		c12.3,6.1,17.3,21.1,11.2,33.4c-6.1,12.3-21.1,17.3-33.4,11.2c-24.2-12-50.2-18.1-77.4-18.1c-96.1,0-174.3,78.2-174.3,174.3
		c0,96.1,78.2,174.3,174.3,174.3s174.3-78.2,174.3-174.3c0-14-1.7-27.9-4.9-41.3c-3.2-13.4,5-26.8,18.3-30.1
		c13.4-3.3,26.8,5,30.1,18.3c4.2,17.3,6.3,35.1,6.3,53C1110.3,615.4,1009.7,715.9,886.2,715.9"/>
	<path class="st1" d="M886.2,715.9c-123.6,0-224.1-100.5-224.1-224.1c0-123.6,100.5-224.1,224.1-224.1c35,0,68.5,7.8,99.6,23.3
		c12.3,6.1,17.3,21.1,11.2,33.4c-6.1,12.3-21.1,17.3-33.4,11.2c-24.2-12-50.2-18.1-77.4-18.1c-96.1,0-174.3,78.2-174.3,174.3
		c0,96.1,78.2,174.3,174.3,174.3s174.3-78.2,174.3-174.3c0-14-1.7-27.9-4.9-41.3c-3.2-13.4,5-26.8,18.3-30.1
		c13.4-3.3,26.8,5,30.1,18.3c4.2,17.3,6.3,35.1,6.3,53C1110.3,615.4,1009.7,715.9,886.2,715.9z"/>
	<path class="st0" d="M886.2,596.4c-6.4,0-12.5-2.5-17.2-6.9l-90.3-86.2c-9.9-9.5-10.3-25.2-0.8-35.2c9.5-10,25.2-10.3,35.2-0.8
		l69.5,66.4l182.5-255.5c8-11.2,23.5-13.8,34.7-5.8c11.2,8,13.8,23.5,5.8,34.7L906.4,586c-4.2,5.9-10.7,9.7-17.9,10.3
		C887.7,596.4,886.9,596.4,886.2,596.4"/>
	<path class="st1" d="M886.2,596.4c-6.4,0-12.5-2.5-17.2-6.9l-90.3-86.2c-9.9-9.5-10.3-25.2-0.8-35.2c9.5-10,25.2-10.3,35.2-0.8
		l69.5,66.4l182.5-255.5c8-11.2,23.5-13.8,34.7-5.8c11.2,8,13.8,23.5,5.8,34.7L906.4,586c-4.2,5.9-10.7,9.7-17.9,10.3
		C887.7,596.4,886.9,596.4,886.2,596.4z"/>
	<path class="st0" d="M1354.2,774.4c-4,0-7.9-0.9-11.6-2.9l-100.3-52.7l-100.3,52.7c-8.4,4.4-18.5,3.7-26.2-1.9
		c-7.7-5.6-11.5-15-9.9-24.3l19.1-111.4l-24.2-23l34.3-36.1l33.9,32.1c6,5.7,8.8,14.1,7.4,22.3l-12.8,74.8l67.2-35.3
		c7.2-3.8,15.9-3.8,23.2,0l67.2,35.3l-12.8-74.8c-1.4-8.1,1.3-16.3,7.2-22l54.4-53l-75.1-10.9c-8.1-1.2-15.1-6.3-18.8-13.6l-33.6-68
		l-33.6,68c-3.7,7.4-10.8,12.5-19,13.7l-50.3,6.8l-6.7-49.4l37.2-5l50-101.4c8.4-17,36.3-17,44.7,0l50.1,101.6l112.1,16.3
		c9.4,1.4,17.2,7.9,20.1,17c2.9,9,0.5,18.9-6.3,25.5l-81.1,79.1l19.2,111.6c1.6,9.3-2.3,18.8-9.9,24.3
		C1364.5,772.8,1359.4,774.4,1354.2,774.4"/>
	<path class="st1" d="M1354.2,774.4c-4,0-7.9-0.9-11.6-2.9l-100.3-52.7l-100.3,52.7c-8.4,4.4-18.5,3.7-26.2-1.9
		c-7.7-5.6-11.5-15-9.9-24.3l19.1-111.4l-24.2-23l34.3-36.1l33.9,32.1c6,5.7,8.8,14.1,7.4,22.3l-12.8,74.8l67.2-35.3
		c7.2-3.8,15.9-3.8,23.2,0l67.2,35.3l-12.8-74.8c-1.4-8.1,1.3-16.3,7.2-22l54.4-53l-75.1-10.9c-8.1-1.2-15.1-6.3-18.8-13.6l-33.6-68
		l-33.6,68c-3.7,7.4-10.8,12.5-19,13.7l-50.3,6.8l-6.7-49.4l37.2-5l50-101.4c8.4-17,36.3-17,44.7,0l50.1,101.6l112.1,16.3
		c9.4,1.4,17.2,7.9,20.1,17c2.9,9,0.5,18.9-6.3,25.5l-81.1,79.1l19.2,111.6c1.6,9.3-2.3,18.8-9.9,24.3
		C1364.5,772.8,1359.4,774.4,1354.2,774.4z"/>
	<path class="st0" d="M639.2,774.4c-4,0-7.9-0.9-11.6-2.9l-100.2-52.7l-100.3,52.7c-8.4,4.4-18.6,3.7-26.2-1.9
		c-7.7-5.6-11.5-15-9.9-24.3l19.1-111.6L329,554.6c-6.8-6.6-9.2-16.5-6.3-25.5c2.9-9,10.7-15.6,20.1-17l112.1-16.3L505,394.3
		c8.4-17,36.3-17,44.6,0l50.1,101.4l37.2,5l-6.7,49.4l-50.3-6.8c-8.2-1.1-15.3-6.2-19-13.7l-33.6-68l-33.6,68
		c-3.6,7.3-10.6,12.5-18.7,13.6l-75.1,10.9l54.4,53c5.9,5.7,8.5,14,7.2,22L448.5,704l67.2-35.3c7.2-3.8,15.9-3.8,23.2,0l67.2,35.3
		l-12.8-74.8c-1.4-8.2,1.4-16.6,7.4-22.3l33.9-32.1l34.3,36.1l-24.2,23l19.1,111.4c1.6,9.3-2.2,18.8-9.9,24.3
		C649.5,772.8,644.3,774.4,639.2,774.4"/>
	<path class="st1" d="M639.2,774.4c-4,0-7.9-0.9-11.6-2.9l-100.2-52.7l-100.3,52.7c-8.4,4.4-18.6,3.7-26.2-1.9
		c-7.7-5.6-11.5-15-9.9-24.3l19.1-111.6L329,554.6c-6.8-6.6-9.2-16.5-6.3-25.5c2.9-9,10.7-15.6,20.1-17l112.1-16.3L505,394.3
		c8.4-17,36.3-17,44.6,0l50.1,101.4l37.2,5l-6.7,49.4l-50.3-6.8c-8.2-1.1-15.3-6.2-19-13.7l-33.6-68l-33.6,68
		c-3.6,7.3-10.6,12.5-18.7,13.6l-75.1,10.9l54.4,53c5.9,5.7,8.5,14,7.2,22L448.5,704l67.2-35.3c7.2-3.8,15.9-3.8,23.2,0l67.2,35.3
		l-12.8-74.8c-1.4-8.2,1.4-16.6,7.4-22.3l33.9-32.1l34.3,36.1l-24.2,23l19.1,111.4c1.6,9.3-2.2,18.8-9.9,24.3
		C649.5,772.8,644.3,774.4,639.2,774.4z"/>
</g>
</svg>
