<?xml version="1.0" encoding="utf-8"?>
<!-- Generator: Adobe Illustrator 24.0.0, SVG Export Plug-In . SVG Version: 6.00 Build 0)  -->
<svg version="1.1" id="Ebene_1" xmlns="http://www.w3.org/2000/svg" xmlns:xlink="http://www.w3.org/1999/xlink" x="0px" y="0px"
	 viewBox="0 0 1800 1014" style="enable-background:new 0 0 1800 1014;" xml:space="preserve">
<style type="text/css">
	.st0{fill:#FFFFFF;}
</style>
<g>
	<path class="st0" d="M1186.7,588.9c6.8,6.7,6.7,12.2-0.2,18.8c-51.8,49.5-103.6,99.1-155.3,148.6c-45.1,43.2-90.3,86.4-135.4,129.6
		c-7.3,7-14.5,7-21.8,0c-84.3-80.7-168.6-161.3-252.8-242c-13-12.5-26-24.9-39-37.3c-2.4-2.3-4-4.9-4-8.4c0-3.6,1.8-6.3,4.3-8.7
		c13.1-12.8,26.1-25.7,39.1-38.6c31.2-30.8,62.5-61.6,93.6-92.4c3.5-3.5,7.5-5.1,12.4-5.1c52.4,0.1,104.9,0,157.3,0
		c52.3,0,104.6,0,156.9-0.1c5.3,0,9.5,1.7,13.2,5.4 M974.8,609.9c-60.1,0-119.8,0-179.9,0c29.9,78.1,59.8,156,89.6,233.8
		c0.2,0,0.4,0,0.7-0.1C915.1,765.8,944.9,688,974.8,609.9z M916.8,831.6c0.2,0.1,0.3,0.3,0.5,0.4c77.2-73.9,154.5-147.8,231.7-221.7
		c-0.1-0.2-0.2-0.4-0.3-0.5c-1,0-1.9,0-2.9,0c-46.9,0-93.8,0-140.7-0.1c-2.6,0-3.6,0.8-4.5,3.1c-25.2,65.9-50.4,131.7-75.6,197.5
		C922.2,817.4,919.5,824.5,916.8,831.6z M621.1,609.7c-0.1,0.2-0.2,0.4-0.3,0.6c77.2,73.9,154.4,147.8,231.6,221.7
		c0.1-1.2-0.1-2.1-0.4-2.9c-27.7-72.2-55.4-144.4-83-216.7c-0.7-1.9-1.6-2.7-3.9-2.7c-47.2,0.1-94.4,0.1-141.6,0.1
		C622.8,609.7,622,609.7,621.1,609.7z M884.9,484c-28.6,34.3-57,68.3-85.6,102.6c57.3,0,114,0,171.2,0
		C941.9,552.3,913.5,518.3,884.9,484z M720.9,486.9c-33.8,33.3-67.3,66.3-101.1,99.7c46.7,0,92.8,0,139.3,0
		C746.4,553.4,733.7,520.4,720.9,486.9z M1010.7,586.5c46.5,0,92.6,0,139.2,0c-33.8-33.3-67.2-66.3-101-99.6
		C1036.1,520.4,1023.4,553.4,1010.7,586.5z M743.8,476.5c12.1,31.7,24.2,63,36.3,94.8c26.5-31.8,52.6-63.1,79.1-94.8
		C820.6,476.5,782.5,476.5,743.8,476.5z M910.5,476.6c26.5,31.7,52.6,63,79.1,94.7c12.2-31.8,24.2-63.2,36.3-94.7
		C987.3,476.6,949.2,476.6,910.5,476.6z"/>
	<g>
		<path class="st0" d="M1119.9,315.8h-17.4c-43.2,0-78.3-35.1-78.3-78.3c0-0.5,0-0.9-0.1-1.4c0.1-2.4,0.1-4.8,0.1-7.3v-65.3
			c0-16.8-13.7-30.5-30.5-30.5c-16.8,0-30.5,13.7-30.5,30.5V220c0,21.9-8.8,42.2-24.8,57.2c-16,15-36.8,22.5-58.8,21
			c-41-2.7-73.1-38.3-73.1-81.1v-53.6c0-16.8-13.7-30.5-30.5-30.5c-16.8,0-30.5,13.7-30.5,30.5v65.3c0,2.3,0,4.6,0.1,6.9
			c-0.1,0.6-0.2,1.2-0.2,1.8c0,43.2-35.1,78.3-78.3,78.3h-17.4c-54.6,0-95.7,37.4-95.7,87v160.9l17.4-18.3V402.8
			c0-39.7,33.7-69.6,78.3-69.6h17.4c36.7,0,68.7-20.8,84.8-51.3c4.3,17.7,10.5,33.2,17.2,46.4C750,366.1,723.2,387,723,387.2
			c-2.1,1.6-3.4,4.2-3.4,6.9v18.1l17.4-0.7v-13.3c7.6-6.5,26.3-24.2,42.5-52.1c11.2,17.7,22.1,29.3,27.2,34.4V410l17.4-0.1v-33.2
			c0-2.5-1.1-4.9-3-6.6c-0.6-0.5-57.9-51.7-57.9-141.4v-65.3c0-7.2,5.9-13.1,13.1-13.1c7.2,0,13.1,5.9,13.1,13.1v53.6
			c0,52,39.3,95.3,89.4,98.5c26.8,1.7,52.3-7.4,71.8-25.7c19.2-18,30.3-43.5,30.3-69.9v-56.6c0-7.2,5.9-13.1,13.1-13.1
			s13.1,5.9,13.1,13.1v65.3c0,89.3-57.4,140.9-58,141.4c-1.9,1.6-3,4-3,6.5v32.2h17.4v-28.4c5.1-5,16-16.6,27.2-34.3
			c16.2,27.9,34.8,45.5,42.4,52v13.3l17.4,0.1v-17.5c0-2.7-1.3-5.3-3.4-6.9c-0.3-0.2-27-21.1-46.3-58.9
			c6.7-13.2,12.9-28.7,17.2-46.3c16.1,30.4,48,51.2,84.7,51.2h17.4c44.7,0,78.3,29.9,78.3,69.6v137.9l17.4,15.2V402.8
			C1215.7,353.2,1174.5,315.8,1119.9,315.8z"/>
		<path class="st0" d="M1172.2,428.9h-8.7c-4.8,0-8.7,3.9-8.7,8.7v67.6l17.4,15.8v-74.6c4.8,0,8.7-3.9,8.7-8.7
			C1180.9,432.8,1177,428.9,1172.2,428.9z"/>
		<path class="st0" d="M1102.5,307.1c31.2,0,52.2-24.5,52.2-60.9c0-36.4-21-60.9-52.2-60.9s-52.2,24.5-52.2,60.9
			C1050.3,282.6,1071.3,307.1,1102.5,307.1z M1102.5,202.6c25.7,0,34.8,22.5,34.8,43.5c0,21-9.1,43.5-34.8,43.5
			s-34.8-22.5-34.8-43.5C1067.7,225.1,1076.9,202.6,1102.5,202.6z"/>
		<path class="st0" d="M606.4,428.9h-8.7c-4.8,0-8.7,3.9-8.7,8.7s3.9,8.7,8.7,8.7v78l17.4-18.4v-68.3
			C615.1,432.8,611.2,428.9,606.4,428.9z"/>
		<path class="st0" d="M667.3,307.1c31.2,0,52.2-24.5,52.2-60.9c0-36.4-21-60.9-52.2-60.9s-52.2,24.5-52.2,60.9
			C615.1,282.6,636.1,307.1,667.3,307.1z M667.3,202.6c25.7,0,34.8,22.5,34.8,43.5c0,21-9.1,43.5-34.8,43.5s-34.8-22.5-34.8-43.5
			C632.5,225.1,641.7,202.6,667.3,202.6z"/>
		<path class="st0" d="M885,281c31.2,0,52.2-24.5,52.2-60.9c0-36.4-21-60.9-52.2-60.9s-52.2,24.5-52.2,60.9
			C832.8,256.5,853.7,281,885,281z M885,176.5c25.7,0,34.8,22.5,34.8,43.5c0,21-9.1,43.5-34.8,43.5s-34.8-22.5-34.8-43.5
			C850.2,199,859.3,176.5,885,176.5z"/>
	</g>
</g>
</svg>
