<?xml version="1.0" encoding="utf-8"?>
<!-- Generator: Adobe Illustrator 24.0.0, SVG Export Plug-In . SVG Version: 6.00 Build 0)  -->
<svg version="1.1" id="Ebene_1" xmlns="http://www.w3.org/2000/svg" xmlns:xlink="http://www.w3.org/1999/xlink" x="0px" y="0px"
	 viewBox="0 0 1800 1014" style="enable-background:new 0 0 1800 1014;" xml:space="preserve">
<style type="text/css">
	.st0{fill:#FFFFFF;}
</style>
<g>
	<g>
		<path class="st0" d="M178.2,676.8v5.4h16v47.6h5.5v-47.6h15.8v-5.4H178.2z M232.6,691.9c-7.9,0-11.8,4-11.8,12.1v13.6
			c0,8.1,3.9,12.1,11.8,12.1h22.2v-5.2h-21.6c-4.8,0-7.3-2.5-7.3-7.5v-13c0-5.1,2.5-7.7,7.5-7.7H245c4,0,6,1.9,6,5.8v1.7
			c0,3.3-2,5-5.9,5h-16.1v4.3h17.6c6.4,0,9.6-2.8,9.6-8.3v-3c0-6.7-3.4-10-10.2-10H232.6z M279,691.9c-7.9,0-11.8,4-11.8,12.1v13.6
			c0,8.1,3.9,12.1,11.8,12.1h16.9v-5.2H280c-5,0-7.6-2.6-7.6-7.8v-11.9c0-5.1,2.5-7.7,7.6-7.7h15.9v-5.3H279z M307.1,676.3v53.5h5.3
			v-32.6h18c5,0,7.6,2.6,7.6,7.7v24.9h5.3V704c0-8.1-3.9-12.1-11.8-12.1h-19v-15.6H307.1z M355.4,691.9v37.9h5.3v-32.6h18
			c5,0,7.6,2.6,7.6,7.7v24.9h5.3V704c0-8.1-3.9-12.1-11.8-12.1H355.4z M415,691.9c-7.9,0-11.8,4-11.8,12.1v13.6
			c0,8.1,3.9,12.1,11.8,12.1h12.8c7.9,0,11.8-4,11.8-12.1V704c0-8.1-3.9-12.1-11.8-12.1H415z M408.5,704.9c0-5.1,2.5-7.7,7.6-7.7
			h10.8c5,0,7.6,2.6,7.6,7.7v11.9c0,5.2-2.5,7.8-7.6,7.8H416c-5,0-7.6-2.6-7.6-7.8V704.9z M451.6,729.8h5.3v-53.5h-5.3V729.8z
			 M480.6,691.9c-7.9,0-11.8,4-11.8,12.1v13.6c0,8.1,3.9,12.1,11.8,12.1h12.8c7.9,0,11.8-4,11.8-12.1V704c0-8.1-3.9-12.1-11.8-12.1
			H480.6z M474,704.9c0-5.1,2.5-7.7,7.6-7.7h10.8c5,0,7.6,2.6,7.6,7.7v11.9c0,5.2-2.5,7.8-7.6,7.8h-10.8c-5,0-7.6-2.6-7.6-7.8V704.9
			z M528.5,691.9c-7.9,0-11.8,4-11.8,12.1v12.1c0,7.6,3.9,11.4,11.8,11.4h16.1v-4.9h-15.1c-5,0-7.6-2.4-7.6-7.3v-10.4
			c0-5.1,2.5-7.7,7.6-7.7H540c5,0,7.6,2.6,7.6,7.7v24.3c0,5.5-2.5,8.3-7.6,8.3h-16.3v5.2H541c7.9,0,11.8-4.3,11.8-12.8V704
			c0-8.1-3.9-12.1-11.8-12.1H528.5z M564.8,729.8h5.3v-37.5h-5.3V729.8z M564.8,684.7h5.3v-8.4h-5.3V684.7z M593.8,691.9
			c-7.9,0-11.8,4-11.8,12.1v13.6c0,8.1,3.9,12.1,11.8,12.1H616v-5.2h-21.6c-4.8,0-7.3-2.5-7.3-7.5v-13c0-5.1,2.5-7.7,7.5-7.7h11.5
			c4,0,6,1.9,6,5.8v1.7c0,3.3-2,5-5.9,5h-16.1v4.3h17.6c6.4,0,9.6-2.8,9.6-8.3v-3c0-6.7-3.4-10-10.2-10H593.8z M637.7,676.3
			c-6.1,0-9.2,3.2-9.2,9.5v44h5.2v-33.2h8.4v-4.7h-8.4v-6c0-3.5,1.7-5.2,5.1-5.2h3.6v-4.4H637.7z M662.7,691.9
			c-7.9,0-11.8,4-11.8,12.1v13.6c0,8.1,3.9,12.1,11.8,12.1h12.8c7.9,0,11.8-4,11.8-12.1V704c0-8.1-3.9-12.1-11.8-12.1H662.7z
			 M656.1,704.9c0-5.1,2.5-7.7,7.5-7.7h10.8c5,0,7.6,2.6,7.6,7.7v11.9c0,5.2-2.5,7.8-7.6,7.8h-10.8c-5,0-7.5-2.6-7.5-7.8V704.9z
			 M711.1,692c-7.9,0-11.8,4-11.8,12.1v25.7h5.3V705c0-5.2,2.5-7.8,7.5-7.8h9.3V692H711.1z M738.5,691.9c-5.8,0-8.7,2.8-8.7,8.3v4.3
			c0,5.2,2.8,7.8,8.3,7.8h15.2c3,0,4.4,1.4,4.4,4.1v4.3c0,3-1.7,4.5-5.2,4.5h-22.5v4.6h23.9c6,0,8.9-2.8,8.9-8.4v-5.5
			c0-5.2-2.8-7.8-8.3-7.8h-15.2c-3,0-4.5-1.4-4.5-4.1v-3c0-3,1.6-4.5,4.9-4.5h21.5v-4.6H738.5z M785.1,691.9
			c-7.9,0-11.8,4-11.8,12.1v13.6c0,8.1,3.9,12.1,11.8,12.1H802v-5.2h-15.9c-5,0-7.6-2.6-7.6-7.8v-11.9c0-5.1,2.5-7.7,7.6-7.7H802
			v-5.3H785.1z M813.2,676.3v53.5h5.3v-32.6h18c5,0,7.6,2.6,7.6,7.7v24.9h5.3V704c0-8.1-3.9-12.1-11.8-12.1h-19v-15.6H813.2z
			 M860.8,692v25.7c0,8.1,3.9,12.1,11.8,12.1h12.3c7.9,0,11.8-4,11.8-12.1V692h-5.2v24.8c0,5.2-2.5,7.8-7.6,7.8h-10.4
			c-5,0-7.5-2.6-7.5-7.8V692H860.8z M908.9,691.9v37.9h5.3v-32.6h18c5,0,7.6,2.6,7.6,7.7v24.9h5.3V704c0-8.1-3.9-12.1-11.8-12.1
			H908.9z M968.5,691.9c-7.9,0-11.8,4-11.8,12.1v12.1c0,7.6,3.9,11.4,11.8,11.4h16.1v-4.9h-15.1c-5,0-7.6-2.4-7.6-7.3v-10.4
			c0-5.1,2.5-7.7,7.6-7.7h10.5c5,0,7.6,2.6,7.6,7.7v24.3c0,5.5-2.5,8.3-7.6,8.3h-16.3v5.2h17.4c7.9,0,11.8-4.3,11.8-12.8V704
			c0-8.1-3.9-12.1-11.8-12.1H968.5z M1055.1,676.3v40.5c0,5.2-2.5,7.8-7.6,7.8h-10.5c-5,0-7.6-2.6-7.6-7.8v-11.9
			c0-5.1,2.5-7.7,7.6-7.7h15.1v-5.3h-16.1c-7.9,0-11.8,4-11.8,12.1v13.6c0,8.1,3.9,12.1,11.8,12.1h12.5c7.9,0,11.8-4,11.8-12.1
			v-41.4H1055.1z M1083.5,691.9c-7.9,0-11.8,4-11.8,12.1v13.6c0,8.1,3.9,12.1,11.8,12.1h22.2v-5.2h-21.6c-4.8,0-7.3-2.5-7.3-7.5v-13
			c0-5.1,2.5-7.7,7.5-7.7h11.5c4,0,6,1.9,6,5.8v1.7c0,3.3-2,5-5.9,5h-16.1v4.3h17.6c6.4,0,9.6-2.8,9.6-8.3v-3c0-6.7-3.4-10-10.2-10
			H1083.5z M1130,692c-7.9,0-11.8,4-11.8,12.1v25.7h5.3V705c0-5.2,2.5-7.8,7.5-7.8h9.3V692H1130z M1169.8,676.8v53h26.3
			c7.9,0,11.9-3.8,11.9-11.5v-5.7c0-4.9-2.1-8.1-6.2-9.6c1.9-0.8,3.4-1.9,4.3-3.5c0.9-1.5,1.4-3.5,1.4-5.7v-4.9
			c0-8-3.9-12.1-11.8-12.1H1169.8z M1175.3,682.3h19.5c4.9,0,7.3,2.5,7.3,7.5v4.6c0,4.1-2.5,6.1-7.6,6.1h-16.4v4.9h16.4
			c5.2,0,7.8,2.2,7.8,6.5v5.6c0,4.6-2.4,6.9-7.3,6.9h-19.8V682.3z M1218,692v25.7c0,8.1,3.9,12.1,11.8,12.1h12.3
			c7.9,0,11.8-4,11.8-12.1V692h-5.2v24.8c0,5.2-2.5,7.8-7.6,7.8h-10.4c-5,0-7.5-2.6-7.5-7.8V692H1218z M1265.7,691.9v37.9h5.3v-32.6
			h18c5,0,7.6,2.6,7.6,7.7v24.9h5.3V704c0-8.1-3.9-12.1-11.8-12.1H1265.7z M1344,676.3v40.5c0,5.2-2.5,7.8-7.6,7.8h-10.5
			c-5,0-7.6-2.6-7.6-7.8v-11.9c0-5.1,2.5-7.7,7.6-7.7h15.1v-5.3h-16.1c-7.9,0-11.8,4-11.8,12.1v13.6c0,8.1,3.9,12.1,11.8,12.1h12.5
			c7.9,0,11.8-4,11.8-12.1v-41.4H1344z M1372.3,691.9c-7.9,0-11.8,4-11.8,12.1v13.6c0,8.1,3.9,12.1,11.8,12.1h22.2v-5.2H1373
			c-4.8,0-7.3-2.5-7.3-7.5v-13c0-5.1,2.5-7.7,7.5-7.7h11.5c4,0,6,1.9,6,5.8v1.7c0,3.3-2,5-5.9,5h-16.1v4.3h17.6
			c6.4,0,9.6-2.8,9.6-8.3v-3c0-6.7-3.4-10-10.2-10H1372.3z M1414.3,691.9c-5.8,0-8.7,2.8-8.7,8.3v4.3c0,5.2,2.8,7.8,8.3,7.8h15.2
			c3,0,4.4,1.4,4.4,4.1v4.3c0,3-1.7,4.5-5.2,4.5H1406v4.6h23.9c6,0,8.9-2.8,8.9-8.4v-5.5c0-5.2-2.8-7.8-8.3-7.8h-15.2
			c-3,0-4.5-1.4-4.5-4.1v-3c0-3,1.6-4.5,4.9-4.5h21.5v-4.6H1414.3z M1444.4,691.9l12.9,37.9h5.2l11.8-32l11.5,32h5.2l13.1-37.9h-5.4
			l-10.5,31.1l-11.3-31.1h-5.2l-11.7,31.1l-10.2-31.1H1444.4z M1522.3,691.9c-7.9,0-11.8,4-11.8,12.1v13.6c0,8.1,3.9,12.1,11.8,12.1
			h22.2v-5.2H1523c-4.8,0-7.3-2.5-7.3-7.5v-13c0-5.1,2.5-7.7,7.5-7.7h11.5c4,0,6,1.9,6,5.8v1.7c0,3.3-2,5-5.9,5h-16.1v4.3h17.6
			c6.4,0,9.6-2.8,9.6-8.3v-3c0-6.7-3.4-10-10.2-10H1522.3z M1557,676.3v53.5h5.3v-32.6h18c5,0,7.5,2.6,7.5,7.7v24.9h5.3V704
			c0-8.1-3.9-12.1-11.8-12.1h-19v-15.6H1557z M1616.3,692c-7.9,0-11.8,4-11.8,12.1v25.7h5.3V705c0-5.2,2.5-7.8,7.5-7.8h9.3V692
			H1616.3z"/>
		<path class="st0" d="M565.1,684.4h4.7v-7.8h-4.7V684.4z M570.4,685h-5.9V676h5.9V685z M1175.6,724.1h19.5c4.7,0,7-2.2,7-6.6v-5.6
			c0-4.2-2.5-6.2-7.5-6.2h-16.7v-5.5h16.7c4.9,0,7.2-1.9,7.2-5.8v-4.6c0-4.8-2.3-7.2-7-7.2h-19.2V724.1z M1195.1,724.7H1175v-42.7
			h19.8c5.1,0,7.6,2.6,7.6,7.8v4.6c0,4.3-2.6,6.4-7.9,6.4h-16.1v4.2h16.1c5.4,0,8.2,2.3,8.2,6.8v5.6
			C1202.8,722.3,1200.2,724.7,1195.1,724.7 M416,697.5c-4.9,0-7.2,2.4-7.2,7.4v11.9c0,5,2.4,7.5,7.2,7.5h10.8c4.9,0,7.2-2.4,7.2-7.5
			v-11.9c0-5-2.4-7.4-7.2-7.4H416z M426.9,724.9H416c-5.2,0-7.9-2.7-7.9-8.1v-11.9c0-5.3,2.6-8,7.9-8h10.8c5.2,0,7.9,2.7,7.9,8v11.9
			C434.7,722.2,432.1,724.9,426.9,724.9 M481.6,697.5c-4.9,0-7.2,2.4-7.2,7.4v11.9c0,5,2.4,7.5,7.2,7.5h10.8c4.9,0,7.2-2.4,7.2-7.5
			v-11.9c0-5-2.4-7.4-7.2-7.4H481.6z M492.4,724.9h-10.8c-5.2,0-7.9-2.7-7.9-8.1v-11.9c0-5.3,2.6-8,7.9-8h10.8c5.2,0,7.9,2.7,7.9,8
			v11.9C500.3,722.2,497.6,724.9,492.4,724.9 M663.7,697.5c-4.9,0-7.2,2.4-7.2,7.4v11.9c0,5,2.4,7.5,7.2,7.5h10.8
			c4.9,0,7.2-2.4,7.2-7.5v-11.9c0-5-2.4-7.4-7.2-7.4H663.7z M674.5,724.9h-10.8c-5.2,0-7.9-2.7-7.9-8.1v-11.9c0-5.3,2.6-8,7.9-8
			h10.8c5.2,0,7.9,2.7,7.9,8v11.9C682.4,722.2,679.7,724.9,674.5,724.9 M194.5,729.5h4.9v-47.6h15.8v-4.8h-36.6v4.8h16V729.5z
			 M200,730.1h-6.1v-47.6h-16v-6.1h37.9v6.1H200V730.1z M232.6,692.2c-7.8,0-11.5,3.9-11.5,11.8v13.6c0,7.9,3.8,11.8,11.5,11.8h21.9
			V725h-21.2c-5,0-7.6-2.6-7.6-7.8v-13c0-5.3,2.6-8,7.8-8H245c4.2,0,6.3,2.1,6.3,6.1v1.7c0,3.5-2.1,5.3-6.2,5.3h-15.8v3.7h17.3
			c6.2,0,9.3-2.6,9.3-8v-3.1c0-6.5-3.2-9.7-9.8-9.7H232.6z M255.2,730.1h-22.5c-8.1,0-12.2-4.2-12.2-12.4V704
			c0-8.3,4.1-12.4,12.2-12.4h13.3c7,0,10.5,3.5,10.5,10.3v3.1c0,5.7-3.3,8.7-9.9,8.7h-17.9v-4.9h16.4c3.7,0,5.6-1.5,5.6-4.7v-1.7
			c0-3.7-1.8-5.5-5.6-5.5h-11.5c-4.8,0-7.2,2.4-7.2,7.4v13c0,4.8,2.3,7.2,6.9,7.2h21.9V730.1z M279,692.2c-7.8,0-11.5,3.9-11.5,11.8
			v13.6c0,7.9,3.8,11.8,11.5,11.8h16.6v-4.6H280c-5.2,0-7.9-2.7-7.9-8.1v-11.9c0-5.3,2.6-8,7.9-8h15.6v-4.7H279z M296.2,730.1H279
			c-8.1,0-12.2-4.2-12.2-12.4V704c0-8.3,4.1-12.4,12.2-12.4h17.2v5.9H280c-4.9,0-7.2,2.4-7.2,7.4v11.9c0,5,2.4,7.5,7.2,7.5h16.2
			V730.1z M338.3,729.5h4.7V704c0-7.9-3.8-11.8-11.5-11.8h-19.3v-15.6h-4.7v52.9h4.7v-32.6h18.3c5.2,0,7.9,2.7,7.9,8V729.5z
			 M343.6,730.1h-5.9v-25.2c0-5-2.4-7.4-7.2-7.4h-17.7v32.6h-5.9V676h5.9v15.6h18.7c8.1,0,12.1,4.2,12.1,12.4V730.1z M386.6,729.5
			h4.7V704c0-7.9-3.8-11.8-11.5-11.8h-24v37.3h4.7v-32.6h18.3c5.2,0,7.9,2.7,7.9,8V729.5z M391.9,730.1H386v-25.2
			c0-5-2.4-7.4-7.2-7.4H361v32.6h-5.9v-38.5h24.6c8.1,0,12.2,4.2,12.2,12.4V730.1z M415,692.2c-7.8,0-11.5,3.9-11.5,11.8v13.6
			c0,7.9,3.8,11.8,11.5,11.8h12.9c7.8,0,11.5-3.9,11.5-11.8V704c0-7.9-3.8-11.8-11.5-11.8H415z M427.9,730.1H415
			c-8.1,0-12.2-4.2-12.2-12.4V704c0-8.3,4.1-12.4,12.2-12.4h12.9c8.1,0,12.2,4.2,12.2,12.4v13.6C440,725.9,435.9,730.1,427.9,730.1
			 M451.9,729.5h4.7v-52.9h-4.7V729.5z M457.2,730.1h-5.9V676h5.9V730.1z M480.6,692.2c-7.8,0-11.5,3.9-11.5,11.8v13.6
			c0,7.9,3.8,11.8,11.5,11.8h12.8c7.8,0,11.5-3.9,11.5-11.8V704c0-7.9-3.8-11.8-11.5-11.8H480.6z M493.4,730.1h-12.8
			c-8.1,0-12.2-4.2-12.2-12.4V704c0-8.3,4.1-12.4,12.2-12.4h12.8c8.1,0,12.1,4.2,12.1,12.4v13.6
			C505.6,725.9,501.5,730.1,493.4,730.1 M565.1,729.5h4.7v-36.9h-4.7V729.5z M570.4,730.1h-5.9V692h5.9V730.1z M593.8,692.2
			c-7.8,0-11.5,3.9-11.5,11.8v13.6c0,7.9,3.8,11.8,11.5,11.8h21.9V725h-21.2c-5,0-7.6-2.6-7.6-7.8v-13c0-5.3,2.6-8,7.8-8h11.5
			c4.2,0,6.3,2.1,6.3,6.1v1.7c0,3.5-2.1,5.3-6.2,5.3h-15.8v3.7h17.3c6.2,0,9.3-2.6,9.3-8v-3.1c0-6.5-3.2-9.7-9.8-9.7H593.8z
			 M616.3,730.1h-22.5c-8.1,0-12.1-4.2-12.1-12.4V704c0-8.3,4.1-12.4,12.1-12.4h13.3c7,0,10.5,3.5,10.5,10.3v3.1
			c0,5.7-3.3,8.7-9.9,8.7h-17.9v-4.9h16.4c3.7,0,5.6-1.5,5.6-4.7v-1.7c0-3.7-1.8-5.5-5.6-5.5h-11.5c-4.8,0-7.2,2.4-7.2,7.4v13
			c0,4.8,2.3,7.2,6.9,7.2h21.9V730.1z M628.8,729.5h4.6v-33.2h8.4v-4.1h-8.4V686c0-3.7,1.8-5.5,5.4-5.5h3.3v-3.8h-4.4
			c-6,0-8.9,3-8.9,9.2V729.5z M634,730.1h-5.9v-44.3c0-6.5,3.2-9.8,9.5-9.8h5v5.1h-3.9c-3.2,0-4.8,1.6-4.8,4.9v5.6h8.4v5.3H634
			V730.1z M662.7,692.2c-7.8,0-11.5,3.9-11.5,11.8v13.6c0,7.9,3.8,11.8,11.5,11.8h12.8c7.8,0,11.5-3.9,11.5-11.8V704
			c0-7.9-3.8-11.8-11.5-11.8H662.7z M675.5,730.1h-12.8c-8.1,0-12.2-4.2-12.2-12.4V704c0-8.3,4.1-12.4,12.2-12.4h12.8
			c8.1,0,12.1,4.2,12.1,12.4v13.6C687.7,725.9,683.6,730.1,675.5,730.1 M699.6,729.5h4.7V705c0-5.4,2.6-8.1,7.8-8.1h9v-4.6h-9.9
			c-7.8,0-11.5,3.9-11.5,11.8V729.5z M704.9,730.1h-5.9v-26c0-8.3,4.1-12.4,12.2-12.4h10.6v5.9H712c-4.8,0-7.2,2.4-7.2,7.5V730.1z
			 M730.5,729.5h23.6c5.8,0,8.6-2.7,8.6-8.1v-5.5c0-5-2.6-7.5-8-7.5h-15.2c-3.2,0-4.8-1.5-4.8-4.5v-3c0-3.2,1.7-4.8,5.2-4.8H761
			v-3.9h-22.5c-5.7,0-8.4,2.6-8.4,8v4.3c0,5,2.6,7.5,8,7.5h15.2c3.1,0,4.7,1.5,4.7,4.5v4.3c0,3.2-1.8,4.8-5.5,4.8h-22.2V729.5z
			 M754.1,730.1h-24.2v-5.2h22.8c3.3,0,4.8-1.4,4.8-4.2v-4.3c0-2.6-1.3-3.8-4.1-3.8h-15.2c-5.7,0-8.7-2.7-8.7-8.1v-4.3
			c0-5.7,3-8.7,9-8.7h23.1v5.2h-21.8c-3.1,0-4.5,1.4-4.5,4.2v3c0,2.6,1.4,3.8,4.2,3.8h15.2c5.7,0,8.6,2.7,8.6,8.1v5.5
			C763.3,727.2,760.2,730.1,754.1,730.1 M785.1,692.2c-7.8,0-11.5,3.9-11.5,11.8v13.6c0,7.9,3.8,11.8,11.5,11.8h16.6v-4.6h-15.6
			c-5.2,0-7.9-2.7-7.9-8.1v-11.9c0-5.3,2.6-8,7.9-8h15.6v-4.7H785.1z M802.3,730.1h-17.2c-8.1,0-12.1-4.2-12.1-12.4V704
			c0-8.3,4.1-12.4,12.1-12.4h17.2v5.9h-16.2c-4.9,0-7.2,2.4-7.2,7.4v11.9c0,5,2.4,7.5,7.2,7.5h16.2V730.1z M844.4,729.5h4.7V704
			c0-7.9-3.8-11.8-11.5-11.8h-19.3v-15.6h-4.7v52.9h4.7v-32.6h18.3c5.2,0,7.9,2.7,7.9,8V729.5z M849.7,730.1h-5.9v-25.2
			c0-5-2.4-7.4-7.2-7.4h-17.7v32.6h-5.9V676h5.9v15.6h18.7c8.1,0,12.1,4.2,12.1,12.4V730.1z M861.1,692.3v25.4
			c0,7.9,3.8,11.8,11.5,11.8h12.3c7.8,0,11.5-3.9,11.5-11.8v-25.4h-4.6v24.5c0,5.4-2.6,8.1-7.9,8.1h-10.4c-5.2,0-7.8-2.7-7.8-8.1
			v-24.5H861.1z M884.9,730.1h-12.3c-8.1,0-12.1-4.2-12.1-12.4v-26h5.9v25.1c0,5,2.3,7.5,7.2,7.5h10.4c4.9,0,7.2-2.4,7.2-7.5v-25.1
			h5.9v26C897,725.9,893,730.1,884.9,730.1 M940,729.5h4.7V704c0-7.9-3.8-11.8-11.5-11.8h-24v37.3h4.7v-32.6h18.3
			c5.2,0,7.9,2.7,7.9,8V729.5z M945.3,730.1h-5.9v-25.2c0-5-2.4-7.4-7.2-7.4h-17.7v32.6h-5.9v-38.5h24.6c8.1,0,12.1,4.2,12.1,12.4
			V730.1z M1036.1,692.2c-7.8,0-11.5,3.9-11.5,11.8v13.6c0,7.9,3.8,11.8,11.5,11.8h12.5c7.7,0,11.5-3.9,11.5-11.8v-41.1h-4.7v40.2
			c0,5.4-2.6,8.1-7.9,8.1h-10.5c-5.2,0-7.9-2.7-7.9-8.1v-11.9c0-5.3,2.6-8,7.9-8h14.8v-4.7H1036.1z M1048.6,730.1h-12.5
			c-8.1,0-12.1-4.2-12.1-12.4V704c0-8.3,4.1-12.4,12.1-12.4h16.4v5.9h-15.4c-4.9,0-7.2,2.4-7.2,7.4v11.9c0,5,2.4,7.5,7.2,7.5h10.5
			c4.9,0,7.2-2.4,7.2-7.5V676h5.9v41.7C1060.8,725.9,1056.7,730.1,1048.6,730.1 M1083.5,692.2c-7.8,0-11.5,3.9-11.5,11.8v13.6
			c0,7.9,3.8,11.8,11.5,11.8h21.9V725h-21.2c-5,0-7.6-2.6-7.6-7.8v-13c0-5.3,2.6-8,7.8-8h11.5c4.2,0,6.3,2.1,6.3,6.1v1.7
			c0,3.5-2.1,5.3-6.2,5.3h-15.8v3.7h17.3c6.2,0,9.3-2.6,9.3-8v-3.1c0-6.5-3.2-9.7-9.8-9.7H1083.5z M1106.1,730.1h-22.5
			c-8.1,0-12.1-4.2-12.1-12.4V704c0-8.3,4.1-12.4,12.1-12.4h13.3c7,0,10.5,3.5,10.5,10.3v3.1c0,5.7-3.3,8.7-9.9,8.7h-17.9v-4.9h16.4
			c3.7,0,5.6-1.5,5.6-4.7v-1.7c0-3.7-1.8-5.5-5.6-5.5h-11.5c-4.8,0-7.2,2.4-7.2,7.4v13c0,4.8,2.3,7.2,6.9,7.2h21.9V730.1z
			 M1118.5,729.5h4.7V705c0-5.4,2.6-8.1,7.8-8.1h9v-4.6h-9.9c-7.8,0-11.5,3.9-11.5,11.8V729.5z M1123.8,730.1h-5.9v-26
			c0-8.3,4.1-12.4,12.1-12.4h10.6v5.9h-9.6c-4.8,0-7.2,2.4-7.2,7.5V730.1z M1170.1,729.5h26c7.8,0,11.6-3.6,11.6-11.2v-5.7
			c0-4.8-2-7.9-6-9.3l-0.8-0.3l0.8-0.3c1.9-0.7,3.3-1.9,4.2-3.4c0.9-1.5,1.4-3.4,1.4-5.6v-4.9c0-7.9-3.8-11.7-11.5-11.7h-25.6V729.5
			z M1196.1,730.1h-26.6v-53.6h26.2c8.1,0,12.1,4.2,12.1,12.4v4.9c0,2.3-0.5,4.3-1.5,5.9c-0.9,1.4-2.1,2.5-3.8,3.3
			c3.8,1.6,5.7,4.8,5.7,9.6v5.7C1208.3,726.2,1204.2,730.1,1196.1,730.1 M1218.3,692.3v25.4c0,7.9,3.8,11.8,11.5,11.8h12.3
			c7.8,0,11.5-3.9,11.5-11.8v-25.4h-4.6v24.5c0,5.4-2.6,8.1-7.9,8.1h-10.4c-5.2,0-7.8-2.7-7.8-8.1v-24.5H1218.3z M1242.1,730.1
			h-12.3c-8.1,0-12.1-4.2-12.1-12.4v-26h5.9v25.1c0,5,2.3,7.5,7.2,7.5h10.4c4.9,0,7.2-2.4,7.2-7.5v-25.1h5.9v26
			C1254.2,725.9,1250.2,730.1,1242.1,730.1 M1296.9,729.5h4.7V704c0-7.9-3.8-11.8-11.5-11.8h-24v37.3h4.7v-32.6h18.3
			c5.2,0,7.9,2.7,7.9,8V729.5z M1302.2,730.1h-5.9v-25.2c0-5-2.4-7.4-7.2-7.4h-17.7v32.6h-5.9v-38.5h24.6c8.1,0,12.1,4.2,12.1,12.4
			V730.1z M1324.9,692.2c-7.8,0-11.5,3.9-11.5,11.8v13.6c0,7.9,3.8,11.8,11.5,11.8h12.5c7.8,0,11.5-3.9,11.5-11.8v-41.1h-4.7v40.2
			c0,5.4-2.6,8.1-7.9,8.1h-10.5c-5.2,0-7.9-2.7-7.9-8.1v-11.9c0-5.3,2.6-8,7.9-8h14.8v-4.7H1324.9z M1337.4,730.1h-12.5
			c-8.1,0-12.1-4.2-12.1-12.4V704c0-8.3,4.1-12.4,12.1-12.4h16.4v5.9h-15.4c-4.9,0-7.2,2.4-7.2,7.4v11.9c0,5,2.4,7.5,7.2,7.5h10.5
			c4.9,0,7.2-2.4,7.2-7.5V676h5.9v41.7C1349.6,725.9,1345.5,730.1,1337.4,730.1 M1372.3,692.2c-7.7,0-11.5,3.9-11.5,11.8v13.6
			c0,7.9,3.8,11.8,11.5,11.8h21.9V725H1373c-5,0-7.6-2.6-7.6-7.8v-13c0-5.3,2.6-8,7.8-8h11.5c4.2,0,6.3,2.1,6.3,6.1v1.7
			c0,3.5-2.1,5.3-6.2,5.3h-15.8v3.7h17.3c6.2,0,9.3-2.6,9.3-8v-3.1c0-6.5-3.2-9.7-9.8-9.7H1372.3z M1394.9,730.1h-22.5
			c-8.1,0-12.1-4.2-12.1-12.4V704c0-8.3,4.1-12.4,12.1-12.4h13.3c7,0,10.5,3.5,10.5,10.3v3.1c0,5.7-3.3,8.7-9.9,8.7h-17.9v-4.9h16.4
			c3.7,0,5.6-1.5,5.6-4.7v-1.7c0-3.7-1.8-5.5-5.6-5.5h-11.5c-4.8,0-7.2,2.4-7.2,7.4v13c0,4.8,2.3,7.2,6.9,7.2h21.9V730.1z
			 M1406.3,729.5h23.6c5.8,0,8.6-2.7,8.6-8.1v-5.5c0-5-2.6-7.5-8-7.5h-15.2c-3.2,0-4.8-1.5-4.8-4.5v-3c0-3.2,1.7-4.8,5.2-4.8h21.2
			v-3.9h-22.5c-5.7,0-8.4,2.6-8.4,8v4.3c0,5,2.6,7.5,8,7.5h15.2c3.1,0,4.7,1.5,4.7,4.5v4.3c0,3.2-1.8,4.8-5.5,4.8h-22.2V729.5z
			 M1429.8,730.1h-24.2v-5.2h22.8c3.3,0,4.8-1.4,4.8-4.2v-4.3c0-2.6-1.3-3.8-4.1-3.8h-15.2c-5.7,0-8.7-2.7-8.7-8.1v-4.3
			c0-5.7,3-8.7,9-8.7h23.1v5.2h-21.8c-3.1,0-4.5,1.4-4.5,4.2v3c0,2.6,1.4,3.8,4.2,3.8h15.2c5.7,0,8.6,2.7,8.6,8.1v5.5
			C1439.1,727.2,1436,730.1,1429.8,730.1 M1486.1,729.5h4.8l12.8-37.3h-4.7l-10.7,31.8l-11.6-31.8h-4.8l-11.9,31.7l-10.4-31.7h-4.8
			l12.7,37.3h4.7l12.1-32.6L1486.1,729.5z M1491.3,730.1h-5.7l-0.1-0.2l-11.3-31.2l-11.6,31.4h-5.6l-0.1-0.2l-13.1-38.3h6.1l10,30.4
			l11.5-30.4h5.7l0.1,0.2l11,30.3l10.2-30.5h6l-0.1,0.4L1491.3,730.1z M1522.3,692.2c-7.7,0-11.5,3.9-11.5,11.8v13.6
			c0,7.9,3.8,11.8,11.5,11.8h21.9V725H1523c-5,0-7.6-2.6-7.6-7.8v-13c0-5.3,2.6-8,7.8-8h11.5c4.2,0,6.3,2.1,6.3,6.1v1.7
			c0,3.5-2.1,5.3-6.2,5.3h-15.8v3.7h17.3c6.2,0,9.3-2.6,9.3-8v-3.1c0-6.5-3.2-9.7-9.8-9.7H1522.3z M1544.9,730.1h-22.5
			c-8.1,0-12.1-4.2-12.1-12.4V704c0-8.3,4.1-12.4,12.1-12.4h13.3c7,0,10.5,3.5,10.5,10.3v3.1c0,5.7-3.3,8.7-9.9,8.7h-17.9v-4.9h16.4
			c3.7,0,5.6-1.5,5.6-4.7v-1.7c0-3.7-1.8-5.5-5.6-5.5h-11.5c-4.8,0-7.2,2.4-7.2,7.4v13c0,4.8,2.3,7.2,6.9,7.2h21.9V730.1z
			 M1588.1,729.5h4.7V704c0-7.9-3.8-11.8-11.5-11.8h-19.3v-15.6h-4.7v52.9h4.7v-32.6h18.3c5.2,0,7.9,2.7,7.9,8V729.5z M1593.4,730.1
			h-5.9v-25.2c0-5-2.4-7.4-7.2-7.4h-17.7v32.6h-5.9V676h5.9v15.6h18.7c8.1,0,12.1,4.2,12.1,12.4V730.1z M1604.8,729.5h4.7V705
			c0-5.4,2.6-8.1,7.8-8.1h9v-4.6h-9.9c-7.8,0-11.5,3.9-11.5,11.8V729.5z M1610.1,730.1h-5.9v-26c0-8.3,4.1-12.4,12.1-12.4h10.6v5.9
			h-9.6c-4.8,0-7.2,2.4-7.2,7.5V730.1z M523.9,742.3h17c7.8,0,11.5-4.1,11.5-12.5V704c0-7.9-3.8-11.8-11.5-11.8h-12.5
			c-7.8,0-11.5,3.9-11.5,11.8v12.1c0,7.5,3.8,11.1,11.5,11.1h15.8v-4.3h-14.8c-5.2,0-7.9-2.5-7.9-7.6v-10.4c0-5.3,2.6-8,7.9-8H540
			c5.2,0,7.9,2.7,7.9,8v24.3c0,5.7-2.6,8.6-7.9,8.6h-16V742.3z M541,743h-17.7v-5.8H540c4.9,0,7.2-2.6,7.2-8v-24.3
			c0-5-2.4-7.4-7.2-7.4h-10.5c-4.9,0-7.2,2.4-7.2,7.4v10.4c0,4.7,2.4,6.9,7.2,6.9h15.4v5.6h-16.4c-8.1,0-12.2-3.9-12.2-11.7V704
			c0-8.3,4.1-12.4,12.2-12.4H541c8.1,0,12.2,4.2,12.2,12.4v25.8C553.1,738.5,549,743,541,743 M963.9,742.3h17
			c7.8,0,11.5-4.1,11.5-12.5V704c0-7.9-3.8-11.8-11.5-11.8h-12.5c-7.8,0-11.5,3.9-11.5,11.8v12.1c0,7.5,3.8,11.1,11.5,11.1h15.8
			v-4.3h-14.8c-5.2,0-7.9-2.5-7.9-7.6v-10.4c0-5.3,2.6-8,7.9-8h10.5c5.2,0,7.9,2.7,7.9,8v24.3c0,5.7-2.6,8.6-7.9,8.6h-16V742.3z
			 M980.9,743h-17.7v-5.8h16.6c4.9,0,7.2-2.6,7.2-8v-24.3c0-5-2.4-7.4-7.2-7.4h-10.5c-4.9,0-7.2,2.4-7.2,7.4v10.4
			c0,4.7,2.4,6.9,7.2,6.9h15.4v5.6h-16.4c-8.1,0-12.1-3.9-12.1-11.7V704c0-8.3,4.1-12.4,12.1-12.4h12.5c8.1,0,12.1,4.2,12.1,12.4
			v25.8C993.1,738.5,989,743,980.9,743"/>
		<path class="st0" d="M178.2,676.8v5.4h16v47.6h5.5v-47.6h15.8v-5.4H178.2z M232.6,691.9c-7.9,0-11.8,4-11.8,12.1v13.6
			c0,8.1,3.9,12.1,11.8,12.1h22.2v-5.2h-21.6c-4.8,0-7.3-2.5-7.3-7.5v-13c0-5.1,2.5-7.7,7.5-7.7H245c4,0,6,1.9,6,5.8v1.7
			c0,3.3-2,5-5.9,5h-16.1v4.3h17.6c6.4,0,9.6-2.8,9.6-8.3v-3c0-6.7-3.4-10-10.2-10H232.6z M279,691.9c-7.9,0-11.8,4-11.8,12.1v13.6
			c0,8.1,3.9,12.1,11.8,12.1h16.9v-5.2H280c-5,0-7.6-2.6-7.6-7.8v-11.9c0-5.1,2.5-7.7,7.6-7.7h15.9v-5.3H279z M307.1,676.3v53.5h5.3
			v-32.6h18c5,0,7.6,2.6,7.6,7.7v24.9h5.3V704c0-8.1-3.9-12.1-11.8-12.1h-19v-15.6H307.1z M355.4,691.9v37.9h5.3v-32.6h18
			c5,0,7.6,2.6,7.6,7.7v24.9h5.3V704c0-8.1-3.9-12.1-11.8-12.1H355.4z M415,691.9c-7.9,0-11.8,4-11.8,12.1v13.6
			c0,8.1,3.9,12.1,11.8,12.1h12.8c7.9,0,11.8-4,11.8-12.1V704c0-8.1-3.9-12.1-11.8-12.1H415z M408.5,704.9c0-5.1,2.5-7.7,7.6-7.7
			h10.8c5,0,7.6,2.6,7.6,7.7v11.9c0,5.2-2.5,7.8-7.6,7.8H416c-5,0-7.6-2.6-7.6-7.8V704.9z M451.6,729.8h5.3v-53.5h-5.3V729.8z
			 M480.6,691.9c-7.9,0-11.8,4-11.8,12.1v13.6c0,8.1,3.9,12.1,11.8,12.1h12.8c7.9,0,11.8-4,11.8-12.1V704c0-8.1-3.9-12.1-11.8-12.1
			H480.6z M474,704.9c0-5.1,2.5-7.7,7.6-7.7h10.8c5,0,7.6,2.6,7.6,7.7v11.9c0,5.2-2.5,7.8-7.6,7.8h-10.8c-5,0-7.6-2.6-7.6-7.8V704.9
			z M528.5,691.9c-7.9,0-11.8,4-11.8,12.1v12.1c0,7.6,3.9,11.4,11.8,11.4h16.1v-4.9h-15.1c-5,0-7.6-2.4-7.6-7.3v-10.4
			c0-5.1,2.5-7.7,7.6-7.7H540c5,0,7.6,2.6,7.6,7.7v24.3c0,5.5-2.5,8.3-7.6,8.3h-16.3v5.2H541c7.9,0,11.8-4.3,11.8-12.8V704
			c0-8.1-3.9-12.1-11.8-12.1H528.5z M564.8,729.8h5.3v-37.5h-5.3V729.8z M564.8,684.7h5.3v-8.4h-5.3V684.7z M593.8,691.9
			c-7.9,0-11.8,4-11.8,12.1v13.6c0,8.1,3.9,12.1,11.8,12.1H616v-5.2h-21.6c-4.8,0-7.3-2.5-7.3-7.5v-13c0-5.1,2.5-7.7,7.5-7.7h11.5
			c4,0,6,1.9,6,5.8v1.7c0,3.3-2,5-5.9,5h-16.1v4.3h17.6c6.4,0,9.6-2.8,9.6-8.3v-3c0-6.7-3.4-10-10.2-10H593.8z M637.7,676.3
			c-6.1,0-9.2,3.2-9.2,9.5v44h5.2v-33.2h8.4v-4.7h-8.4v-6c0-3.5,1.7-5.2,5.1-5.2h3.6v-4.4H637.7z M662.7,691.9
			c-7.9,0-11.8,4-11.8,12.1v13.6c0,8.1,3.9,12.1,11.8,12.1h12.8c7.9,0,11.8-4,11.8-12.1V704c0-8.1-3.9-12.1-11.8-12.1H662.7z
			 M656.1,704.9c0-5.1,2.5-7.7,7.5-7.7h10.8c5,0,7.6,2.6,7.6,7.7v11.9c0,5.2-2.5,7.8-7.6,7.8h-10.8c-5,0-7.5-2.6-7.5-7.8V704.9z
			 M711.1,692c-7.9,0-11.8,4-11.8,12.1v25.7h5.3V705c0-5.2,2.5-7.8,7.5-7.8h9.3V692H711.1z M738.5,691.9c-5.8,0-8.7,2.8-8.7,8.3v4.3
			c0,5.2,2.8,7.8,8.3,7.8h15.2c3,0,4.4,1.4,4.4,4.1v4.3c0,3-1.7,4.5-5.2,4.5h-22.5v4.6h23.9c6,0,8.9-2.8,8.9-8.4v-5.5
			c0-5.2-2.8-7.8-8.3-7.8h-15.2c-3,0-4.5-1.4-4.5-4.1v-3c0-3,1.6-4.5,4.9-4.5h21.5v-4.6H738.5z M785.1,691.9
			c-7.9,0-11.8,4-11.8,12.1v13.6c0,8.1,3.9,12.1,11.8,12.1H802v-5.2h-15.9c-5,0-7.6-2.6-7.6-7.8v-11.9c0-5.1,2.5-7.7,7.6-7.7H802
			v-5.3H785.1z M813.2,676.3v53.5h5.3v-32.6h18c5,0,7.6,2.6,7.6,7.7v24.9h5.3V704c0-8.1-3.9-12.1-11.8-12.1h-19v-15.6H813.2z
			 M860.8,692v25.7c0,8.1,3.9,12.1,11.8,12.1h12.3c7.9,0,11.8-4,11.8-12.1V692h-5.2v24.8c0,5.2-2.5,7.8-7.6,7.8h-10.4
			c-5,0-7.5-2.6-7.5-7.8V692H860.8z M908.9,691.9v37.9h5.3v-32.6h18c5,0,7.6,2.6,7.6,7.7v24.9h5.3V704c0-8.1-3.9-12.1-11.8-12.1
			H908.9z M968.5,691.9c-7.9,0-11.8,4-11.8,12.1v12.1c0,7.6,3.9,11.4,11.8,11.4h16.1v-4.9h-15.1c-5,0-7.6-2.4-7.6-7.3v-10.4
			c0-5.1,2.5-7.7,7.6-7.7h10.5c5,0,7.6,2.6,7.6,7.7v24.3c0,5.5-2.5,8.3-7.6,8.3h-16.3v5.2h17.4c7.9,0,11.8-4.3,11.8-12.8V704
			c0-8.1-3.9-12.1-11.8-12.1H968.5z M1055.1,676.3v40.5c0,5.2-2.5,7.8-7.6,7.8h-10.5c-5,0-7.6-2.6-7.6-7.8v-11.9
			c0-5.1,2.5-7.7,7.6-7.7h15.1v-5.3h-16.1c-7.9,0-11.8,4-11.8,12.1v13.6c0,8.1,3.9,12.1,11.8,12.1h12.5c7.9,0,11.8-4,11.8-12.1
			v-41.4H1055.1z M1083.5,691.9c-7.9,0-11.8,4-11.8,12.1v13.6c0,8.1,3.9,12.1,11.8,12.1h22.2v-5.2h-21.6c-4.8,0-7.3-2.5-7.3-7.5v-13
			c0-5.1,2.5-7.7,7.5-7.7h11.5c4,0,6,1.9,6,5.8v1.7c0,3.3-2,5-5.9,5h-16.1v4.3h17.6c6.4,0,9.6-2.8,9.6-8.3v-3c0-6.7-3.4-10-10.2-10
			H1083.5z M1130,692c-7.9,0-11.8,4-11.8,12.1v25.7h5.3V705c0-5.2,2.5-7.8,7.5-7.8h9.3V692H1130z M1169.8,676.8v53h26.3
			c7.9,0,11.9-3.8,11.9-11.5v-5.7c0-4.9-2.1-8.1-6.2-9.6c1.9-0.8,3.4-1.9,4.3-3.5c0.9-1.5,1.4-3.5,1.4-5.7v-4.9
			c0-8-3.9-12.1-11.8-12.1H1169.8z M1175.3,682.3h19.5c4.9,0,7.3,2.5,7.3,7.5v4.6c0,4.1-2.5,6.1-7.6,6.1h-16.4v4.9h16.4
			c5.2,0,7.8,2.2,7.8,6.5v5.6c0,4.6-2.4,6.9-7.3,6.9h-19.8V682.3z M1218,692v25.7c0,8.1,3.9,12.1,11.8,12.1h12.3
			c7.9,0,11.8-4,11.8-12.1V692h-5.2v24.8c0,5.2-2.5,7.8-7.6,7.8h-10.4c-5,0-7.5-2.6-7.5-7.8V692H1218z M1265.7,691.9v37.9h5.3v-32.6
			h18c5,0,7.6,2.6,7.6,7.7v24.9h5.3V704c0-8.1-3.9-12.1-11.8-12.1H1265.7z M1344,676.3v40.5c0,5.2-2.5,7.8-7.6,7.8h-10.5
			c-5,0-7.6-2.6-7.6-7.8v-11.9c0-5.1,2.5-7.7,7.6-7.7h15.1v-5.3h-16.1c-7.9,0-11.8,4-11.8,12.1v13.6c0,8.1,3.9,12.1,11.8,12.1h12.5
			c7.9,0,11.8-4,11.8-12.1v-41.4H1344z M1372.3,691.9c-7.9,0-11.8,4-11.8,12.1v13.6c0,8.1,3.9,12.1,11.8,12.1h22.2v-5.2H1373
			c-4.8,0-7.3-2.5-7.3-7.5v-13c0-5.1,2.5-7.7,7.5-7.7h11.5c4,0,6,1.9,6,5.8v1.7c0,3.3-2,5-5.9,5h-16.1v4.3h17.6
			c6.4,0,9.6-2.8,9.6-8.3v-3c0-6.7-3.4-10-10.2-10H1372.3z M1414.3,691.9c-5.8,0-8.7,2.8-8.7,8.3v4.3c0,5.2,2.8,7.8,8.3,7.8h15.2
			c3,0,4.4,1.4,4.4,4.1v4.3c0,3-1.7,4.5-5.2,4.5H1406v4.6h23.9c6,0,8.9-2.8,8.9-8.4v-5.5c0-5.2-2.8-7.8-8.3-7.8h-15.2
			c-3,0-4.5-1.4-4.5-4.1v-3c0-3,1.6-4.5,4.9-4.5h21.5v-4.6H1414.3z M1444.4,691.9l12.9,37.9h5.2l11.8-32l11.5,32h5.2l13.1-37.9h-5.4
			l-10.5,31.1l-11.3-31.1h-5.2l-11.7,31.1l-10.2-31.1H1444.4z M1522.3,691.9c-7.9,0-11.8,4-11.8,12.1v13.6c0,8.1,3.9,12.1,11.8,12.1
			h22.2v-5.2H1523c-4.8,0-7.3-2.5-7.3-7.5v-13c0-5.1,2.5-7.7,7.5-7.7h11.5c4,0,6,1.9,6,5.8v1.7c0,3.3-2,5-5.9,5h-16.1v4.3h17.6
			c6.4,0,9.6-2.8,9.6-8.3v-3c0-6.7-3.4-10-10.2-10H1522.3z M1557,676.3v53.5h5.3v-32.6h18c5,0,7.5,2.6,7.5,7.7v24.9h5.3V704
			c0-8.1-3.9-12.1-11.8-12.1h-19v-15.6H1557z M1616.3,692c-7.9,0-11.8,4-11.8,12.1v25.7h5.3V705c0-5.2,2.5-7.8,7.5-7.8h9.3V692
			H1616.3z"/>
		<path class="st0" d="M565.1,684.4h4.7v-7.8h-4.7V684.4z M570.4,685h-5.9V676h5.9V685z M1175.6,724.1h19.5c4.7,0,7-2.2,7-6.6v-5.6
			c0-4.2-2.5-6.2-7.5-6.2h-16.7v-5.5h16.7c4.9,0,7.2-1.9,7.2-5.8v-4.6c0-4.8-2.3-7.2-7-7.2h-19.2V724.1z M1195.1,724.7H1175v-42.7
			h19.8c5.1,0,7.6,2.6,7.6,7.8v4.6c0,4.3-2.6,6.4-7.9,6.4h-16.1v4.2h16.1c5.4,0,8.2,2.3,8.2,6.8v5.6
			C1202.8,722.3,1200.2,724.7,1195.1,724.7 M416,697.5c-4.9,0-7.2,2.4-7.2,7.4v11.9c0,5,2.4,7.5,7.2,7.5h10.8c4.9,0,7.2-2.4,7.2-7.5
			v-11.9c0-5-2.4-7.4-7.2-7.4H416z M426.9,724.9H416c-5.2,0-7.9-2.7-7.9-8.1v-11.9c0-5.3,2.6-8,7.9-8h10.8c5.2,0,7.9,2.7,7.9,8v11.9
			C434.7,722.2,432.1,724.9,426.9,724.9 M481.6,697.5c-4.9,0-7.2,2.4-7.2,7.4v11.9c0,5,2.4,7.5,7.2,7.5h10.8c4.9,0,7.2-2.4,7.2-7.5
			v-11.9c0-5-2.4-7.4-7.2-7.4H481.6z M492.4,724.9h-10.8c-5.2,0-7.9-2.7-7.9-8.1v-11.9c0-5.3,2.6-8,7.9-8h10.8c5.2,0,7.9,2.7,7.9,8
			v11.9C500.3,722.2,497.6,724.9,492.4,724.9 M663.7,697.5c-4.9,0-7.2,2.4-7.2,7.4v11.9c0,5,2.4,7.5,7.2,7.5h10.8
			c4.9,0,7.2-2.4,7.2-7.5v-11.9c0-5-2.4-7.4-7.2-7.4H663.7z M674.5,724.9h-10.8c-5.2,0-7.9-2.7-7.9-8.1v-11.9c0-5.3,2.6-8,7.9-8
			h10.8c5.2,0,7.9,2.7,7.9,8v11.9C682.4,722.2,679.7,724.9,674.5,724.9 M194.5,729.5h4.9v-47.6h15.8v-4.8h-36.6v4.8h16V729.5z
			 M200,730.1h-6.1v-47.6h-16v-6.1h37.9v6.1H200V730.1z M232.6,692.2c-7.8,0-11.5,3.9-11.5,11.8v13.6c0,7.9,3.8,11.8,11.5,11.8h21.9
			V725h-21.2c-5,0-7.6-2.6-7.6-7.8v-13c0-5.3,2.6-8,7.8-8H245c4.2,0,6.3,2.1,6.3,6.1v1.7c0,3.5-2.1,5.3-6.2,5.3h-15.8v3.7h17.3
			c6.2,0,9.3-2.6,9.3-8v-3.1c0-6.5-3.2-9.7-9.8-9.7H232.6z M255.2,730.1h-22.5c-8.1,0-12.2-4.2-12.2-12.4V704
			c0-8.3,4.1-12.4,12.2-12.4h13.3c7,0,10.5,3.5,10.5,10.3v3.1c0,5.7-3.3,8.7-9.9,8.7h-17.9v-4.9h16.4c3.7,0,5.6-1.5,5.6-4.7v-1.7
			c0-3.7-1.8-5.5-5.6-5.5h-11.5c-4.8,0-7.2,2.4-7.2,7.4v13c0,4.8,2.3,7.2,6.9,7.2h21.9V730.1z M279,692.2c-7.8,0-11.5,3.9-11.5,11.8
			v13.6c0,7.9,3.8,11.8,11.5,11.8h16.6v-4.6H280c-5.2,0-7.9-2.7-7.9-8.1v-11.9c0-5.3,2.6-8,7.9-8h15.6v-4.7H279z M296.2,730.1H279
			c-8.1,0-12.2-4.2-12.2-12.4V704c0-8.3,4.1-12.4,12.2-12.4h17.2v5.9H280c-4.9,0-7.2,2.4-7.2,7.4v11.9c0,5,2.4,7.5,7.2,7.5h16.2
			V730.1z M338.3,729.5h4.7V704c0-7.9-3.8-11.8-11.5-11.8h-19.3v-15.6h-4.7v52.9h4.7v-32.6h18.3c5.2,0,7.9,2.7,7.9,8V729.5z
			 M343.6,730.1h-5.9v-25.2c0-5-2.4-7.4-7.2-7.4h-17.7v32.6h-5.9V676h5.9v15.6h18.7c8.1,0,12.1,4.2,12.1,12.4V730.1z M386.6,729.5
			h4.7V704c0-7.9-3.8-11.8-11.5-11.8h-24v37.3h4.7v-32.6h18.3c5.2,0,7.9,2.7,7.9,8V729.5z M391.9,730.1H386v-25.2
			c0-5-2.4-7.4-7.2-7.4H361v32.6h-5.9v-38.5h24.6c8.1,0,12.2,4.2,12.2,12.4V730.1z M415,692.2c-7.8,0-11.5,3.9-11.5,11.8v13.6
			c0,7.9,3.8,11.8,11.5,11.8h12.9c7.8,0,11.5-3.9,11.5-11.8V704c0-7.9-3.8-11.8-11.5-11.8H415z M427.9,730.1H415
			c-8.1,0-12.2-4.2-12.2-12.4V704c0-8.3,4.1-12.4,12.2-12.4h12.9c8.1,0,12.2,4.2,12.2,12.4v13.6C440,725.9,435.9,730.1,427.9,730.1
			 M451.9,729.5h4.7v-52.9h-4.7V729.5z M457.2,730.1h-5.9V676h5.9V730.1z M480.6,692.2c-7.8,0-11.5,3.9-11.5,11.8v13.6
			c0,7.9,3.8,11.8,11.5,11.8h12.8c7.8,0,11.5-3.9,11.5-11.8V704c0-7.9-3.8-11.8-11.5-11.8H480.6z M493.4,730.1h-12.8
			c-8.1,0-12.2-4.2-12.2-12.4V704c0-8.3,4.1-12.4,12.2-12.4h12.8c8.1,0,12.1,4.2,12.1,12.4v13.6
			C505.6,725.9,501.5,730.1,493.4,730.1 M565.1,729.5h4.7v-36.9h-4.7V729.5z M570.4,730.1h-5.9V692h5.9V730.1z M593.8,692.2
			c-7.8,0-11.5,3.9-11.5,11.8v13.6c0,7.9,3.8,11.8,11.5,11.8h21.9V725h-21.2c-5,0-7.6-2.6-7.6-7.8v-13c0-5.3,2.6-8,7.8-8h11.5
			c4.2,0,6.3,2.1,6.3,6.1v1.7c0,3.5-2.1,5.3-6.2,5.3h-15.8v3.7h17.3c6.2,0,9.3-2.6,9.3-8v-3.1c0-6.5-3.2-9.7-9.8-9.7H593.8z
			 M616.3,730.1h-22.5c-8.1,0-12.1-4.2-12.1-12.4V704c0-8.3,4.1-12.4,12.1-12.4h13.3c7,0,10.5,3.5,10.5,10.3v3.1
			c0,5.7-3.3,8.7-9.9,8.7h-17.9v-4.9h16.4c3.7,0,5.6-1.5,5.6-4.7v-1.7c0-3.7-1.8-5.5-5.6-5.5h-11.5c-4.8,0-7.2,2.4-7.2,7.4v13
			c0,4.8,2.3,7.2,6.9,7.2h21.9V730.1z M628.8,729.5h4.6v-33.2h8.4v-4.1h-8.4V686c0-3.7,1.8-5.5,5.4-5.5h3.3v-3.8h-4.4
			c-6,0-8.9,3-8.9,9.2V729.5z M634,730.1h-5.9v-44.3c0-6.5,3.2-9.8,9.5-9.8h5v5.1h-3.9c-3.2,0-4.8,1.6-4.8,4.9v5.6h8.4v5.3H634
			V730.1z M662.7,692.2c-7.8,0-11.5,3.9-11.5,11.8v13.6c0,7.9,3.8,11.8,11.5,11.8h12.8c7.8,0,11.5-3.9,11.5-11.8V704
			c0-7.9-3.8-11.8-11.5-11.8H662.7z M675.5,730.1h-12.8c-8.1,0-12.2-4.2-12.2-12.4V704c0-8.3,4.1-12.4,12.2-12.4h12.8
			c8.1,0,12.1,4.2,12.1,12.4v13.6C687.7,725.9,683.6,730.1,675.5,730.1 M699.6,729.5h4.7V705c0-5.4,2.6-8.1,7.8-8.1h9v-4.6h-9.9
			c-7.8,0-11.5,3.9-11.5,11.8V729.5z M704.9,730.1h-5.9v-26c0-8.3,4.1-12.4,12.2-12.4h10.6v5.9H712c-4.8,0-7.2,2.4-7.2,7.5V730.1z
			 M730.5,729.5h23.6c5.8,0,8.6-2.7,8.6-8.1v-5.5c0-5-2.6-7.5-8-7.5h-15.2c-3.2,0-4.8-1.5-4.8-4.5v-3c0-3.2,1.7-4.8,5.2-4.8H761
			v-3.9h-22.5c-5.7,0-8.4,2.6-8.4,8v4.3c0,5,2.6,7.5,8,7.5h15.2c3.1,0,4.7,1.5,4.7,4.5v4.3c0,3.2-1.8,4.8-5.5,4.8h-22.2V729.5z
			 M754.1,730.1h-24.2v-5.2h22.8c3.3,0,4.8-1.4,4.8-4.2v-4.3c0-2.6-1.3-3.8-4.1-3.8h-15.2c-5.7,0-8.7-2.7-8.7-8.1v-4.3
			c0-5.7,3-8.7,9-8.7h23.1v5.2h-21.8c-3.1,0-4.5,1.4-4.5,4.2v3c0,2.6,1.4,3.8,4.2,3.8h15.2c5.7,0,8.6,2.7,8.6,8.1v5.5
			C763.3,727.2,760.2,730.1,754.1,730.1 M785.1,692.2c-7.8,0-11.5,3.9-11.5,11.8v13.6c0,7.9,3.8,11.8,11.5,11.8h16.6v-4.6h-15.6
			c-5.2,0-7.9-2.7-7.9-8.1v-11.9c0-5.3,2.6-8,7.9-8h15.6v-4.7H785.1z M802.3,730.1h-17.2c-8.1,0-12.1-4.2-12.1-12.4V704
			c0-8.3,4.1-12.4,12.1-12.4h17.2v5.9h-16.2c-4.9,0-7.2,2.4-7.2,7.4v11.9c0,5,2.4,7.5,7.2,7.5h16.2V730.1z M844.4,729.5h4.7V704
			c0-7.9-3.8-11.8-11.5-11.8h-19.3v-15.6h-4.7v52.9h4.7v-32.6h18.3c5.2,0,7.9,2.7,7.9,8V729.5z M849.7,730.1h-5.9v-25.2
			c0-5-2.4-7.4-7.2-7.4h-17.7v32.6h-5.9V676h5.9v15.6h18.7c8.1,0,12.1,4.2,12.1,12.4V730.1z M861.1,692.3v25.4
			c0,7.9,3.8,11.8,11.5,11.8h12.3c7.8,0,11.5-3.9,11.5-11.8v-25.4h-4.6v24.5c0,5.4-2.6,8.1-7.9,8.1h-10.4c-5.2,0-7.8-2.7-7.8-8.1
			v-24.5H861.1z M884.9,730.1h-12.3c-8.1,0-12.1-4.2-12.1-12.4v-26h5.9v25.1c0,5,2.3,7.5,7.2,7.5h10.4c4.9,0,7.2-2.4,7.2-7.5v-25.1
			h5.9v26C897,725.9,893,730.1,884.9,730.1 M940,729.5h4.7V704c0-7.9-3.8-11.8-11.5-11.8h-24v37.3h4.7v-32.6h18.3
			c5.2,0,7.9,2.7,7.9,8V729.5z M945.3,730.1h-5.9v-25.2c0-5-2.4-7.4-7.2-7.4h-17.7v32.6h-5.9v-38.5h24.6c8.1,0,12.1,4.2,12.1,12.4
			V730.1z M1036.1,692.2c-7.8,0-11.5,3.9-11.5,11.8v13.6c0,7.9,3.8,11.8,11.5,11.8h12.5c7.7,0,11.5-3.9,11.5-11.8v-41.1h-4.7v40.2
			c0,5.4-2.6,8.1-7.9,8.1h-10.5c-5.2,0-7.9-2.7-7.9-8.1v-11.9c0-5.3,2.6-8,7.9-8h14.8v-4.7H1036.1z M1048.6,730.1h-12.5
			c-8.1,0-12.1-4.2-12.1-12.4V704c0-8.3,4.1-12.4,12.1-12.4h16.4v5.9h-15.4c-4.9,0-7.2,2.4-7.2,7.4v11.9c0,5,2.4,7.5,7.2,7.5h10.5
			c4.9,0,7.2-2.4,7.2-7.5V676h5.9v41.7C1060.8,725.9,1056.7,730.1,1048.6,730.1 M1083.5,692.2c-7.8,0-11.5,3.9-11.5,11.8v13.6
			c0,7.9,3.8,11.8,11.5,11.8h21.9V725h-21.2c-5,0-7.6-2.6-7.6-7.8v-13c0-5.3,2.6-8,7.8-8h11.5c4.2,0,6.3,2.1,6.3,6.1v1.7
			c0,3.5-2.1,5.3-6.2,5.3h-15.8v3.7h17.3c6.2,0,9.3-2.6,9.3-8v-3.1c0-6.5-3.2-9.7-9.8-9.7H1083.5z M1106.1,730.1h-22.5
			c-8.1,0-12.1-4.2-12.1-12.4V704c0-8.3,4.1-12.4,12.1-12.4h13.3c7,0,10.5,3.5,10.5,10.3v3.1c0,5.7-3.3,8.7-9.9,8.7h-17.9v-4.9h16.4
			c3.7,0,5.6-1.5,5.6-4.7v-1.7c0-3.7-1.8-5.5-5.6-5.5h-11.5c-4.8,0-7.2,2.4-7.2,7.4v13c0,4.8,2.3,7.2,6.9,7.2h21.9V730.1z
			 M1118.5,729.5h4.7V705c0-5.4,2.6-8.1,7.8-8.1h9v-4.6h-9.9c-7.8,0-11.5,3.9-11.5,11.8V729.5z M1123.8,730.1h-5.9v-26
			c0-8.3,4.1-12.4,12.1-12.4h10.6v5.9h-9.6c-4.8,0-7.2,2.4-7.2,7.5V730.1z M1170.1,729.5h26c7.8,0,11.6-3.6,11.6-11.2v-5.7
			c0-4.8-2-7.9-6-9.3l-0.8-0.3l0.8-0.3c1.9-0.7,3.3-1.9,4.2-3.4c0.9-1.5,1.4-3.4,1.4-5.6v-4.9c0-7.9-3.8-11.7-11.5-11.7h-25.6V729.5
			z M1196.1,730.1h-26.6v-53.6h26.2c8.1,0,12.1,4.2,12.1,12.4v4.9c0,2.3-0.5,4.3-1.5,5.9c-0.9,1.4-2.1,2.5-3.8,3.3
			c3.8,1.6,5.7,4.8,5.7,9.6v5.7C1208.3,726.2,1204.2,730.1,1196.1,730.1 M1218.3,692.3v25.4c0,7.9,3.8,11.8,11.5,11.8h12.3
			c7.8,0,11.5-3.9,11.5-11.8v-25.4h-4.6v24.5c0,5.4-2.6,8.1-7.9,8.1h-10.4c-5.2,0-7.8-2.7-7.8-8.1v-24.5H1218.3z M1242.1,730.1
			h-12.3c-8.1,0-12.1-4.2-12.1-12.4v-26h5.9v25.1c0,5,2.3,7.5,7.2,7.5h10.4c4.9,0,7.2-2.4,7.2-7.5v-25.1h5.9v26
			C1254.2,725.9,1250.2,730.1,1242.1,730.1 M1296.9,729.5h4.7V704c0-7.9-3.8-11.8-11.5-11.8h-24v37.3h4.7v-32.6h18.3
			c5.2,0,7.9,2.7,7.9,8V729.5z M1302.2,730.1h-5.9v-25.2c0-5-2.4-7.4-7.2-7.4h-17.7v32.6h-5.9v-38.5h24.6c8.1,0,12.1,4.2,12.1,12.4
			V730.1z M1324.9,692.2c-7.8,0-11.5,3.9-11.5,11.8v13.6c0,7.9,3.8,11.8,11.5,11.8h12.5c7.8,0,11.5-3.9,11.5-11.8v-41.1h-4.7v40.2
			c0,5.4-2.6,8.1-7.9,8.1h-10.5c-5.2,0-7.9-2.7-7.9-8.1v-11.9c0-5.3,2.6-8,7.9-8h14.8v-4.7H1324.9z M1337.4,730.1h-12.5
			c-8.1,0-12.1-4.2-12.1-12.4V704c0-8.3,4.1-12.4,12.1-12.4h16.4v5.9h-15.4c-4.9,0-7.2,2.4-7.2,7.4v11.9c0,5,2.4,7.5,7.2,7.5h10.5
			c4.9,0,7.2-2.4,7.2-7.5V676h5.9v41.7C1349.6,725.9,1345.5,730.1,1337.4,730.1 M1372.3,692.2c-7.7,0-11.5,3.9-11.5,11.8v13.6
			c0,7.9,3.8,11.8,11.5,11.8h21.9V725H1373c-5,0-7.6-2.6-7.6-7.8v-13c0-5.3,2.6-8,7.8-8h11.5c4.2,0,6.3,2.1,6.3,6.1v1.7
			c0,3.5-2.1,5.3-6.2,5.3h-15.8v3.7h17.3c6.2,0,9.3-2.6,9.3-8v-3.1c0-6.5-3.2-9.7-9.8-9.7H1372.3z M1394.9,730.1h-22.5
			c-8.1,0-12.1-4.2-12.1-12.4V704c0-8.3,4.1-12.4,12.1-12.4h13.3c7,0,10.5,3.5,10.5,10.3v3.1c0,5.7-3.3,8.7-9.9,8.7h-17.9v-4.9h16.4
			c3.7,0,5.6-1.5,5.6-4.7v-1.7c0-3.7-1.8-5.5-5.6-5.5h-11.5c-4.8,0-7.2,2.4-7.2,7.4v13c0,4.8,2.3,7.2,6.9,7.2h21.9V730.1z
			 M1406.3,729.5h23.6c5.8,0,8.6-2.7,8.6-8.1v-5.5c0-5-2.6-7.5-8-7.5h-15.2c-3.2,0-4.8-1.5-4.8-4.5v-3c0-3.2,1.7-4.8,5.2-4.8h21.2
			v-3.9h-22.5c-5.7,0-8.4,2.6-8.4,8v4.3c0,5,2.6,7.5,8,7.5h15.2c3.1,0,4.7,1.5,4.7,4.5v4.3c0,3.2-1.8,4.8-5.5,4.8h-22.2V729.5z
			 M1429.8,730.1h-24.2v-5.2h22.8c3.3,0,4.8-1.4,4.8-4.2v-4.3c0-2.6-1.3-3.8-4.1-3.8h-15.2c-5.7,0-8.7-2.7-8.7-8.1v-4.3
			c0-5.7,3-8.7,9-8.7h23.1v5.2h-21.8c-3.1,0-4.5,1.4-4.5,4.2v3c0,2.6,1.4,3.8,4.2,3.8h15.2c5.7,0,8.6,2.7,8.6,8.1v5.5
			C1439.1,727.2,1436,730.1,1429.8,730.1 M1486.1,729.5h4.8l12.8-37.3h-4.7l-10.7,31.8l-11.6-31.8h-4.8l-11.9,31.7l-10.4-31.7h-4.8
			l12.7,37.3h4.7l12.1-32.6L1486.1,729.5z M1491.3,730.1h-5.7l-0.1-0.2l-11.3-31.2l-11.6,31.4h-5.6l-0.1-0.2l-13.1-38.3h6.1l10,30.4
			l11.5-30.4h5.7l0.1,0.2l11,30.3l10.2-30.5h6l-0.1,0.4L1491.3,730.1z M1522.3,692.2c-7.7,0-11.5,3.9-11.5,11.8v13.6
			c0,7.9,3.8,11.8,11.5,11.8h21.9V725H1523c-5,0-7.6-2.6-7.6-7.8v-13c0-5.3,2.6-8,7.8-8h11.5c4.2,0,6.3,2.1,6.3,6.1v1.7
			c0,3.5-2.1,5.3-6.2,5.3h-15.8v3.7h17.3c6.2,0,9.3-2.6,9.3-8v-3.1c0-6.5-3.2-9.7-9.8-9.7H1522.3z M1544.9,730.1h-22.5
			c-8.1,0-12.1-4.2-12.1-12.4V704c0-8.3,4.1-12.4,12.1-12.4h13.3c7,0,10.5,3.5,10.5,10.3v3.1c0,5.7-3.3,8.7-9.9,8.7h-17.9v-4.9h16.4
			c3.7,0,5.6-1.5,5.6-4.7v-1.7c0-3.7-1.8-5.5-5.6-5.5h-11.5c-4.8,0-7.2,2.4-7.2,7.4v13c0,4.8,2.3,7.2,6.9,7.2h21.9V730.1z
			 M1588.1,729.5h4.7V704c0-7.9-3.8-11.8-11.5-11.8h-19.3v-15.6h-4.7v52.9h4.7v-32.6h18.3c5.2,0,7.9,2.7,7.9,8V729.5z M1593.4,730.1
			h-5.9v-25.2c0-5-2.4-7.4-7.2-7.4h-17.7v32.6h-5.9V676h5.9v15.6h18.7c8.1,0,12.1,4.2,12.1,12.4V730.1z M1604.8,729.5h4.7V705
			c0-5.4,2.6-8.1,7.8-8.1h9v-4.6h-9.9c-7.8,0-11.5,3.9-11.5,11.8V729.5z M1610.1,730.1h-5.9v-26c0-8.3,4.1-12.4,12.1-12.4h10.6v5.9
			h-9.6c-4.8,0-7.2,2.4-7.2,7.5V730.1z M523.9,742.3h17c7.8,0,11.5-4.1,11.5-12.5V704c0-7.9-3.8-11.8-11.5-11.8h-12.5
			c-7.8,0-11.5,3.9-11.5,11.8v12.1c0,7.5,3.8,11.1,11.5,11.1h15.8v-4.3h-14.8c-5.2,0-7.9-2.5-7.9-7.6v-10.4c0-5.3,2.6-8,7.9-8H540
			c5.2,0,7.9,2.7,7.9,8v24.3c0,5.7-2.6,8.6-7.9,8.6h-16V742.3z M541,743h-17.7v-5.8H540c4.9,0,7.2-2.6,7.2-8v-24.3
			c0-5-2.4-7.4-7.2-7.4h-10.5c-4.9,0-7.2,2.4-7.2,7.4v10.4c0,4.7,2.4,6.9,7.2,6.9h15.4v5.6h-16.4c-8.1,0-12.2-3.9-12.2-11.7V704
			c0-8.3,4.1-12.4,12.2-12.4H541c8.1,0,12.2,4.2,12.2,12.4v25.8C553.1,738.5,549,743,541,743 M963.9,742.3h17
			c7.8,0,11.5-4.1,11.5-12.5V704c0-7.9-3.8-11.8-11.5-11.8h-12.5c-7.8,0-11.5,3.9-11.5,11.8v12.1c0,7.5,3.8,11.1,11.5,11.1h15.8
			v-4.3h-14.8c-5.2,0-7.9-2.5-7.9-7.6v-10.4c0-5.3,2.6-8,7.9-8h10.5c5.2,0,7.9,2.7,7.9,8v24.3c0,5.7-2.6,8.6-7.9,8.6h-16V742.3z
			 M980.9,743h-17.7v-5.8h16.6c4.9,0,7.2-2.6,7.2-8v-24.3c0-5-2.4-7.4-7.2-7.4h-10.5c-4.9,0-7.2,2.4-7.2,7.4v10.4
			c0,4.7,2.4,6.9,7.2,6.9h15.4v5.6h-16.4c-8.1,0-12.1-3.9-12.1-11.7V704c0-8.3,4.1-12.4,12.1-12.4h12.5c8.1,0,12.1,4.2,12.1,12.4
			v25.8C993.1,738.5,989,743,980.9,743"/>
		<path class="st0" d="M180.2,585.3v5.4h29.7l-29.8,41.9v5.7h37.2v-5.4h-30.4l30.1-42.6v-4.9H180.2z M239.3,600.4
			c-7.9,0-11.8,4-11.8,12.1v13.6c0,8.1,3.9,12.1,11.8,12.1h22.2v-5.2H240c-4.8,0-7.3-2.5-7.3-7.5v-13c0-5.1,2.5-7.7,7.5-7.7h11.5
			c4,0,6,1.9,6,5.8v1.7c0,3.3-2,5-5.9,5h-16.1v4.3h17.6c6.4,0,9.6-2.8,9.6-8.3v-3c0-6.7-3.4-10-10.2-10H239.3z M274.5,600.4v37.9
			h5.3v-32.6h18c5,0,7.6,2.6,7.6,7.7v24.9h5.3v-25.8c0-8.1-3.9-12.1-11.8-12.1H274.5z M327.5,588v12.3h-7.1v4.7h7.1v33.2h5.3v-33.2
			h8.2v-4.7h-8.2V588H327.5z M361.9,600.4c-7.9,0-11.8,4-11.8,12.1v25.7h5.3v-24.8c0-5.2,2.5-7.8,7.5-7.8h9.3v-5.2H361.9z
			 M381.9,600.4v25.7c0,8.1,3.9,12.1,11.8,12.1H406c7.9,0,11.8-4,11.8-12.1v-25.7h-5.2v24.8c0,5.2-2.5,7.8-7.6,7.8h-10.4
			c-5,0-7.5-2.6-7.5-7.8v-24.8H381.9z M430.1,600.4v37.9h5.2v-32.7h20v32.7h5.1v-32.7H473c4.9,0,7.4,2.6,7.4,7.8v24.9h5.3v-25.8
			c0-8.1-3.9-12.1-11.7-12.1H430.1z M527.4,584.8c-6.1,0-9.2,3.2-9.2,9.5v44h5.2v-33.2h8.4v-4.7h-8.4v-6c0-3.5,1.7-5.2,5.1-5.2h3.6
			v-4.4H527.4z M541.7,600.4v25.7c0,8.1,3.9,12.1,11.8,12.1h12.3c7.9,0,11.8-4,11.8-12.1v-25.7h-5.2v24.8c0,5.2-2.5,7.8-7.6,7.8
			h-10.4c-5,0-7.5-2.6-7.5-7.8v-24.8H541.7z M563.9,592.4h4.9V584h-4.9V592.4z M550.5,592.4h4.9V584h-4.9V592.4z M601.7,600.4
			c-7.9,0-11.8,4-11.8,12.1v25.7h5.3v-24.8c0-5.2,2.5-7.8,7.5-7.8h9.3v-5.2H601.7z M642.5,585.3v53h5.5v-47.6h19.8c6,0,9,3,9,9.1
			v23.8c0,6.1-3,9.1-9,9.1H651v5.4h17.5c9.3,0,13.9-4.7,13.9-14.2v-24.5c0-9.5-4.6-14.2-13.9-14.2H642.5z M694.5,638.3h5.3v-37.5
			h-5.3V638.3z M694.5,593.2h5.3v-8.4h-5.3V593.2z M723.6,600.4c-7.9,0-11.8,4-11.8,12.1v12.1c0,7.6,3.9,11.4,11.8,11.4h16.1V631
			h-15.1c-5,0-7.6-2.4-7.6-7.3v-10.4c0-5.1,2.5-7.7,7.6-7.7H735c5,0,7.6,2.6,7.6,7.7v24.3c0,5.5-2.5,8.3-7.6,8.3h-16.3v5.2h17.4
			c7.9,0,11.8-4.3,11.8-12.8v-25.8c0-8.1-3.9-12.1-11.8-12.1H723.6z M760,638.3h5.3v-37.5H760V638.3z M760,593.2h5.3v-8.4H760V593.2
			z M782.4,588v12.3h-7.1v4.7h7.1v33.2h5.3v-33.2h8.2v-4.7h-8.2V588H782.4z M806.3,600.4v5.2H828c4.8,0,7.2,2.5,7.2,7.5v13
			c0,5.1-2.5,7.7-7.4,7.7h-11.5c-4,0-6-1.9-6-5.8v-1.7c0-3.3,2-5,5.9-5h16.1v-4.3h-17.5c-6.4,0-9.6,2.8-9.6,8.4v3
			c0,6.7,3.4,10,10.1,10h13.4c7.9,0,11.8-4,11.8-12.1v-13.6c0-8.1-3.9-12.1-11.8-12.1H806.3z M852.4,638.3h5.3v-53.5h-5.3V638.3z
			 M870.2,638.3h5.3v-37.5h-5.3V638.3z M870.2,593.2h5.3v-8.4h-5.3V593.2z M895.3,600.4c-5.8,0-8.7,2.8-8.7,8.3v4.3
			c0,5.2,2.8,7.8,8.3,7.8h15.2c3,0,4.4,1.4,4.4,4.1v4.3c0,3-1.7,4.5-5.2,4.5H887v4.6h23.9c6,0,8.9-2.8,8.9-8.4v-5.5
			c0-5.2-2.8-7.8-8.3-7.8h-15.2c-3,0-4.5-1.4-4.5-4.1v-3c0-3,1.6-4.5,4.9-4.5h21.5v-4.6H895.3z M930.7,638.3h5.3v-37.5h-5.3V638.3z
			 M930.7,593.2h5.3v-8.4h-5.3V593.2z M959.8,600.4c-7.9,0-11.8,4-11.8,12.1v13.6c0,8.1,3.9,12.1,11.8,12.1H982v-5.2h-21.6
			c-4.8,0-7.3-2.5-7.3-7.5v-13c0-5.1,2.5-7.7,7.5-7.7h11.5c4,0,6,1.9,6,5.8v1.7c0,3.3-2,5-5.9,5h-16.1v4.3h17.6
			c6.4,0,9.6-2.8,9.6-8.3v-3c0-6.7-3.4-10-10.2-10H959.8z M1006.8,600.4c-7.9,0-11.8,4-11.8,12.1v25.7h5.3v-24.8
			c0-5.2,2.5-7.8,7.5-7.8h9.3v-5.2H1006.8z M1026.8,600.4v25.7c0,8.1,3.9,12.1,11.8,12.1h12.3c7.9,0,11.8-4,11.8-12.1v-25.7h-5.2
			v24.8c0,5.2-2.5,7.8-7.6,7.8h-10.4c-5,0-7.5-2.6-7.5-7.8v-24.8H1026.8z M1075,600.4v37.9h5.3v-32.6h18c5,0,7.6,2.6,7.6,7.7v24.9
			h5.3v-25.8c0-8.1-3.9-12.1-11.8-12.1H1075z M1134.7,600.4c-7.9,0-11.8,4-11.8,12.1v12.1c0,7.6,3.9,11.4,11.8,11.4h16.1V631h-15.1
			c-5,0-7.6-2.4-7.6-7.3v-10.4c0-5.1,2.5-7.7,7.6-7.7h10.5c5,0,7.6,2.6,7.6,7.7v24.3c0,5.5-2.5,8.3-7.6,8.3h-16.3v5.2h17.4
			c7.9,0,11.8-4.3,11.8-12.8v-25.8c0-8.1-3.9-12.1-11.8-12.1H1134.7z M1178.5,600.4c-5.8,0-8.7,2.8-8.7,8.3v4.3
			c0,5.2,2.8,7.8,8.3,7.8h15.2c3,0,4.4,1.4,4.4,4.1v4.3c0,3-1.7,4.5-5.2,4.5h-22.5v4.6h23.9c6,0,8.9-2.8,8.9-8.4v-5.5
			c0-5.2-2.8-7.8-8.3-7.8h-15.2c-3,0-4.5-1.4-4.5-4.1v-3c0-3,1.6-4.5,4.9-4.5h21.5v-4.6H1178.5z M1211.1,617.4h20.8v-4.5h-20.8
			V617.4z M1261.9,600.4v25.7c0,8.1,3.9,12.1,11.8,12.1h12.3c7.9,0,11.8-4,11.8-12.1v-25.7h-5.2v24.8c0,5.2-2.5,7.8-7.6,7.8h-10.4
			c-5,0-7.5-2.6-7.5-7.8v-24.8H1261.9z M1310.1,600.4v37.9h5.3v-32.6h18c5,0,7.6,2.6,7.6,7.7v24.9h5.3v-25.8
			c0-8.1-3.9-12.1-11.8-12.1H1310.1z M1388.9,584.8v40.5c0,5.2-2.5,7.8-7.6,7.8h-10.5c-5,0-7.6-2.6-7.6-7.8v-11.9
			c0-5.1,2.5-7.7,7.6-7.7h15.1v-5.3h-16.1c-7.9,0-11.8,4-11.8,12.1v13.6c0,8.1,3.9,12.1,11.8,12.1h12.5c7.9,0,11.8-4,11.8-12.1
			v-41.4H1388.9z"/>
		<path class="st0" d="M550.8,592.1h4.3v-7.8h-4.3V592.1z M555.7,592.7h-5.6v-9.1h5.6V592.7z M564.2,592.1h4.3v-7.8h-4.3V592.1z
			 M569.2,592.7h-5.6v-9.1h5.6V592.7z M694.8,592.9h4.7v-7.8h-4.7V592.9z M700.1,593.5h-5.9v-9.1h5.9V593.5z M760.3,592.9h4.7v-7.8
			h-4.7V592.9z M765.6,593.5h-5.9v-9.1h5.9V593.5z M870.5,592.9h4.7v-7.8h-4.7V592.9z M875.8,593.5h-5.9v-9.1h5.9V593.5z M931,592.9
			h4.7v-7.8H931V592.9z M936.3,593.5h-5.9v-9.1h5.9V593.5z M1211.4,617.1h20.1v-3.9h-20.1V617.1z M1232.2,617.7h-21.4v-5.1h21.4
			V617.7z M180.4,638h36.5v-4.8h-30.7l0.4-0.5l30.1-42.5v-4.5h-36.2v4.8h30l-0.4,0.5l-29.7,41.8V638z M217.6,638.6h-37.8v-6.1
			l0.1-0.1l29.4-41.4h-29.4V585h37.4v5.4l-0.1,0.1l-29.8,42.1h30.1V638.6z M239.3,600.7c-7.8,0-11.5,3.9-11.5,11.8v13.6
			c0,7.9,3.8,11.8,11.5,11.8h21.9v-4.5H240c-5,0-7.6-2.6-7.6-7.8v-13c0-5.3,2.6-8,7.8-8h11.5c4.2,0,6.3,2.1,6.3,6.1v1.7
			c0,3.5-2.1,5.3-6.2,5.3h-15.8v3.7h17.3c6.2,0,9.3-2.6,9.3-8v-3.1c0-6.5-3.2-9.7-9.8-9.7H239.3z M261.9,638.6h-22.5
			c-8.1,0-12.2-4.2-12.2-12.4v-13.6c0-8.3,4.1-12.4,12.2-12.4h13.3c7,0,10.5,3.5,10.5,10.3v3.1c0,5.7-3.3,8.7-9.9,8.7h-17.9v-4.9
			h16.4c3.7,0,5.6-1.5,5.6-4.7v-1.7c0-3.7-1.8-5.5-5.6-5.5h-11.5c-4.8,0-7.2,2.4-7.2,7.4v13c0,4.8,2.3,7.2,6.9,7.2h21.9V638.6z
			 M305.6,638h4.7v-25.5c0-7.9-3.8-11.8-11.5-11.8h-24V638h4.7v-32.6h18.3c5.2,0,7.9,2.7,7.9,8V638z M310.9,638.6H305v-25.2
			c0-5-2.4-7.4-7.2-7.4h-17.7v32.6h-5.9v-38.5h24.6c8.1,0,12.2,4.2,12.2,12.4V638.6z M327.8,638h4.7v-33.2h8.2v-4.1h-8.2v-12.3h-4.7
			v12.3h-7.1v4.1h7.1V638z M333.1,638.6h-5.9v-33.2H320v-5.3h7.1v-12.3h5.9v12.3h8.2v5.3h-8.2V638.6z M350.4,638h4.7v-24.5
			c0-5.4,2.6-8.1,7.8-8.1h9v-4.6h-9.9c-7.8,0-11.5,3.9-11.5,11.8V638z M355.7,638.6h-5.9v-26c0-8.3,4.1-12.4,12.2-12.4h10.6v5.9
			h-9.6c-4.8,0-7.2,2.4-7.2,7.5V638.6z M382.2,600.8v25.4c0,7.9,3.8,11.8,11.5,11.8H406c7.8,0,11.5-3.9,11.5-11.8v-25.4h-4.6v24.5
			c0,5.4-2.6,8.1-7.9,8.1h-10.4c-5.2,0-7.8-2.7-7.8-8.1v-24.5H382.2z M406,638.6h-12.3c-8.1,0-12.2-4.2-12.2-12.4v-26h5.9v25.1
			c0,5,2.3,7.5,7.2,7.5h10.4c4.9,0,7.2-2.4,7.2-7.5v-25.1h5.9v26C418.2,634.4,414.1,638.6,406,638.6 M480.7,638h4.7v-25.5
			c0-7.9-3.7-11.8-11.4-11.8h-43.6V638h4.6v-32.7h20.7V638h4.4v-32.7H473c5.1,0,7.7,2.7,7.7,8.1V638z M486,638.6h-5.9v-25.2
			c0-5-2.3-7.5-7.1-7.5h-12.2v32.7h-5.7v-32.7h-19.4v32.7h-5.9v-38.5H474c8,0,12,4.2,12,12.4V638.6z M518.5,638h4.6v-33.2h8.4v-4.1
			h-8.4v-6.3c0-3.7,1.8-5.5,5.4-5.5h3.3v-3.8h-4.4c-6,0-8.9,3-8.9,9.2V638z M523.7,638.6h-5.9v-44.3c0-6.5,3.2-9.8,9.5-9.8h5v5.1
			h-3.9c-3.2,0-4.8,1.6-4.8,4.9v5.6h8.4v5.3h-8.4V638.6z M542,600.8v25.4c0,7.9,3.8,11.8,11.5,11.8h12.3c7.8,0,11.5-3.9,11.5-11.8
			v-25.4h-4.6v24.5c0,5.4-2.6,8.1-7.9,8.1h-10.4c-5.2,0-7.8-2.7-7.8-8.1v-24.5H542z M565.8,638.6h-12.3c-8.1,0-12.1-4.2-12.1-12.4
			v-26h5.9v25.1c0,5,2.3,7.5,7.2,7.5h10.4c4.9,0,7.2-2.4,7.2-7.5v-25.1h5.9v26C578,634.4,573.9,638.6,565.8,638.6 M590.2,638h4.7
			v-24.5c0-5.4,2.6-8.1,7.8-8.1h9v-4.6h-9.9c-7.8,0-11.5,3.9-11.5,11.8V638z M595.5,638.6h-5.9v-26c0-8.3,4.1-12.4,12.1-12.4h10.6
			v5.9h-9.6c-4.8,0-7.2,2.4-7.2,7.5V638.6z M651.3,638h17.2c9.2,0,13.6-4.6,13.6-13.9v-24.5c0-9.4-4.5-13.9-13.6-13.9h-25.6V638h4.9
			v-47.6h20.1c6.2,0,9.3,3.2,9.3,9.5v23.8c0,6.3-3.1,9.5-9.3,9.5h-16.6V638z M668.5,638.6h-17.8v-6.1h17.2c5.8,0,8.7-2.9,8.7-8.8
			v-23.8c0-5.9-2.8-8.8-8.7-8.8h-19.5v47.6h-6.1V585h26.2c9.5,0,14.3,4.9,14.3,14.5V624C682.7,633.7,677.9,638.6,668.5,638.6
			 M694.8,638h4.7v-36.9h-4.7V638z M700.1,638.6h-5.9v-38.2h5.9V638.6z M760.3,638h4.7v-36.9h-4.7V638z M765.6,638.6h-5.9v-38.2h5.9
			V638.6z M782.7,638h4.7v-33.2h8.2v-4.1h-8.2v-12.3h-4.7v12.3h-7.1v4.1h7.1V638z M788,638.6h-5.9v-33.2H775v-5.3h7.1v-12.3h5.9
			v12.3h8.2v5.3H788V638.6z M814.8,617.2c-6.2,0-9.3,2.7-9.3,8.1v3c0,6.5,3.2,9.7,9.8,9.7h13.4c7.8,0,11.5-3.9,11.5-11.8v-13.6
			c0-7.9-3.8-11.8-11.5-11.8h-22v4.5H828c5,0,7.5,2.6,7.5,7.8v13c0,5.3-2.6,8-7.7,8h-11.5c-4.2,0-6.3-2.1-6.3-6.1v-1.7
			c0-3.5,2.1-5.3,6.2-5.3h15.8v-3.7H814.8z M828.6,638.6h-13.4c-6.9,0-10.4-3.5-10.4-10.3v-3c0-5.8,3.3-8.7,9.9-8.7h17.8v4.9h-16.4
			c-3.7,0-5.6,1.5-5.6,4.7v1.7c0,3.7,1.8,5.5,5.6,5.5h11.5c4.8,0,7.1-2.4,7.1-7.4v-13c0-4.8-2.2-7.2-6.9-7.2h-22v-5.8h22.6
			c8.1,0,12.2,4.2,12.2,12.4v13.6C840.8,634.4,836.7,638.6,828.6,638.6 M852.8,638h4.7v-52.9h-4.7V638z M858.1,638.6h-5.9v-54.1h5.9
			V638.6z M870.5,638h4.7v-36.9h-4.7V638z M875.8,638.6h-5.9v-38.2h5.9V638.6z M887.3,638h23.6c5.8,0,8.6-2.7,8.6-8.1v-5.5
			c0-5-2.6-7.5-8-7.5h-15.2c-3.2,0-4.8-1.5-4.8-4.5v-3c0-3.2,1.7-4.8,5.2-4.8h21.2v-3.9h-22.5c-5.6,0-8.4,2.6-8.4,8v4.3
			c0,5,2.6,7.5,8,7.5h15.2c3.1,0,4.7,1.5,4.7,4.5v4.3c0,3.2-1.8,4.8-5.5,4.8h-22.2V638z M910.9,638.6h-24.2v-5.2h22.8
			c3.3,0,4.8-1.4,4.8-4.2v-4.3c0-2.6-1.3-3.8-4.1-3.8H895c-5.7,0-8.7-2.7-8.7-8.1v-4.3c0-5.8,3-8.7,9-8.7h23.1v5.2h-21.8
			c-3.1,0-4.6,1.4-4.6,4.2v3c0,2.6,1.4,3.8,4.2,3.8h15.2c5.7,0,8.6,2.7,8.6,8.1v5.5C920.1,635.6,917,638.6,910.9,638.6 M931,638h4.7
			v-36.9H931V638z M936.3,638.6h-5.9v-38.2h5.9V638.6z M959.8,600.7c-7.8,0-11.5,3.9-11.5,11.8v13.6c0,7.9,3.8,11.8,11.5,11.8h21.9
			v-4.5h-21.2c-5,0-7.6-2.6-7.6-7.8v-13c0-5.3,2.6-8,7.8-8h11.5c4.2,0,6.3,2.1,6.3,6.1v1.7c0,3.5-2.1,5.3-6.2,5.3h-15.8v3.7h17.3
			c6.2,0,9.3-2.6,9.3-8v-3.1c0-6.5-3.2-9.7-9.9-9.7H959.8z M982.3,638.6h-22.5c-8.1,0-12.1-4.2-12.1-12.4v-13.6
			c0-8.3,4.1-12.4,12.1-12.4h13.3c7,0,10.5,3.5,10.5,10.3v3.1c0,5.7-3.3,8.7-9.9,8.7h-17.9v-4.9h16.4c3.7,0,5.6-1.5,5.6-4.7v-1.7
			c0-3.7-1.8-5.5-5.6-5.5h-11.5c-4.8,0-7.2,2.4-7.2,7.4v13c0,4.8,2.3,7.2,6.9,7.2h21.9V638.6z M995.3,638h4.7v-24.5
			c0-5.4,2.6-8.1,7.8-8.1h9v-4.6h-9.9c-7.7,0-11.5,3.9-11.5,11.8V638z M1000.6,638.6h-5.9v-26c0-8.3,4.1-12.4,12.1-12.4h10.6v5.9
			h-9.6c-4.8,0-7.2,2.4-7.2,7.5V638.6z M1027.1,600.8v25.4c0,7.9,3.8,11.8,11.5,11.8h12.3c7.8,0,11.5-3.9,11.5-11.8v-25.4h-4.6v24.5
			c0,5.4-2.6,8.1-7.9,8.1h-10.4c-5.2,0-7.8-2.7-7.8-8.1v-24.5H1027.1z M1050.9,638.6h-12.3c-8.1,0-12.1-4.2-12.1-12.4v-26h5.9v25.1
			c0,5,2.3,7.5,7.2,7.5h10.4c4.9,0,7.2-2.4,7.2-7.5v-25.1h5.9v26C1063,634.4,1058.9,638.6,1050.9,638.6 M1106.1,638h4.7v-25.5
			c0-7.9-3.8-11.8-11.5-11.8h-24V638h4.7v-32.6h18.3c5.2,0,7.9,2.7,7.9,8V638z M1111.4,638.6h-5.9v-25.2c0-5-2.4-7.4-7.2-7.4h-17.7
			v32.6h-5.9v-38.5h24.6c8.1,0,12.1,4.2,12.1,12.4V638.6z M1170.5,638h23.6c5.8,0,8.6-2.7,8.6-8.1v-5.5c0-5-2.6-7.5-8-7.5h-15.2
			c-3.2,0-4.8-1.5-4.8-4.5v-3c0-3.2,1.7-4.8,5.2-4.8h21.2v-3.9h-22.5c-5.7,0-8.4,2.6-8.4,8v4.3c0,5,2.6,7.5,8,7.5h15.2
			c3.1,0,4.7,1.5,4.7,4.5v4.3c0,3.2-1.8,4.8-5.5,4.8h-22.2V638z M1194,638.6h-24.2v-5.2h22.8c3.3,0,4.8-1.4,4.8-4.2v-4.3
			c0-2.6-1.3-3.8-4.1-3.8h-15.2c-5.7,0-8.7-2.7-8.7-8.1v-4.3c0-5.8,3-8.7,9-8.7h23.1v5.2h-21.8c-3.1,0-4.6,1.4-4.6,4.2v3
			c0,2.6,1.4,3.8,4.2,3.8h15.2c5.7,0,8.6,2.7,8.6,8.1v5.5C1203.3,635.6,1200.2,638.6,1194,638.6 M1262.2,600.8v25.4
			c0,7.9,3.8,11.8,11.5,11.8h12.3c7.8,0,11.5-3.9,11.5-11.8v-25.4h-4.6v24.5c0,5.4-2.6,8.1-7.9,8.1h-10.4c-5.2,0-7.8-2.7-7.8-8.1
			v-24.5H1262.2z M1286,638.6h-12.3c-8.1,0-12.1-4.2-12.1-12.4v-26h5.9v25.1c0,5,2.3,7.5,7.2,7.5h10.4c4.9,0,7.2-2.4,7.2-7.5v-25.1
			h5.9v26C1298.2,634.4,1294.1,638.6,1286,638.6 M1341.3,638h4.7v-25.5c0-7.9-3.8-11.8-11.5-11.8h-24V638h4.7v-32.6h18.3
			c5.2,0,7.9,2.7,7.9,8V638z M1346.6,638.6h-5.9v-25.2c0-5-2.4-7.4-7.2-7.4h-17.7v32.6h-5.9v-38.5h24.6c8.1,0,12.1,4.2,12.1,12.4
			V638.6z M1369.9,600.7c-7.8,0-11.5,3.9-11.5,11.8v13.6c0,7.9,3.8,11.8,11.5,11.8h12.5c7.7,0,11.5-3.9,11.5-11.8v-41.1h-4.7v40.2
			c0,5.4-2.6,8.1-7.9,8.1h-10.5c-5.2,0-7.9-2.7-7.9-8.1v-11.9c0-5.3,2.6-8,7.9-8h14.8v-4.7H1369.9z M1382.4,638.6h-12.5
			c-8.1,0-12.1-4.2-12.1-12.4v-13.6c0-8.3,4.1-12.4,12.1-12.4h16.4v5.9h-15.4c-4.9,0-7.2,2.4-7.2,7.4v11.9c0,5,2.4,7.5,7.2,7.5h10.5
			c4.9,0,7.2-2.4,7.2-7.5v-40.8h5.9v41.7C1394.5,634.4,1390.4,638.6,1382.4,638.6 M719,650.8h17c7.8,0,11.5-4.1,11.5-12.5v-25.8
			c0-7.9-3.8-11.8-11.5-11.8h-12.5c-7.8,0-11.5,3.9-11.5,11.8v12.1c0,7.5,3.8,11.1,11.5,11.1h15.8v-4.3h-14.8
			c-5.2,0-7.9-2.5-7.9-7.6v-10.4c0-5.3,2.6-8,7.9-8H735c5.2,0,7.9,2.7,7.9,8v24.3c0,5.7-2.6,8.6-7.9,8.6h-16V650.8z M736.1,651.4
			h-17.7v-5.8H735c4.9,0,7.2-2.6,7.2-8v-24.3c0-5-2.4-7.4-7.2-7.4h-10.5c-4.9,0-7.2,2.4-7.2,7.4v10.4c0,4.7,2.4,6.9,7.2,6.9H740v5.6
			h-16.4c-8.1,0-12.2-3.9-12.2-11.7v-12.1c0-8.3,4.1-12.4,12.2-12.4h12.5c8.1,0,12.2,4.2,12.2,12.4v25.8
			C748.2,647,744.1,651.4,736.1,651.4 M1130.2,650.8h17c7.7,0,11.5-4.1,11.5-12.5v-25.8c0-7.9-3.8-11.8-11.5-11.8h-12.5
			c-7.8,0-11.5,3.9-11.5,11.8v12.1c0,7.5,3.8,11.1,11.5,11.1h15.8v-4.3h-14.8c-5.2,0-7.9-2.5-7.9-7.6v-10.4c0-5.3,2.6-8,7.9-8h10.5
			c5.2,0,7.9,2.7,7.9,8v24.3c0,5.7-2.6,8.6-7.9,8.6h-16V650.8z M1147.2,651.4h-17.7v-5.8h16.6c4.9,0,7.2-2.6,7.2-8v-24.3
			c0-5-2.4-7.4-7.2-7.4h-10.5c-4.9,0-7.2,2.4-7.2,7.4v10.4c0,4.7,2.4,6.9,7.2,6.9h15.4v5.6h-16.4c-8.1,0-12.1-3.9-12.1-11.7v-12.1
			c0-8.3,4.1-12.4,12.1-12.4h12.5c8.1,0,12.1,4.2,12.1,12.4v25.8C1159.4,647,1155.3,651.4,1147.2,651.4"/>
		<path class="st0" d="M180.2,585.3v5.4h29.7l-29.8,41.9v5.7h37.2v-5.4h-30.4l30.1-42.6v-4.9H180.2z M239.3,600.4
			c-7.9,0-11.8,4-11.8,12.1v13.6c0,8.1,3.9,12.1,11.8,12.1h22.2v-5.2H240c-4.8,0-7.3-2.5-7.3-7.5v-13c0-5.1,2.5-7.7,7.5-7.7h11.5
			c4,0,6,1.9,6,5.8v1.7c0,3.3-2,5-5.9,5h-16.1v4.3h17.6c6.4,0,9.6-2.8,9.6-8.3v-3c0-6.7-3.4-10-10.2-10H239.3z M274.5,600.4v37.9
			h5.3v-32.6h18c5,0,7.6,2.6,7.6,7.7v24.9h5.3v-25.8c0-8.1-3.9-12.1-11.8-12.1H274.5z M327.5,588v12.3h-7.1v4.7h7.1v33.2h5.3v-33.2
			h8.2v-4.7h-8.2V588H327.5z M361.9,600.4c-7.9,0-11.8,4-11.8,12.1v25.7h5.3v-24.8c0-5.2,2.5-7.8,7.5-7.8h9.3v-5.2H361.9z
			 M381.9,600.4v25.7c0,8.1,3.9,12.1,11.8,12.1H406c7.9,0,11.8-4,11.8-12.1v-25.7h-5.2v24.8c0,5.2-2.5,7.8-7.6,7.8h-10.4
			c-5,0-7.5-2.6-7.5-7.8v-24.8H381.9z M430.1,600.4v37.9h5.2v-32.7h20v32.7h5.1v-32.7H473c4.9,0,7.4,2.6,7.4,7.8v24.9h5.3v-25.8
			c0-8.1-3.9-12.1-11.7-12.1H430.1z M527.4,584.8c-6.1,0-9.2,3.2-9.2,9.5v44h5.2v-33.2h8.4v-4.7h-8.4v-6c0-3.5,1.7-5.2,5.1-5.2h3.6
			v-4.4H527.4z M541.7,600.4v25.7c0,8.1,3.9,12.1,11.8,12.1h12.3c7.9,0,11.8-4,11.8-12.1v-25.7h-5.2v24.8c0,5.2-2.5,7.8-7.6,7.8
			h-10.4c-5,0-7.5-2.6-7.5-7.8v-24.8H541.7z M563.9,592.4h4.9V584h-4.9V592.4z M550.5,592.4h4.9V584h-4.9V592.4z M601.7,600.4
			c-7.9,0-11.8,4-11.8,12.1v25.7h5.3v-24.8c0-5.2,2.5-7.8,7.5-7.8h9.3v-5.2H601.7z M642.5,585.3v53h5.5v-47.6h19.8c6,0,9,3,9,9.1
			v23.8c0,6.1-3,9.1-9,9.1H651v5.4h17.5c9.3,0,13.9-4.7,13.9-14.2v-24.5c0-9.5-4.6-14.2-13.9-14.2H642.5z M694.5,638.3h5.3v-37.5
			h-5.3V638.3z M694.5,593.2h5.3v-8.4h-5.3V593.2z M723.6,600.4c-7.9,0-11.8,4-11.8,12.1v12.1c0,7.6,3.9,11.4,11.8,11.4h16.1V631
			h-15.1c-5,0-7.6-2.4-7.6-7.3v-10.4c0-5.1,2.5-7.7,7.6-7.7H735c5,0,7.6,2.6,7.6,7.7v24.3c0,5.5-2.5,8.3-7.6,8.3h-16.3v5.2h17.4
			c7.9,0,11.8-4.3,11.8-12.8v-25.8c0-8.1-3.9-12.1-11.8-12.1H723.6z M760,638.3h5.3v-37.5H760V638.3z M760,593.2h5.3v-8.4H760V593.2
			z M782.4,588v12.3h-7.1v4.7h7.1v33.2h5.3v-33.2h8.2v-4.7h-8.2V588H782.4z M806.3,600.4v5.2H828c4.8,0,7.2,2.5,7.2,7.5v13
			c0,5.1-2.5,7.7-7.4,7.7h-11.5c-4,0-6-1.9-6-5.8v-1.7c0-3.3,2-5,5.9-5h16.1v-4.3h-17.5c-6.4,0-9.6,2.8-9.6,8.4v3
			c0,6.7,3.4,10,10.1,10h13.4c7.9,0,11.8-4,11.8-12.1v-13.6c0-8.1-3.9-12.1-11.8-12.1H806.3z M852.4,638.3h5.3v-53.5h-5.3V638.3z
			 M870.2,638.3h5.3v-37.5h-5.3V638.3z M870.2,593.2h5.3v-8.4h-5.3V593.2z M895.3,600.4c-5.8,0-8.7,2.8-8.7,8.3v4.3
			c0,5.2,2.8,7.8,8.3,7.8h15.2c3,0,4.4,1.4,4.4,4.1v4.3c0,3-1.7,4.5-5.2,4.5H887v4.6h23.9c6,0,8.9-2.8,8.9-8.4v-5.5
			c0-5.2-2.8-7.8-8.3-7.8h-15.2c-3,0-4.5-1.4-4.5-4.1v-3c0-3,1.6-4.5,4.9-4.5h21.5v-4.6H895.3z M930.7,638.3h5.3v-37.5h-5.3V638.3z
			 M930.7,593.2h5.3v-8.4h-5.3V593.2z M959.8,600.4c-7.9,0-11.8,4-11.8,12.1v13.6c0,8.1,3.9,12.1,11.8,12.1H982v-5.2h-21.6
			c-4.8,0-7.3-2.5-7.3-7.5v-13c0-5.1,2.5-7.7,7.5-7.7h11.5c4,0,6,1.9,6,5.8v1.7c0,3.3-2,5-5.9,5h-16.1v4.3h17.6
			c6.4,0,9.6-2.8,9.6-8.3v-3c0-6.7-3.4-10-10.2-10H959.8z M1006.8,600.4c-7.9,0-11.8,4-11.8,12.1v25.7h5.3v-24.8
			c0-5.2,2.5-7.8,7.5-7.8h9.3v-5.2H1006.8z M1026.8,600.4v25.7c0,8.1,3.9,12.1,11.8,12.1h12.3c7.9,0,11.8-4,11.8-12.1v-25.7h-5.2
			v24.8c0,5.2-2.5,7.8-7.6,7.8h-10.4c-5,0-7.5-2.6-7.5-7.8v-24.8H1026.8z M1075,600.4v37.9h5.3v-32.6h18c5,0,7.6,2.6,7.6,7.7v24.9
			h5.3v-25.8c0-8.1-3.9-12.1-11.8-12.1H1075z M1134.7,600.4c-7.9,0-11.8,4-11.8,12.1v12.1c0,7.6,3.9,11.4,11.8,11.4h16.1V631h-15.1
			c-5,0-7.6-2.4-7.6-7.3v-10.4c0-5.1,2.5-7.7,7.6-7.7h10.5c5,0,7.6,2.6,7.6,7.7v24.3c0,5.5-2.5,8.3-7.6,8.3h-16.3v5.2h17.4
			c7.9,0,11.8-4.3,11.8-12.8v-25.8c0-8.1-3.9-12.1-11.8-12.1H1134.7z M1178.5,600.4c-5.8,0-8.7,2.8-8.7,8.3v4.3
			c0,5.2,2.8,7.8,8.3,7.8h15.2c3,0,4.4,1.4,4.4,4.1v4.3c0,3-1.7,4.5-5.2,4.5h-22.5v4.6h23.9c6,0,8.9-2.8,8.9-8.4v-5.5
			c0-5.2-2.8-7.8-8.3-7.8h-15.2c-3,0-4.5-1.4-4.5-4.1v-3c0-3,1.6-4.5,4.9-4.5h21.5v-4.6H1178.5z M1211.1,617.4h20.8v-4.5h-20.8
			V617.4z M1261.9,600.4v25.7c0,8.1,3.9,12.1,11.8,12.1h12.3c7.9,0,11.8-4,11.8-12.1v-25.7h-5.2v24.8c0,5.2-2.5,7.8-7.6,7.8h-10.4
			c-5,0-7.5-2.6-7.5-7.8v-24.8H1261.9z M1310.1,600.4v37.9h5.3v-32.6h18c5,0,7.6,2.6,7.6,7.7v24.9h5.3v-25.8
			c0-8.1-3.9-12.1-11.8-12.1H1310.1z M1388.9,584.8v40.5c0,5.2-2.5,7.8-7.6,7.8h-10.5c-5,0-7.6-2.6-7.6-7.8v-11.9
			c0-5.1,2.5-7.7,7.6-7.7h15.1v-5.3h-16.1c-7.9,0-11.8,4-11.8,12.1v13.6c0,8.1,3.9,12.1,11.8,12.1h12.5c7.9,0,11.8-4,11.8-12.1
			v-41.4H1388.9z"/>
		<path class="st0" d="M550.8,592.1h4.3v-7.8h-4.3V592.1z M555.7,592.7h-5.6v-9.1h5.6V592.7z M564.2,592.1h4.3v-7.8h-4.3V592.1z
			 M569.2,592.7h-5.6v-9.1h5.6V592.7z M694.8,592.9h4.7v-7.8h-4.7V592.9z M700.1,593.5h-5.9v-9.1h5.9V593.5z M760.3,592.9h4.7v-7.8
			h-4.7V592.9z M765.6,593.5h-5.9v-9.1h5.9V593.5z M870.5,592.9h4.7v-7.8h-4.7V592.9z M875.8,593.5h-5.9v-9.1h5.9V593.5z M931,592.9
			h4.7v-7.8H931V592.9z M936.3,593.5h-5.9v-9.1h5.9V593.5z M1211.4,617.1h20.1v-3.9h-20.1V617.1z M1232.2,617.7h-21.4v-5.1h21.4
			V617.7z M180.4,638h36.5v-4.8h-30.7l0.4-0.5l30.1-42.5v-4.5h-36.2v4.8h30l-0.4,0.5l-29.7,41.8V638z M217.6,638.6h-37.8v-6.1
			l0.1-0.1l29.4-41.4h-29.4V585h37.4v5.4l-0.1,0.1l-29.8,42.1h30.1V638.6z M239.3,600.7c-7.8,0-11.5,3.9-11.5,11.8v13.6
			c0,7.9,3.8,11.8,11.5,11.8h21.9v-4.5H240c-5,0-7.6-2.6-7.6-7.8v-13c0-5.3,2.6-8,7.8-8h11.5c4.2,0,6.3,2.1,6.3,6.1v1.7
			c0,3.5-2.1,5.3-6.2,5.3h-15.8v3.7h17.3c6.2,0,9.3-2.6,9.3-8v-3.1c0-6.5-3.2-9.7-9.8-9.7H239.3z M261.9,638.6h-22.5
			c-8.1,0-12.2-4.2-12.2-12.4v-13.6c0-8.3,4.1-12.4,12.2-12.4h13.3c7,0,10.5,3.5,10.5,10.3v3.1c0,5.7-3.3,8.7-9.9,8.7h-17.9v-4.9
			h16.4c3.7,0,5.6-1.5,5.6-4.7v-1.7c0-3.7-1.8-5.5-5.6-5.5h-11.5c-4.8,0-7.2,2.4-7.2,7.4v13c0,4.8,2.3,7.2,6.9,7.2h21.9V638.6z
			 M305.6,638h4.7v-25.5c0-7.9-3.8-11.8-11.5-11.8h-24V638h4.7v-32.6h18.3c5.2,0,7.9,2.7,7.9,8V638z M310.9,638.6H305v-25.2
			c0-5-2.4-7.4-7.2-7.4h-17.7v32.6h-5.9v-38.5h24.6c8.1,0,12.2,4.2,12.2,12.4V638.6z M327.8,638h4.7v-33.2h8.2v-4.1h-8.2v-12.3h-4.7
			v12.3h-7.1v4.1h7.1V638z M333.1,638.6h-5.9v-33.2H320v-5.3h7.1v-12.3h5.9v12.3h8.2v5.3h-8.2V638.6z M350.4,638h4.7v-24.5
			c0-5.4,2.6-8.1,7.8-8.1h9v-4.6h-9.9c-7.8,0-11.5,3.9-11.5,11.8V638z M355.7,638.6h-5.9v-26c0-8.3,4.1-12.4,12.2-12.4h10.6v5.9
			h-9.6c-4.8,0-7.2,2.4-7.2,7.5V638.6z M382.2,600.8v25.4c0,7.9,3.8,11.8,11.5,11.8H406c7.8,0,11.5-3.9,11.5-11.8v-25.4h-4.6v24.5
			c0,5.4-2.6,8.1-7.9,8.1h-10.4c-5.2,0-7.8-2.7-7.8-8.1v-24.5H382.2z M406,638.6h-12.3c-8.1,0-12.2-4.2-12.2-12.4v-26h5.9v25.1
			c0,5,2.3,7.5,7.2,7.5h10.4c4.9,0,7.2-2.4,7.2-7.5v-25.1h5.9v26C418.2,634.4,414.1,638.6,406,638.6 M480.7,638h4.7v-25.5
			c0-7.9-3.7-11.8-11.4-11.8h-43.6V638h4.6v-32.7h20.7V638h4.4v-32.7H473c5.1,0,7.7,2.7,7.7,8.1V638z M486,638.6h-5.9v-25.2
			c0-5-2.3-7.5-7.1-7.5h-12.2v32.7h-5.7v-32.7h-19.4v32.7h-5.9v-38.5H474c8,0,12,4.2,12,12.4V638.6z M518.5,638h4.6v-33.2h8.4v-4.1
			h-8.4v-6.3c0-3.7,1.8-5.5,5.4-5.5h3.3v-3.8h-4.4c-6,0-8.9,3-8.9,9.2V638z M523.7,638.6h-5.9v-44.3c0-6.5,3.2-9.8,9.5-9.8h5v5.1
			h-3.9c-3.2,0-4.8,1.6-4.8,4.9v5.6h8.4v5.3h-8.4V638.6z M542,600.8v25.4c0,7.9,3.8,11.8,11.5,11.8h12.3c7.8,0,11.5-3.9,11.5-11.8
			v-25.4h-4.6v24.5c0,5.4-2.6,8.1-7.9,8.1h-10.4c-5.2,0-7.8-2.7-7.8-8.1v-24.5H542z M565.8,638.6h-12.3c-8.1,0-12.1-4.2-12.1-12.4
			v-26h5.9v25.1c0,5,2.3,7.5,7.2,7.5h10.4c4.9,0,7.2-2.4,7.2-7.5v-25.1h5.9v26C578,634.4,573.9,638.6,565.8,638.6 M590.2,638h4.7
			v-24.5c0-5.4,2.6-8.1,7.8-8.1h9v-4.6h-9.9c-7.8,0-11.5,3.9-11.5,11.8V638z M595.5,638.6h-5.9v-26c0-8.3,4.1-12.4,12.1-12.4h10.6
			v5.9h-9.6c-4.8,0-7.2,2.4-7.2,7.5V638.6z M651.3,638h17.2c9.2,0,13.6-4.6,13.6-13.9v-24.5c0-9.4-4.5-13.9-13.6-13.9h-25.6V638h4.9
			v-47.6h20.1c6.2,0,9.3,3.2,9.3,9.5v23.8c0,6.3-3.1,9.5-9.3,9.5h-16.6V638z M668.5,638.6h-17.8v-6.1h17.2c5.8,0,8.7-2.9,8.7-8.8
			v-23.8c0-5.9-2.8-8.8-8.7-8.8h-19.5v47.6h-6.1V585h26.2c9.5,0,14.3,4.9,14.3,14.5V624C682.7,633.7,677.9,638.6,668.5,638.6
			 M694.8,638h4.7v-36.9h-4.7V638z M700.1,638.6h-5.9v-38.2h5.9V638.6z M760.3,638h4.7v-36.9h-4.7V638z M765.6,638.6h-5.9v-38.2h5.9
			V638.6z M782.7,638h4.7v-33.2h8.2v-4.1h-8.2v-12.3h-4.7v12.3h-7.1v4.1h7.1V638z M788,638.6h-5.9v-33.2H775v-5.3h7.1v-12.3h5.9
			v12.3h8.2v5.3H788V638.6z M814.8,617.2c-6.2,0-9.3,2.7-9.3,8.1v3c0,6.5,3.2,9.7,9.8,9.7h13.4c7.8,0,11.5-3.9,11.5-11.8v-13.6
			c0-7.9-3.8-11.8-11.5-11.8h-22v4.5H828c5,0,7.5,2.6,7.5,7.8v13c0,5.3-2.6,8-7.7,8h-11.5c-4.2,0-6.3-2.1-6.3-6.1v-1.7
			c0-3.5,2.1-5.3,6.2-5.3h15.8v-3.7H814.8z M828.6,638.6h-13.4c-6.9,0-10.4-3.5-10.4-10.3v-3c0-5.8,3.3-8.7,9.9-8.7h17.8v4.9h-16.4
			c-3.7,0-5.6,1.5-5.6,4.7v1.7c0,3.7,1.8,5.5,5.6,5.5h11.5c4.8,0,7.1-2.4,7.1-7.4v-13c0-4.8-2.2-7.2-6.9-7.2h-22v-5.8h22.6
			c8.1,0,12.2,4.2,12.2,12.4v13.6C840.8,634.4,836.7,638.6,828.6,638.6 M852.8,638h4.7v-52.9h-4.7V638z M858.1,638.6h-5.9v-54.1h5.9
			V638.6z M870.5,638h4.7v-36.9h-4.7V638z M875.8,638.6h-5.9v-38.2h5.9V638.6z M887.3,638h23.6c5.8,0,8.6-2.7,8.6-8.1v-5.5
			c0-5-2.6-7.5-8-7.5h-15.2c-3.2,0-4.8-1.5-4.8-4.5v-3c0-3.2,1.7-4.8,5.2-4.8h21.2v-3.9h-22.5c-5.6,0-8.4,2.6-8.4,8v4.3
			c0,5,2.6,7.5,8,7.5h15.2c3.1,0,4.7,1.5,4.7,4.5v4.3c0,3.2-1.8,4.8-5.5,4.8h-22.2V638z M910.9,638.6h-24.2v-5.2h22.8
			c3.3,0,4.8-1.4,4.8-4.2v-4.3c0-2.6-1.3-3.8-4.1-3.8H895c-5.7,0-8.7-2.7-8.7-8.1v-4.3c0-5.8,3-8.7,9-8.7h23.1v5.2h-21.8
			c-3.1,0-4.6,1.4-4.6,4.2v3c0,2.6,1.4,3.8,4.2,3.8h15.2c5.7,0,8.6,2.7,8.6,8.1v5.5C920.1,635.6,917,638.6,910.9,638.6 M931,638h4.7
			v-36.9H931V638z M936.3,638.6h-5.9v-38.2h5.9V638.6z M959.8,600.7c-7.8,0-11.5,3.9-11.5,11.8v13.6c0,7.9,3.8,11.8,11.5,11.8h21.9
			v-4.5h-21.2c-5,0-7.6-2.6-7.6-7.8v-13c0-5.3,2.6-8,7.8-8h11.5c4.2,0,6.3,2.1,6.3,6.1v1.7c0,3.5-2.1,5.3-6.2,5.3h-15.8v3.7h17.3
			c6.2,0,9.3-2.6,9.3-8v-3.1c0-6.5-3.2-9.7-9.9-9.7H959.8z M982.3,638.6h-22.5c-8.1,0-12.1-4.2-12.1-12.4v-13.6
			c0-8.3,4.1-12.4,12.1-12.4h13.3c7,0,10.5,3.5,10.5,10.3v3.1c0,5.7-3.3,8.7-9.9,8.7h-17.9v-4.9h16.4c3.7,0,5.6-1.5,5.6-4.7v-1.7
			c0-3.7-1.8-5.5-5.6-5.5h-11.5c-4.8,0-7.2,2.4-7.2,7.4v13c0,4.8,2.3,7.2,6.9,7.2h21.9V638.6z M995.3,638h4.7v-24.5
			c0-5.4,2.6-8.1,7.8-8.1h9v-4.6h-9.9c-7.7,0-11.5,3.9-11.5,11.8V638z M1000.6,638.6h-5.9v-26c0-8.3,4.1-12.4,12.1-12.4h10.6v5.9
			h-9.6c-4.8,0-7.2,2.4-7.2,7.5V638.6z M1027.1,600.8v25.4c0,7.9,3.8,11.8,11.5,11.8h12.3c7.8,0,11.5-3.9,11.5-11.8v-25.4h-4.6v24.5
			c0,5.4-2.6,8.1-7.9,8.1h-10.4c-5.2,0-7.8-2.7-7.8-8.1v-24.5H1027.1z M1050.9,638.6h-12.3c-8.1,0-12.1-4.2-12.1-12.4v-26h5.9v25.1
			c0,5,2.3,7.5,7.2,7.5h10.4c4.9,0,7.2-2.4,7.2-7.5v-25.1h5.9v26C1063,634.4,1058.9,638.6,1050.9,638.6 M1106.1,638h4.7v-25.5
			c0-7.9-3.8-11.8-11.5-11.8h-24V638h4.7v-32.6h18.3c5.2,0,7.9,2.7,7.9,8V638z M1111.4,638.6h-5.9v-25.2c0-5-2.4-7.4-7.2-7.4h-17.7
			v32.6h-5.9v-38.5h24.6c8.1,0,12.1,4.2,12.1,12.4V638.6z M1170.5,638h23.6c5.8,0,8.6-2.7,8.6-8.1v-5.5c0-5-2.6-7.5-8-7.5h-15.2
			c-3.2,0-4.8-1.5-4.8-4.5v-3c0-3.2,1.7-4.8,5.2-4.8h21.2v-3.9h-22.5c-5.7,0-8.4,2.6-8.4,8v4.3c0,5,2.6,7.5,8,7.5h15.2
			c3.1,0,4.7,1.5,4.7,4.5v4.3c0,3.2-1.8,4.8-5.5,4.8h-22.2V638z M1194,638.6h-24.2v-5.2h22.8c3.3,0,4.8-1.4,4.8-4.2v-4.3
			c0-2.6-1.3-3.8-4.1-3.8h-15.2c-5.7,0-8.7-2.7-8.7-8.1v-4.3c0-5.8,3-8.7,9-8.7h23.1v5.2h-21.8c-3.1,0-4.6,1.4-4.6,4.2v3
			c0,2.6,1.4,3.8,4.2,3.8h15.2c5.7,0,8.6,2.7,8.6,8.1v5.5C1203.3,635.6,1200.2,638.6,1194,638.6 M1262.2,600.8v25.4
			c0,7.9,3.8,11.8,11.5,11.8h12.3c7.8,0,11.5-3.9,11.5-11.8v-25.4h-4.6v24.5c0,5.4-2.6,8.1-7.9,8.1h-10.4c-5.2,0-7.8-2.7-7.8-8.1
			v-24.5H1262.2z M1286,638.6h-12.3c-8.1,0-12.1-4.2-12.1-12.4v-26h5.9v25.1c0,5,2.3,7.5,7.2,7.5h10.4c4.9,0,7.2-2.4,7.2-7.5v-25.1
			h5.9v26C1298.2,634.4,1294.1,638.6,1286,638.6 M1341.3,638h4.7v-25.5c0-7.9-3.8-11.8-11.5-11.8h-24V638h4.7v-32.6h18.3
			c5.2,0,7.9,2.7,7.9,8V638z M1346.6,638.6h-5.9v-25.2c0-5-2.4-7.4-7.2-7.4h-17.7v32.6h-5.9v-38.5h24.6c8.1,0,12.1,4.2,12.1,12.4
			V638.6z M1369.9,600.7c-7.8,0-11.5,3.9-11.5,11.8v13.6c0,7.9,3.8,11.8,11.5,11.8h12.5c7.7,0,11.5-3.9,11.5-11.8v-41.1h-4.7v40.2
			c0,5.4-2.6,8.1-7.9,8.1h-10.5c-5.2,0-7.9-2.7-7.9-8.1v-11.9c0-5.3,2.6-8,7.9-8h14.8v-4.7H1369.9z M1382.4,638.6h-12.5
			c-8.1,0-12.1-4.2-12.1-12.4v-13.6c0-8.3,4.1-12.4,12.1-12.4h16.4v5.9h-15.4c-4.9,0-7.2,2.4-7.2,7.4v11.9c0,5,2.4,7.5,7.2,7.5h10.5
			c4.9,0,7.2-2.4,7.2-7.5v-40.8h5.9v41.7C1394.5,634.4,1390.4,638.6,1382.4,638.6 M719,650.8h17c7.8,0,11.5-4.1,11.5-12.5v-25.8
			c0-7.9-3.8-11.8-11.5-11.8h-12.5c-7.8,0-11.5,3.9-11.5,11.8v12.1c0,7.5,3.8,11.1,11.5,11.1h15.8v-4.3h-14.8
			c-5.2,0-7.9-2.5-7.9-7.6v-10.4c0-5.3,2.6-8,7.9-8H735c5.2,0,7.9,2.7,7.9,8v24.3c0,5.7-2.6,8.6-7.9,8.6h-16V650.8z M736.1,651.4
			h-17.7v-5.8H735c4.9,0,7.2-2.6,7.2-8v-24.3c0-5-2.4-7.4-7.2-7.4h-10.5c-4.9,0-7.2,2.4-7.2,7.4v10.4c0,4.7,2.4,6.9,7.2,6.9H740v5.6
			h-16.4c-8.1,0-12.2-3.9-12.2-11.7v-12.1c0-8.3,4.1-12.4,12.2-12.4h12.5c8.1,0,12.2,4.2,12.2,12.4v25.8
			C748.2,647,744.1,651.4,736.1,651.4 M1130.2,650.8h17c7.7,0,11.5-4.1,11.5-12.5v-25.8c0-7.9-3.8-11.8-11.5-11.8h-12.5
			c-7.8,0-11.5,3.9-11.5,11.8v12.1c0,7.5,3.8,11.1,11.5,11.1h15.8v-4.3h-14.8c-5.2,0-7.9-2.5-7.9-7.6v-10.4c0-5.3,2.6-8,7.9-8h10.5
			c5.2,0,7.9,2.7,7.9,8v24.3c0,5.7-2.6,8.6-7.9,8.6h-16V650.8z M1147.2,651.4h-17.7v-5.8h16.6c4.9,0,7.2-2.6,7.2-8v-24.3
			c0-5-2.4-7.4-7.2-7.4h-10.5c-4.9,0-7.2,2.4-7.2,7.4v10.4c0,4.7,2.4,6.9,7.2,6.9h15.4v5.6h-16.4c-8.1,0-12.1-3.9-12.1-11.7v-12.1
			c0-8.3,4.1-12.4,12.1-12.4h12.5c8.1,0,12.1,4.2,12.1,12.4v25.8C1159.4,647,1155.3,651.4,1147.2,651.4"/>
	</g>
	<rect x="154.6" y="459.4" class="st0" width="50.1" height="50.1"/>
	<rect x="236.9" y="417.6" class="st0" width="58" height="58"/>
	<rect x="180.3" y="399.7" class="st0" width="38.7" height="38.7"/>
	<rect x="221.7" y="500.7" class="st0" width="33.9" height="33.8"/>
	<rect x="313.7" y="453" class="st0" width="41" height="41"/>
	<rect x="271.2" y="358.4" class="st0" width="38.7" height="38.7"/>
	<rect x="372.5" y="482" class="st0" width="38.7" height="38.7"/>
	<rect x="330.4" y="382.6" class="st0" width="33.9" height="33.8"/>
	<g>
		<path class="st0" d="M1051.7,370.5h62.4c16.7,0,25,8.4,25,25.3v62.7c0,16.7-8.3,25-25,25h-50.3c-16.5,0-24.7-8.3-24.7-25v-163
			h-12.6v163c0,25.1,12.5,37.7,37.4,37.7h50.3c25.1,0,37.7-12.6,37.7-37.7v-62.8c0-25.2-12.6-37.7-37.7-37.7h-62.4V370.5z
			 M1393.1,358.1h-12.9l-42.9,120.2l-44-120.2h-12.9l-43.2,120.2l-44-120.2h-13.2l50.9,138h13.2l42.6-119.9l44,119.9h13.5
			L1393.1,358.1z"/>
		<path class="st0" d="M1027.9,297v161.5c0,24.3,11.7,36.1,35.8,36.1h50.3c24.3,0,36.1-11.8,36.1-36.2v-62.8
			c0-24.3-11.8-36.2-36.1-36.2h-60.8v9.5h60.8c17.6,0,26.6,9,26.6,26.9v62.7c0,17.6-8.9,26.6-26.6,26.6h-50.3
			c-17.5,0-26.3-8.9-26.3-26.6V297H1027.9z M1114.1,497.7h-50.3c-25.9,0-39-13.2-39-39.2V293.8h15.8v164.6
			c0,15.8,7.6,23.4,23.2,23.4h50.3c15.8,0,23.4-7.7,23.4-23.4v-62.7c0-16-7.7-23.7-23.4-23.7h-64v-15.8h64c26,0,39.2,13.2,39.2,39.3
			v62.8C1153.3,484.5,1140.1,497.7,1114.1,497.7 M1331.8,494.5h11.3l47.8-134.9h-9.6l-44,123.2l-45.1-123.2h-10.7l-44.3,123.2
			l-45.1-123.2h-9.8l49.7,134.9h11l43.7-122.9L1331.8,494.5z M1345.3,497.7h-15.7l-42.9-116.8l-41.5,116.8h-15.4l-0.4-1l-51.6-140.1
			h16.6l42.9,117.1l42.1-117.1h15.1l42.9,117.1l41.8-117.1h16.3L1345.3,497.7z"/>
		<path class="st0" d="M1051.7,370.5h62.4c16.7,0,25,8.4,25,25.3v62.7c0,16.7-8.3,25-25,25h-50.3c-16.5,0-24.7-8.3-24.7-25v-163
			h-12.6v163c0,25.1,12.5,37.7,37.4,37.7h50.3c25.1,0,37.7-12.6,37.7-37.7v-62.8c0-25.2-12.6-37.7-37.7-37.7h-62.4V370.5z
			 M1393.1,358.1h-12.9l-42.9,120.2l-44-120.2h-12.9l-43.2,120.2l-44-120.2h-13.2l50.9,138h13.2l42.6-119.9l44,119.9h13.5
			L1393.1,358.1z"/>
		<path class="st0" d="M1027.9,297v161.5c0,24.3,11.7,36.1,35.8,36.1h50.3c24.3,0,36.1-11.8,36.1-36.2v-62.8
			c0-24.3-11.8-36.2-36.1-36.2h-60.8v9.5h60.8c17.6,0,26.6,9,26.6,26.9v62.7c0,17.6-8.9,26.6-26.6,26.6h-50.3
			c-17.5,0-26.3-8.9-26.3-26.6V297H1027.9z M1114.1,497.7h-50.3c-25.9,0-39-13.2-39-39.2V293.8h15.8v164.6
			c0,15.8,7.6,23.4,23.2,23.4h50.3c15.8,0,23.4-7.7,23.4-23.4v-62.7c0-16-7.7-23.7-23.4-23.7h-64v-15.8h64c26,0,39.2,13.2,39.2,39.3
			v62.8C1153.3,484.5,1140.1,497.7,1114.1,497.7 M1331.8,494.5h11.3l47.8-134.9h-9.6l-44,123.2l-45.1-123.2h-10.7l-44.3,123.2
			l-45.1-123.2h-9.8l49.7,134.9h11l43.7-122.9L1331.8,494.5z M1345.3,497.7h-15.7l-0.4-1l-42.5-115.8l-41.5,116.8h-15.4l-0.4-1
			l-51.6-140.1h16.6l42.9,117.1l42.1-117.1h15.1l42.9,117.1l41.8-117.1h16.3L1345.3,497.7z"/>
		<path class="st0" d="M468.7,357.8c-24.9,0-37.4,12.6-37.4,37.7v62.8c0,25.2,12.5,37.7,37.4,37.7H519c25.1,0,37.7-12.6,37.7-37.7
			v-163H544v163c0,16.7-8.3,25-25,25h-50.3c-16.5,0-24.7-8.3-24.7-25v-62.7c0-16.9,8.2-25.3,24.7-25.3h63v-12.6H468.7z M598.2,370.5
			h12.1v125.6h12.6V370.5h25.8v-12.6h-25.8v-62.4h-12.6v62.4h-12.1V370.5z M716.1,483.5c-16.5,0-24.7-8.3-24.7-25v-62.7
			c0-16.9,8.2-25.3,24.7-25.3h50.3c16.7,0,25,8.4,25,25.3v0.5c0,16.3-8.3,24.5-25,24.5H704v12.6h62.4c25.1,0,37.7-12.4,37.7-37.3
			v-0.5c0-25.2-12.6-37.8-37.7-37.8h-50.3c-24.9,0-37.4,12.6-37.4,37.7v62.8c0,25.2,12.5,37.7,37.4,37.7h75.3v-12.6H716.1z
			 M888.8,483.5c-16.5,0-24.7-8.3-24.7-25v-62.7c0-16.9,8.2-25.3,24.7-25.3h55.5v-12.6h-55.5c-24.9,0-37.4,12.6-37.4,37.7v62.8
			c0,25.2,12.5,37.7,37.4,37.7h55.5v-12.6H888.8z"/>
		<path class="st0" d="M468.7,359.4c-24.1,0-35.8,11.8-35.8,36.2v62.8c0,24.3,11.7,36.2,35.8,36.2H519c24.3,0,36.1-11.8,36.1-36.1
			V297h-9.5v161.5c0,17.7-8.9,26.6-26.6,26.6h-50.3c-17.5,0-26.3-8.9-26.3-26.6v-62.7c0-17.8,8.9-26.9,26.3-26.9H530v-9.5H468.7z
			 M519,497.7h-50.3c-25.9,0-39-13.2-39-39.3v-62.8c0-26.1,13.1-39.3,39-39.3h64.5V372h-64.5c-15.6,0-23.2,7.8-23.2,23.7v62.7
			c0,15.8,7.6,23.4,23.2,23.4H519c15.8,0,23.4-7.7,23.4-23.4V293.8h15.8v164.6C558.2,484.5,545,497.7,519,497.7 M611.8,494.5h9.5
			V368.9h25.8v-9.5h-25.8V297h-9.5v62.4h-12.1v9.5h12.1V494.5z M624.5,497.7h-15.8V372h-12.1v-15.8h12.1v-62.4h15.8v62.4h25.8V372
			h-25.8V497.7z M716.1,359.4c-24.1,0-35.8,11.8-35.8,36.2v62.8c0,24.3,11.7,36.2,35.8,36.2h73.8V485h-73.8
			c-17.5,0-26.3-8.9-26.3-26.6v-62.7c0-17.8,8.9-26.9,26.3-26.9h50.3c17.6,0,26.6,9,26.6,26.9v0.5c0,17.3-8.9,26-26.6,26h-60.8v9.5
			h60.8c24.3,0,36.1-11.7,36.1-35.7v-0.5c0-24.4-11.8-36.2-36.1-36.2H716.1z M793,497.7h-76.9c-25.9,0-39-13.2-39-39.3v-62.8
			c0-26.1,13.1-39.3,39-39.3h50.3c26,0,39.2,13.2,39.2,39.4v0.5c0,25.8-13.2,38.8-39.2,38.8h-64v-15.8h64c15.8,0,23.4-7.5,23.4-22.9
			v-0.5c0-16-7.7-23.7-23.4-23.7h-50.3c-15.6,0-23.2,7.8-23.2,23.7v62.7c0,15.8,7.6,23.4,23.2,23.4H793V497.7z M888.8,359.4
			c-24.1,0-35.8,11.8-35.8,36.2v62.8c0,24.3,11.7,36.2,35.8,36.2h54V485h-54c-17.5,0-26.3-8.9-26.3-26.6v-62.7
			c0-17.8,8.9-26.9,26.3-26.9h54v-9.5H888.8z M945.9,497.7h-57.1c-25.9,0-39-13.2-39-39.3v-62.8c0-26.1,13.1-39.3,39-39.3h57.1V372
			h-57.1c-15.6,0-23.2,7.8-23.2,23.7v62.7c0,15.8,7.6,23.4,23.2,23.4h57.1V497.7z"/>
		<path class="st0" d="M468.7,357.8c-24.9,0-37.4,12.6-37.4,37.7v62.8c0,25.2,12.5,37.7,37.4,37.7H519c25.1,0,37.7-12.6,37.7-37.7
			v-163H544v163c0,16.7-8.3,25-25,25h-50.3c-16.5,0-24.7-8.3-24.7-25v-62.7c0-16.9,8.2-25.3,24.7-25.3h63v-12.6H468.7z M598.2,370.5
			h12.1v125.6h12.6V370.5h25.8v-12.6h-25.8v-62.4h-12.6v62.4h-12.1V370.5z M716.1,483.5c-16.5,0-24.7-8.3-24.7-25v-62.7
			c0-16.9,8.2-25.3,24.7-25.3h50.3c16.7,0,25,8.4,25,25.3v0.5c0,16.3-8.3,24.5-25,24.5H704v12.6h62.4c25.1,0,37.7-12.4,37.7-37.3
			v-0.5c0-25.2-12.6-37.8-37.7-37.8h-50.3c-24.9,0-37.4,12.6-37.4,37.7v62.8c0,25.2,12.5,37.7,37.4,37.7h75.3v-12.6H716.1z
			 M888.8,483.5c-16.5,0-24.7-8.3-24.7-25v-62.7c0-16.9,8.2-25.3,24.7-25.3h55.5v-12.6h-55.5c-24.9,0-37.4,12.6-37.4,37.7v62.8
			c0,25.2,12.5,37.7,37.4,37.7h55.5v-12.6H888.8z"/>
		<path class="st0" d="M468.7,359.4c-24.1,0-35.8,11.8-35.8,36.2v62.8c0,24.3,11.7,36.2,35.8,36.2H519c24.3,0,36.1-11.8,36.1-36.1
			V297h-9.5v161.5c0,17.7-8.9,26.6-26.6,26.6h-50.3c-17.5,0-26.3-8.9-26.3-26.6v-62.7c0-17.8,8.9-26.9,26.3-26.9H530v-9.5H468.7z
			 M519,497.7h-50.3c-25.9,0-39-13.2-39-39.3v-62.8c0-26.1,13.1-39.3,39-39.3h64.5V372h-64.5c-15.6,0-23.2,7.8-23.2,23.7v62.7
			c0,15.8,7.6,23.4,23.2,23.4H519c15.8,0,23.4-7.7,23.4-23.4V293.8h15.8v164.6C558.2,484.5,545,497.7,519,497.7 M611.8,494.5h9.5
			V368.9h25.8v-9.5h-25.8V297h-9.5v62.4h-12.1v9.5h12.1V494.5z M624.5,497.7h-15.8V372h-12.1v-15.8h12.1v-62.4h15.8v62.4h25.8V372
			h-25.8V497.7z M716.1,359.4c-24.1,0-35.8,11.8-35.8,36.2v62.8c0,24.3,11.7,36.2,35.8,36.2h73.8V485h-73.8
			c-17.5,0-26.3-8.9-26.3-26.6v-62.7c0-17.8,8.9-26.9,26.3-26.9h50.3c17.6,0,26.6,9,26.6,26.9v0.5c0,17.3-8.9,26-26.6,26h-60.8v9.5
			h60.8c24.3,0,36.1-11.7,36.1-35.7v-0.5c0-24.4-11.8-36.2-36.1-36.2H716.1z M793,497.7h-76.9c-25.9,0-39-13.2-39-39.3v-62.8
			c0-26.1,13.1-39.3,39-39.3h50.3c26,0,39.2,13.2,39.2,39.4v0.5c0,25.8-13.2,38.8-39.2,38.8h-64v-15.8h64c15.8,0,23.4-7.5,23.4-22.9
			v-0.5c0-16-7.7-23.7-23.4-23.7h-50.3c-15.6,0-23.2,7.8-23.2,23.7v62.7c0,15.8,7.6,23.4,23.2,23.4H793V497.7z M888.8,359.4
			c-24.1,0-35.8,11.8-35.8,36.2v62.8c0,24.3,11.7,36.2,35.8,36.2h54V485h-54c-17.5,0-26.3-8.9-26.3-26.6v-62.7
			c0-17.8,8.9-26.9,26.3-26.9h54v-9.5H888.8z M945.9,497.7h-57.1c-25.9,0-39-13.2-39-39.3v-62.8c0-26.1,13.1-39.3,39-39.3h57.1V372
			h-57.1c-15.6,0-23.2,7.8-23.2,23.7v62.7c0,15.8,7.6,23.4,23.2,23.4h57.1V497.7z"/>
	</g>
	<rect x="973.2" y="474.9" class="st0" width="27.3" height="27.3"/>
</g>
</svg>
