<?xml version="1.0" encoding="utf-8"?>
<!-- Generator: Adobe Illustrator 24.0.0, SVG Export Plug-In . SVG Version: 6.00 Build 0)  -->
<svg version="1.1" id="Ebene_1" xmlns="http://www.w3.org/2000/svg" xmlns:xlink="http://www.w3.org/1999/xlink" x="0px" y="0px"
	 viewBox="0 0 1800 1014" style="enable-background:new 0 0 1800 1014;" xml:space="preserve">
<style type="text/css">
	.st0{fill:none;stroke:#FFFFFF;stroke-width:25.2;}
	.st1{fill:#FFFFFF;}
	.st2{fill:none;stroke:#FFFFFF;stroke-width:10.6575;stroke-linecap:round;stroke-linejoin:round;}
	.st3{fill:none;stroke:#FFFFFF;stroke-width:25.2;stroke-miterlimit:10;}
</style>
<g>
	<g>
		<path class="st0" d="M1273,778.6V142.1L871.8,304.2v153.5h6c11.5,0,21,9.4,21,21v300H1273z"/>
		<path class="st1" d="M1117.6,780.1c-3.8,0-7-3.1-7-7v-81h-74.1v81c0,3.8-3.1,7-7,7c-3.8,0-7-3.1-7-7v-88c0-3.8,3.1-7,7-7h88
			c3.8,0,7,3.1,7,7v88C1124.6,777,1121.5,780.1,1117.6,780.1"/>
		<path class="st1" d="M981.7,614.6h-56c-3.8,0-7-3.1-7-7c0-3.8,3.1-7,7-7h56c3.8,0,7,3.1,7,7C988.6,611.5,985.5,614.6,981.7,614.6"
			/>
		<path class="st1" d="M1221.6,614.6h-56c-3.8,0-7-3.1-7-7c0-3.8,3.1-7,7-7h56c3.8,0,7,3.1,7,7
			C1228.6,611.5,1225.4,614.6,1221.6,614.6"/>
		<path class="st1" d="M1101.6,614.6h-56c-3.8,0-7-3.1-7-7c0-3.8,3.1-7,7-7h56c3.8,0,7,3.1,7,7
			C1108.6,611.5,1105.5,614.6,1101.6,614.6"/>
		<path class="st1" d="M1221.6,534.6h-56c-3.8,0-7-3.1-7-7s3.1-7,7-7h56c3.8,0,7,3.1,7,7S1225.4,534.6,1221.6,534.6"/>
		<path class="st1" d="M1221.6,454.7h-56c-3.8,0-7-3.1-7-7c0-3.8,3.1-7,7-7h56c3.8,0,7,3.1,7,7
			C1228.6,451.5,1225.4,454.7,1221.6,454.7"/>
		<path class="st1" d="M1221.6,374.7h-56c-3.8,0-7-3.1-7-7c0-3.8,3.1-7,7-7h56c3.8,0,7,3.1,7,7
			C1228.6,371.6,1225.4,374.7,1221.6,374.7"/>
		<path class="st1" d="M1101.6,454.7h-56c-3.8,0-7-3.1-7-7c0-3.8,3.1-7,7-7h56c3.8,0,7,3.1,7,7
			C1108.6,451.5,1105.5,454.7,1101.6,454.7"/>
		<path class="st1" d="M1101.6,534.6h-56c-3.8,0-7-3.1-7-7s3.1-7,7-7h56c3.8,0,7,3.1,7,7S1105.5,534.6,1101.6,534.6"/>
		<path class="st1" d="M1101.6,374.7h-56c-3.8,0-7-3.1-7-7c0-3.8,3.1-7,7-7h56c3.8,0,7,3.1,7,7
			C1108.6,371.6,1105.5,374.7,1101.6,374.7"/>
		<path class="st1" d="M981.7,374.7h-56c-3.8,0-7-3.1-7-7c0-3.8,3.1-7,7-7h56c3.8,0,7,3.1,7,7C988.6,371.6,985.5,374.7,981.7,374.7"
			/>
		<path class="st1" d="M981.7,454.7h-56c-3.8,0-7-3.1-7-7c0-3.8,3.1-7,7-7h56c3.8,0,7,3.1,7,7C988.6,451.5,985.5,454.7,981.7,454.7"
			/>
		<path class="st1" d="M981.7,534.6h-56c-3.8,0-7-3.1-7-7s3.1-7,7-7h56c3.8,0,7,3.1,7,7S985.5,534.6,981.7,534.6"/>
		<path class="st1" d="M1221.6,294.7h-56c-3.8,0-7-3.1-7-7c0-3.8,3.1-7,7-7h56c3.8,0,7,3.1,7,7
			C1228.6,291.6,1225.4,294.7,1221.6,294.7"/>
	</g>
	<rect x="567.6" y="433.8" class="st2" width="61.2" height="61.2"/>
	<rect x="567.6" y="564.1" class="st2" width="61.2" height="61.2"/>
	<g>
		<rect x="555.3" y="706.6" class="st2" width="85.7" height="137.7"/>
	</g>
	<rect x="694.4" y="564.9" class="st2" width="61.2" height="61.2"/>
	<rect x="795.1" y="564.9" class="st2" width="61.2" height="61.2"/>
	<rect x="694.4" y="702.7" class="st2" width="61.2" height="61.2"/>
	<rect x="795.1" y="702.7" class="st2" width="61.2" height="61.2"/>
	<g>
		<path class="st3" d="M898.7,797.6v-319c0-11.5-9.4-21-21-21H741.7v-93.1c0-11.5-9.4-21-21-21h-0.5h-42H559.8h-42h-0.5
			c-11.5,0-21,9.4-21,21v433l0.8,47.6h186.3h214.3L898.7,797.6z"/>
	</g>
</g>
</svg>
