<?xml version="1.0" encoding="utf-8"?>
<!-- Generator: Adobe Illustrator 24.0.0, SVG Export Plug-In . SVG Version: 6.00 Build 0)  -->
<svg version="1.0" id="Ebene_1" xmlns="http://www.w3.org/2000/svg" xmlns:xlink="http://www.w3.org/1999/xlink" x="0px" y="0px"
	 viewBox="0 0 1800 1014" style="enable-background:new 0 0 1800 1014;" xml:space="preserve">
<style type="text/css">
	.st0{fill:#FFFFFF;}
</style>
<g>
	<g>
		<path class="st0" d="M817.4,832.6c-4.9,0-8.8-3.9-8.8-8.8V516.7c-4.9,0-8.8-3.9-8.8-8.8c0-4.9,3.9-8.8,8.8-8.8h8.8
			c4.9,0,8.8,3.9,8.8,8.8v315.9C826.2,828.7,822.2,832.6,817.4,832.6"/>
		<path class="st0" d="M957.8,832.6c-4.9,0-8.8-3.9-8.8-8.8V507.9c0-4.9,3.9-8.8,8.8-8.8h8.8c4.8,0,8.8,3.9,8.8,8.8
			c0,4.9-3.9,8.8-8.8,8.8v307.1C966.6,828.7,962.7,832.6,957.8,832.6"/>
		<path class="st0" d="M887.6,832.6c-4.9,0-8.8-3.9-8.8-8.8V639.6c0-4.9,3.9-8.8,8.8-8.8c4.9,0,8.8,3.9,8.8,8.8v184.2
			C896.4,828.7,892.5,832.6,887.6,832.6"/>
		<path class="st0" d="M1010.5,657.1h-26.3c-4.9,0-8.8-3.9-8.8-8.8s3.9-8.8,8.8-8.8h17.6v-158c0-55.9-36.9-96.5-87.8-96.5h-52.7
			c-50.9,0-87.8,40.6-87.8,96.5v158h17.6c4.9,0,8.8,3.9,8.8,8.8s-3.9,8.8-8.8,8.8h-26.3c-4.9,0-8.8-3.9-8.8-8.8V481.6
			c0-65,45.3-114.1,105.3-114.1h52.7c60,0,105.3,49.1,105.3,114.1v166.8C1019.3,653.2,1015.3,657.1,1010.5,657.1"/>
		<path class="st0" d="M887.6,227.1c-32.4,0-43.9,28.4-43.9,52.7c0,24.3,11.5,52.7,43.9,52.7c32.4,0,43.9-28.4,43.9-52.7
			C931.5,255.4,920,227.1,887.6,227.1 M887.6,349.9c-36.7,0-61.4-28.2-61.4-70.2c0-42,24.7-70.2,61.4-70.2
			c36.7,0,61.4,28.2,61.4,70.2C949,321.7,924.4,349.9,887.6,349.9"/>
		<path class="st0" d="M1133.4,683.5h-17.6c-4.9,0-8.8-3.9-8.8-8.8c0-4.9,3.9-8.8,8.8-8.8h8.8V505.3c0-42.1-34.9-76.3-77.8-76.3
			h-9.9c-4.9,0-8.8-3.9-8.8-8.8c0-4.9,3.9-8.8,8.8-8.8h9.9c52.6,0,95.4,42.1,95.4,93.9v169.4
			C1142.1,679.5,1138.2,683.5,1133.4,683.5"/>
		<path class="st0" d="M1089.5,832.6c-4.9,0-8.8-3.9-8.8-8.8V534.2c0-4.9,3.9-8.8,8.8-8.8h8.8c4.8,0,8.8,3.9,8.8,8.8
			s-3.9,8.8-8.8,8.8v280.8C1098.2,828.7,1094.3,832.6,1089.5,832.6"/>
		<path class="st0" d="M1027.8,832.6c-4.9,0-8.8-3.9-8.8-8.8V683.5c0-4.9,3.9-8.8,8.8-8.8c4.9,0,8.8,3.9,8.8,8.8v140.4
			C1036.6,828.7,1032.7,832.6,1027.8,832.6"/>
		<path class="st0" d="M1027.8,288.5c-25.9,0-35.1,22.7-35.1,43.9s9.2,43.9,35.1,43.9c25.9,0,35.1-22.7,35.1-43.9
			S1053.7,288.5,1027.8,288.5 M1027.8,393.8c-31.5,0-52.7-24.7-52.7-61.4s21.2-61.4,52.7-61.4c31.5,0,52.7,24.7,52.7,61.4
			S1059.3,393.8,1027.8,393.8"/>
		<path class="st0" d="M1256.2,692.2h-17.6c-4.9,0-8.8-3.9-8.8-8.8c0-4.9,3.9-8.8,8.8-8.8h8.8v-158c0-36.7-28.2-61.4-70.2-61.4
			h-26.3c-4.9,0-8.8-3.9-8.8-8.8c0-4.9,3.9-8.8,8.8-8.8h26.3c51.7,0,87.8,32.5,87.8,79v166.8C1265,688.3,1261.1,692.2,1256.2,692.2"
			/>
		<path class="st0" d="M1212.3,832.6c-4.9,0-8.8-3.9-8.8-8.8V569.4c0-4.9,3.9-8.8,8.8-8.8h8.8c4.9,0,8.8,3.9,8.8,8.8
			c0,4.9-3.9,8.8-8.8,8.8v245.7C1221.1,828.7,1217.2,832.6,1212.3,832.6"/>
		<path class="st0" d="M1150.9,832.6c-4.9,0-8.8-3.9-8.8-8.8v-114c0-4.9,3.9-8.8,8.8-8.8s8.8,3.9,8.8,8.8v114
			C1159.7,828.7,1155.8,832.6,1150.9,832.6"/>
		<path class="st0" d="M1159.7,332.4c-19.4,0-26.3,18.1-26.3,35.1c0,17,6.9,35.1,26.3,35.1s26.3-18.1,26.3-35.1
			C1186,350.5,1179.1,332.4,1159.7,332.4 M1159.7,420.2c-26.2,0-43.9-21.2-43.9-52.7s17.6-52.7,43.9-52.7s43.9,21.2,43.9,52.7
			S1185.9,420.2,1159.7,420.2"/>
		<path class="st0" d="M659.4,683.5h-17.6c-4.9,0-8.8-3.9-8.8-8.8V505.3c0-51.8,42.8-93.9,95.4-93.9h9.9c4.9,0,8.8,3.9,8.8,8.8
			c0,4.9-3.9,8.8-8.8,8.8h-9.9c-42.9,0-77.8,34.2-77.8,76.3v160.6h8.8c4.9,0,8.8,3.9,8.8,8.8C668.2,679.5,664.3,683.5,659.4,683.5"
			/>
		<path class="st0" d="M685.7,832.6c-4.9,0-8.8-3.9-8.8-8.8V543c-4.9,0-8.8-3.9-8.8-8.8s3.9-8.8,8.8-8.8h8.8c4.9,0,8.8,3.9,8.8,8.8
			v289.6C694.5,828.7,690.6,832.6,685.7,832.6"/>
		<path class="st0" d="M747.4,832.6c-4.9,0-8.8-3.9-8.8-8.8V683.5c0-4.9,3.9-8.8,8.8-8.8c4.9,0,8.8,3.9,8.8,8.8v140.4
			C756.2,828.7,752.2,832.6,747.4,832.6"/>
		<path class="st0" d="M747.4,288.5c-25.9,0-35.1,22.7-35.1,43.9s9.2,43.9,35.1,43.9c25.9,0,35.1-22.7,35.1-43.9
			S773.3,288.5,747.4,288.5 M747.4,393.8c-31.5,0-52.7-24.7-52.7-61.4s21.2-61.4,52.7-61.4c31.5,0,52.7,24.7,52.7,61.4
			S778.9,393.8,747.4,393.8"/>
		<path class="st0" d="M536.5,692.2H519c-4.9,0-8.8-3.9-8.8-8.8V516.7c0-46.5,36.1-79,87.8-79h26.3c4.8,0,8.8,3.9,8.8,8.8
			c0,4.9-3.9,8.8-8.8,8.8H598c-42,0-70.2,24.7-70.2,61.4v158h8.8c4.9,0,8.8,3.9,8.8,8.8C545.3,688.3,541.4,692.2,536.5,692.2"/>
		<path class="st0" d="M562.9,832.6c-4.9,0-8.8-3.9-8.8-8.8V578.1c-4.8,0-8.8-3.9-8.8-8.8c0-4.9,3.9-8.8,8.8-8.8h8.8
			c4.9,0,8.8,3.9,8.8,8.8v254.5C571.7,828.7,567.7,832.6,562.9,832.6"/>
		<path class="st0" d="M624.3,832.6c-4.9,0-8.8-3.9-8.8-8.8v-114c0-4.9,3.9-8.8,8.8-8.8s8.8,3.9,8.8,8.8v114
			C633.1,828.7,629.2,832.6,624.3,832.6"/>
		<path class="st0" d="M615.5,332.4c-19.4,0-26.3,18.1-26.3,35.1c0,17,6.9,35.1,26.3,35.1c19.4,0,26.3-18.1,26.3-35.1
			C641.9,350.5,634.9,332.4,615.5,332.4 M615.5,420.2c-26.2,0-43.9-21.2-43.9-52.7s17.6-52.7,43.9-52.7c26.2,0,43.9,21.2,43.9,52.7
			S641.8,420.2,615.5,420.2"/>
	</g>
</g>
</svg>
