<?xml version="1.0" encoding="utf-8"?>
<!-- Generator: Adobe Illustrator 24.0.0, SVG Export Plug-In . SVG Version: 6.00 Build 0)  -->
<svg version="1.0" id="Ebene_1" xmlns="http://www.w3.org/2000/svg" xmlns:xlink="http://www.w3.org/1999/xlink" x="0px" y="0px"
	 viewBox="0 0 1800 1014" style="enable-background:new 0 0 1800 1014;" xml:space="preserve">
<style type="text/css">
	.st0{fill:none;stroke:#FFFFFF;stroke-width:16.75;stroke-linecap:round;stroke-miterlimit:10;}
	.st1{fill:none;stroke:#FFFFFF;stroke-width:16.75;stroke-linecap:round;stroke-linejoin:round;stroke-miterlimit:10;}
	.st2{fill:none;stroke:#FFFFFF;stroke-width:18.612;stroke-miterlimit:10;}
	.st3{fill:#FFFFFF;}
	.st4{fill:none;stroke:#FFFFFF;stroke-width:5.243;}
</style>
<g>
	<path class="st0" d="M950.9,426.3c-1.7,14.2-14.6,24.3-28.8,22.5c-14.2-1.7-24.3-14.6-22.5-28.8c1.7-14.2,14.6-24.3,28.8-22.5
		C942.6,399.2,952.7,412.1,950.9,426.3z M930.4,593.2c-3.4-0.4-6.6-1.3-9.7-2.5c-16-6.4-26.3-22.9-24.1-40.8
		c2.6-21.3,22-36.4,43.2-33.8c8.9,1.1,16.8,5.1,22.7,11.1 M850,505.1c-2.6,21.3-22,36.4-43.2,33.8c-21.3-2.6-36.4-22-33.8-43.2
		c2.6-21.3,22-36.4,43.2-33.8C837.5,464.5,852.6,483.9,850,505.1z"/>
	<path class="st1" d="M1092.1,517.2l34.9-5c6.5,12.4,19.3,21,34.3,21c21.4,0,38.8-17.4,38.8-38.8c0-21.4-17.4-38.8-38.8-38.8
		c-15,0-27.8,8.6-34.3,21l-71.7-10.2c-1.8-10.5-4.5-20.7-8.1-30.4l57-44.7c11.8,7.5,27.2,8.5,40.2,1c18.6-10.7,24.9-34.4,14.2-53
		c-10.7-18.6-34.4-24.9-53-14.2c-13,7.5-19.8,21.3-19.2,35.3l-67.1,26.9c-6.7-8.1-14.2-15.6-22.4-22.4l26.9-67.1
		c14,0.6,27.8-6.2,35.3-19.2c10.7-18.6,4.4-42.3-14.2-53c-18.6-10.7-42.3-4.4-53,14.2c-7.5,13-6.5,28.4,1,40.2l-44.7,57
		c-9.8-3.6-19.9-6.4-30.4-8.1L907.5,257c12.4-6.5,21-19.3,21-34.3c0-21.4-17.4-38.8-38.8-38.8s-38.8,17.4-38.8,38.8
		c0,15,8.6,27.8,21,34.3l-10.2,71.7c-10.5,1.8-20.7,4.5-30.4,8.1l-44.7-57c7.5-11.8,8.5-27.2,1-40.2c-10.7-18.6-34.4-24.9-53-14.2
		c-18.6,10.7-24.9,34.4-14.2,53c7.5,13,21.3,19.8,35.3,19.2l26.9,67.1c-8.1,6.7-15.6,14.2-22.4,22.4L693,360.3
		c0.6-14-6.2-27.8-19.2-35.3c-18.6-10.7-42.3-4.4-53,14.2c-10.7,18.6-4.4,42.3,14.2,53c13,7.5,28.4,6.5,40.2-1l57,44.7
		c-3.6,9.8-6.4,19.9-8.1,30.4l-71.7,10.2c-6.5-12.4-19.3-21-34.3-21c-21.4,0-38.8,17.4-38.8,38.8c0,21.4,17.4,38.8,38.8,38.8
		c15,0,27.8-8.6,34.3-21l71.7,10.2c1.8,10.5,4.5,20.7,8.1,30.4l-57,44.7c-11.8-7.5-27.2-8.5-40.2-1c-18.6,10.7-24.9,34.4-14.2,53
		c10.7,18.6,34.4,24.9,53,14.2c13-7.5,19.8-21.3,19.2-35.3l67.1-26.9c6.7,8.1,14.2,15.6,22.4,22.4L755.5,691
		c-14-0.6-27.8,6.2-35.3,19.2c-10.7,18.6-4.4,42.3,14.2,53c18.6,10.7,42.3,4.4,53-14.2c7.5-13,6.5-28.4-1-40.2l44.7-57
		c9.8,3.6,19.9,6.4,30.4,8.1l4.2,29.4"/>
	<path class="st2" d="M1204.4,773.7l-150.7-246.8c-9-14.8-30.5-14.8-39.5,0L863.4,773.7c-8.9,15.1,1.7,34.4,18.8,34.4h303.4
		C1202.7,808.1,1213.3,788.8,1204.4,773.7z"/>
	<path class="st3" d="M1057.4,748.7v-7.8c-4.5-1.1-10.2-2-15.4-2.4v-80c-9.4-0.4-21.2,0.2-29.4,1.3v7.8c5.3,0.4,11.4,1.1,15.8,1.8
		v69.1c-5.4,0.4-11.1,1.3-15.8,2.4v7.8H1057.4z M1044.5,627c0-5.1-4.2-9.3-9.3-9.3c-5.3,0-9.4,4.2-9.4,9.3c0,5.3,4.2,9.3,9.4,9.3
		C1040.4,636.2,1044.5,632.3,1044.5,627"/>
	<path class="st4" d="M1057.4,748.7v-7.8c-4.5-1.1-10.2-2-15.4-2.4v-80c-9.4-0.4-21.2,0.2-29.4,1.3v7.8c5.3,0.4,11.4,1.1,15.8,1.8
		v69.1c-5.4,0.4-11.1,1.3-15.8,2.4v7.8H1057.4z M1044.5,627c0-5.1-4.2-9.3-9.3-9.3c-5.3,0-9.4,4.2-9.4,9.3c0,5.3,4.2,9.3,9.4,9.3
		C1040.4,636.2,1044.5,632.3,1044.5,627z"/>
</g>
</svg>
