<?xml version="1.0" encoding="utf-8"?>
<!-- Generator: Adobe Illustrator 24.0.0, SVG Export Plug-In . SVG Version: 6.00 Build 0)  -->
<svg version="1.0" id="Ebene_1" xmlns="http://www.w3.org/2000/svg" xmlns:xlink="http://www.w3.org/1999/xlink" x="0px" y="0px"
	 viewBox="0 0 1800 1014" style="enable-background:new 0 0 1800 1014;" xml:space="preserve">
<style type="text/css">
	.st0{fill:none;stroke:#FFFFFF;stroke-width:22;}
	.st1{fill:none;stroke:#FFFFFF;stroke-width:21.133;}
	.st2{fill:#FFFFFF;}
</style>
<g>
	<circle class="st0" cx="887.6" cy="531.4" r="311.8"/>
	<circle class="st0" cx="887.6" cy="531.4" r="224.9"/>
	<circle class="st0" cx="887.6" cy="530" r="139"/>
	<circle class="st1" cx="887.6" cy="530" r="59.2"/>
	<path class="st2" d="M691.1,457.4c23.5,0,42.5-19,42.5-42.5c0-23.5-19-42.5-42.5-42.5c-23.5,0-42.5,19-42.5,42.5
		C648.6,438.4,667.6,457.4,691.1,457.4"/>
	<path class="st2" d="M1096.6,796.9c23.5,0,42.5-19,42.5-42.5c0-23.5-19-42.5-42.5-42.5c-23.5,0-42.5,19-42.5,42.5
		C1054.1,777.9,1073.1,796.9,1096.6,796.9"/>
	<path class="st2" d="M721.6,724.9c23.5,0,42.5-19,42.5-42.5s-19-42.5-42.5-42.5c-23.5,0-42.5,19-42.5,42.5S698.1,724.9,721.6,724.9
		"/>
	<path class="st2" d="M1017.2,388.4c23.5,0,42.5-19,42.5-42.5c0-23.5-19-42.5-42.5-42.5c-23.5,0-42.5,19-42.5,42.5
		C974.7,369.4,993.7,388.4,1017.2,388.4"/>
	<path class="st2" d="M821.6,272.9c23.5,0,42.5-19,42.5-42.5c0-23.5-19-42.5-42.5-42.5c-23.5,0-42.5,19-42.5,42.5
		C779.1,253.9,798.1,272.9,821.6,272.9"/>
	<path class="st2" d="M1015.6,610.9c23.5,0,42.5-19,42.5-42.5c0-23.5-19-42.5-42.5-42.5c-23.5,0-42.5,19-42.5,42.5
		C973.1,591.9,992.1,610.9,1015.6,610.9"/>
</g>
</svg>
