<?xml version="1.0" encoding="UTF-8"?><svg id="a" xmlns="http://www.w3.org/2000/svg" width="128mm" height="34mm" viewBox="0 0 362.83 96.38"><defs><style>.b{fill:#6a686f;}.c{fill:#ed6e00;}</style></defs><path class="b" d="M322.73,54.87V21.62l34.64,36.14V7.38h-7.17v33.01l-34.64-36.24v50.73h7.17ZM235.27,54.87h7.17V7.38h-7.17v47.5ZM196.38,14.11h3.23c6.11,0,10.74,1.45,13.87,4.34,3.49,3.24,5.23,7.46,5.23,12.67s-1.76,9.36-5.29,12.58c-1.72,1.56-3.65,2.7-5.78,3.42-2.13.68-4.81,1.01-8.03,1.01h-3.23V14.11ZM199.06,54.87c4.82,0,8.54-.44,11.17-1.32,2.81-.88,5.5-2.45,8.06-4.71,5.11-4.51,7.66-10.42,7.66-17.72s-2.45-13.16-7.35-17.63c-2.42-2.21-5.12-3.78-8.09-4.71-2.77-.94-6.54-1.42-11.32-1.42h-9.97v47.5h9.84ZM152.78,36.6l7.38-16.15,7.04,16.15h-14.43ZM175.12,54.87h7.84l-22.67-50.48-23.5,50.48h7.72l5.29-11.54h20.33l4.98,11.54ZM111.34,7.38v47.5h21.13v-6.74h-13.97V7.38h-7.17ZM83.09,7.38v47.5h21.13v-6.74h-13.97V7.38h-7.17ZM46.66,36.6l7.38-16.15,7.04,16.15h-14.43ZM69,54.87h7.84L54.17,4.39l-23.5,50.48h7.72l5.29-11.54h20.33l4.98,11.54ZM12.42,13.99h2.37c6.79,0,10.18,2.45,10.18,7.35s-3.29,7.6-9.88,7.6h-2.68v-14.95ZM15.74,35.58c4.94,0,8.87-1.27,11.78-3.81,2.91-2.54,4.37-5.99,4.37-10.34,0-4.06-1.36-7.42-4.09-10.09-1.56-1.54-3.36-2.58-5.41-3.14-2.03-.55-5.04-.83-9.01-.83H5.25v47.5h7.17v-19.29h3.32Z"/><path class="c" d="M301.05,32.05c0,12.04-9.76,21.79-21.8,21.79s-21.79-9.76-21.79-21.79,9.76-21.79,21.79-21.79,21.8,9.76,21.8,21.79M307.6,32.05c0-15.65-12.69-28.35-28.35-28.35s-28.35,12.69-28.35,28.35,12.69,28.35,28.35,28.35,28.35-12.69,28.35-28.35"/><path class="b" d="M279.26,50.48c10.18,0,18.42-8.25,18.42-18.42s-8.25-18.42-18.42-18.42-18.43,8.25-18.43,18.42,8.25,18.42,18.43,18.42"/><path class="b" d="M346.33,71.88h1.21c3.14,0,4.72,1.16,4.72,3.47,0,2.47-1.62,3.71-4.85,3.71h-1.08v-7.18ZM354.21,79.44c.92-1.15,1.38-2.53,1.38-4.13,0-2.05-.73-3.7-2.2-4.95-1.33-1.12-3.49-1.68-6.47-1.68h-4v22.62h3.41v-9.26h.61l6.46,9.26h4.18l-7-9.64c1.5-.32,2.71-1.06,3.63-2.21M320.65,73.92c1.62-1.64,3.61-2.46,5.96-2.46s4.35.82,5.95,2.46c1.61,1.63,2.42,3.65,2.42,6.06s-.82,4.41-2.45,6.07c-1.63,1.64-3.63,2.46-6.01,2.46-2.19,0-4.12-.81-5.79-2.42-1.68-1.61-2.52-3.67-2.52-6.17s.81-4.38,2.43-6.01M318.61,88.67c2.32,2.02,4.95,3.03,7.87,3.03,3.3,0,6.12-1.14,8.45-3.41,2.32-2.26,3.49-5.02,3.49-8.28s-1.16-6-3.47-8.31c-2.3-2.31-5.07-3.46-8.29-3.46s-6.05,1.14-8.38,3.43c-2.33,2.28-3.5,5.02-3.5,8.2,0,3.62,1.28,6.55,3.84,8.79M313.36,71.88v-3.21h-13.8v3.21h5.2v19.41h3.41v-19.41h5.19ZM285.79,82.59l3.52-7.69,3.36,7.69h-6.87ZM296.42,91.29h3.74l-10.8-24.04-11.19,24.04h3.68l2.52-5.49h9.68l2.37,5.49ZM265.91,71.88h1.21c3.15,0,4.72,1.16,4.72,3.47,0,2.47-1.62,3.71-4.85,3.71h-1.08v-7.18ZM273.79,79.44c.92-1.15,1.38-2.53,1.38-4.13,0-2.05-.73-3.7-2.2-4.95-1.33-1.12-3.49-1.68-6.47-1.68h-4v22.62h3.41v-9.26h.62l6.46,9.26h4.17l-7-9.64c1.5-.32,2.71-1.06,3.63-2.21M257.8,68.68h-12.48v22.62h12.48v-3.21h-9.07v-7.56h8.8v-3.21h-8.8v-5.43h9.07v-3.21ZM231.81,68.68v22.62h10.06v-3.21h-6.65v-19.41h-3.41ZM227.12,68.68h-12.48v22.62h12.48v-3.21h-9.07v-7.56h8.8v-3.21h-8.8v-5.43h9.07v-3.21ZM204.23,68.24c-3.72,0-6.75,1.38-9.1,4.15-1.9,2.26-2.86,4.82-2.86,7.7,0,3.21,1.14,5.96,3.41,8.23,2.29,2.26,5.04,3.38,8.28,3.38,2.15,0,4.2-.55,6.15-1.65v-4.12c-.56.47-1.09.87-1.59,1.2-.5.33-.99.6-1.46.79-.84.39-1.86.59-3.06.59-2.32,0-4.29-.82-5.89-2.45-1.6-1.63-2.4-3.63-2.4-6.01s.8-4.43,2.4-6.09c1.59-1.67,3.55-2.5,5.87-2.5,2.11,0,4.15.82,6.12,2.48v-4.04c-1.89-1.1-3.86-1.66-5.89-1.66M183,68.24c-3.72,0-6.75,1.38-9.1,4.15-1.9,2.26-2.86,4.82-2.86,7.7,0,3.21,1.14,5.96,3.41,8.23,2.29,2.26,5.04,3.38,8.28,3.38,2.15,0,4.2-.55,6.15-1.65v-4.12c-.56.47-1.09.87-1.59,1.2-.5.33-.99.6-1.46.79-.84.39-1.86.59-3.06.59-2.32,0-4.29-.82-5.89-2.45-1.6-1.63-2.4-3.63-2.4-6.01s.8-4.43,2.4-6.09c1.59-1.67,3.55-2.5,5.87-2.5,2.11,0,4.15.82,6.12,2.48v-4.04c-1.89-1.1-3.86-1.66-5.89-1.66M155.82,82.59l3.52-7.69,3.35,7.69h-6.87ZM166.46,91.29h3.74l-10.79-24.04-11.19,24.04h3.68l2.52-5.49h9.68l2.37,5.49ZM136.64,68.68h-12.48v22.62h12.48v-3.21h-9.07v-7.56h8.8v-3.21h-8.8v-5.43h9.07v-3.21ZM113.75,68.24c-3.72,0-6.75,1.38-9.1,4.15-1.9,2.26-2.86,4.82-2.86,7.7,0,3.21,1.14,5.96,3.41,8.23,2.29,2.26,5.04,3.38,8.28,3.38,2.15,0,4.2-.55,6.15-1.65v-4.12c-.56.47-1.09.87-1.59,1.2-.5.33-.99.6-1.46.79-.84.39-1.86.59-3.06.59-2.32,0-4.29-.82-5.89-2.45-1.6-1.63-2.4-3.63-2.4-6.01s.8-4.43,2.4-6.09c1.59-1.67,3.55-2.5,5.87-2.5,2.11,0,4.15.82,6.12,2.48v-4.04c-1.9-1.1-3.86-1.66-5.89-1.66M80.6,91.29v-15.83l16.49,17.21v-23.99h-3.41v15.72l-16.49-17.26v24.16h3.41ZM72.49,68.68h-12.48v22.62h12.48v-3.21h-9.07v-7.56h8.8v-3.21h-8.8v-5.43h9.07v-3.21ZM55.85,68.68h-11.29v22.62h3.41v-10.77h7.6v-3.21h-7.6v-5.43h7.88v-3.21ZM39.86,68.68h-12.48v22.62h12.48v-3.21h-9.07v-7.56h8.8v-3.21h-8.8v-5.43h9.07v-3.21ZM8.8,71.88h1.54c2.91,0,5.11.69,6.61,2.07,1.66,1.54,2.49,3.56,2.49,6.03s-.84,4.46-2.52,5.99c-.82.74-1.74,1.28-2.75,1.63-1.02.32-2.29.48-3.82.48h-1.54v-16.2ZM10.08,91.29c2.29,0,4.07-.21,5.32-.63,1.34-.42,2.62-1.17,3.84-2.24,2.43-2.15,3.65-4.96,3.65-8.44s-1.17-6.26-3.5-8.39c-1.15-1.06-2.44-1.8-3.85-2.24-1.32-.45-3.11-.67-5.39-.67h-4.75v22.62h4.69Z"/></svg>